<svg width="25" height="25" viewBox="0 0 25 25" fill="none" xmlns="http://www.w3.org/2000/svg">
<g clip-path="url(#clip0_2578_9956)">
<path d="M2.5449 14.2839C2.54423 14.2843 2.54349 14.2846 2.54275 14.285C2.27186 14.4258 2.15422 14.7511 2.27267 15.0326C2.39146 15.3151 2.70755 15.4584 2.99828 15.3617L11.1947 12.6347L9.6621 15.1374C9.55077 15.3193 9.57432 15.553 9.71968 15.709C9.86504 15.8649 10.0966 15.9049 10.2859 15.8065L11.8931 14.9713C11.9393 14.9473 11.9812 14.9159 12.0172 14.8783L16.7786 9.90451L22.6549 6.83837C24.8804 5.63867 24.6226 4.71645 24.4906 4.46245C24.3883 4.26549 24.1595 4.0014 23.6512 3.86176C23.1356 3.7201 22.439 3.7314 21.522 3.89633C21.2159 3.95136 21.0469 3.94672 20.868 3.94181C20.239 3.92459 19.8123 3.96676 17.6938 5.06758L6.107 11.0889L1.61359 8.75694C1.44415 8.66903 1.24255 8.66909 1.07311 8.75721L0.315956 9.15072C0.1601 9.23171 0.0487738 9.37828 0.0125844 9.55015C-0.023605 9.72208 0.0191765 9.90115 0.12909 10.038L3.24783 13.9226L2.5449 14.2839Z" fill="#BF9766"/>
<path d="M23.8838 19.0028H1.94795C1.33111 19.0028 0.831055 19.503 0.831055 20.1197C0.831055 20.7364 1.33111 21.2366 1.94795 21.2366H23.8838C24.5007 21.2366 25.0007 20.7365 25.0007 20.1197C25.0007 19.5028 24.5007 19.0028 23.8838 19.0028Z" fill="#BF9766"/>
</g>
<defs>
<clipPath id="clip0_2578_9956">
<rect width="25" height="25" fill="white"/>
</clipPath>
</defs>
</svg>
