<svg width="16" height="16" viewBox="0 0 16 16" fill="none" xmlns="http://www.w3.org/2000/svg">
<g clip-path="url(#clip0_2584_3264)">
<path d="M1.59203 4.47119C1.59203 5.66639 1.99123 6.52879 2.77763 7.03519C3.42243 7.45119 4.16963 7.51359 4.55843 7.51359C4.6539 7.51253 4.7283 7.50986 4.78163 7.50559C4.78163 7.50559 4.65843 8.30879 5.25363 9.10239H5.22643C4.19523 9.10239 0.832031 9.31759 0.832031 12.084C0.832031 14.8968 3.92083 15.04 4.54083 15.04C4.58963 15.04 4.61843 15.0384 4.61843 15.0384L4.74483 15.04C5.14243 15.04 6.17043 14.9904 7.12483 14.5256C8.36323 13.9256 8.99123 12.8784 8.99123 11.4176C8.99123 10.0064 8.03443 9.16639 7.33603 8.55199C6.90963 8.17679 6.54083 7.85359 6.54083 7.53919C6.54083 7.21919 6.81043 6.97839 7.15043 6.67359C7.70163 6.18159 8.22163 5.47999 8.22163 4.15359C8.22163 2.98799 8.07043 2.20479 7.13843 1.70799C7.23523 1.65839 7.57923 1.62239 7.74883 1.59839C8.25363 1.52959 8.99203 1.45119 8.99203 1.03919V0.959991H5.31283C5.27603 0.961591 1.59203 1.09759 1.59203 4.47119ZM7.53123 11.6816C7.60163 12.8064 6.63923 13.636 5.19363 13.7408C3.72563 13.8488 2.51763 13.188 2.44723 12.064C2.41283 11.5232 2.65043 10.9952 3.11523 10.5736C3.58643 10.1472 4.23363 9.88319 4.93763 9.83119C5.02083 9.82586 5.1035 9.82266 5.18563 9.82159C6.54483 9.82239 7.46483 10.6208 7.53123 11.6816ZM6.57043 3.70079C6.93123 4.97119 6.38643 6.29759 5.51763 6.54319C5.41765 6.57123 5.31426 6.58523 5.21043 6.58479C4.41523 6.58479 3.62723 5.77999 3.33443 4.67039C3.17123 4.04959 3.18483 3.50399 3.37203 2.98079C3.55523 2.46479 3.88643 2.11839 4.30243 2.00079C4.4027 1.97252 4.50536 1.95839 4.61043 1.95839C5.57043 1.95839 6.18803 2.35679 6.57043 3.70079ZM12.8008 6.39999V3.99999H11.2008V6.39999H8.80083V7.99999H11.2008V10.4H12.8008V7.99999H15.2008V6.39999H12.8008Z" fill="#3F3F3F"/>
</g>
<defs>
<clipPath id="clip0_2584_3264">
<rect width="16" height="16" fill="white"/>
</clipPath>
</defs>
</svg>
