<svg width="33" height="32" viewBox="0 0 33 32" fill="none" xmlns="http://www.w3.org/2000/svg">
<path d="M30.2546 16C30.2546 23.728 23.9896 30 16.2546 30C8.51964 30 2.25464 23.728 2.25464 16C2.25464 8.265 8.51964 2 16.2546 2C23.9896 2 30.2546 8.265 30.2546 16Z" fill="#333333"/>
<path d="M22.8167 12.4574C22.7404 12.502 20.9217 13.4425 20.9217 15.5279C21.0074 17.9061 23.2168 18.7401 23.2546 18.7401C23.2168 18.7847 22.9211 19.8763 22.0453 21.0205C21.3503 22.0062 20.5789 23 19.4074 23C18.2931 23 17.8931 22.3431 16.6074 22.3431C15.2267 22.3431 14.836 23 13.7788 23C12.6074 23 11.7788 21.953 11.0459 20.9766C10.0937 19.6986 9.28442 17.6931 9.25585 15.7675C9.23659 14.7471 9.44653 13.744 9.97945 12.8921C10.7316 11.7026 12.0745 10.8952 13.5409 10.8686C14.6646 10.8333 15.6646 11.5875 16.3503 11.5875C17.0074 11.5875 18.236 10.8686 19.6261 10.8686C20.2261 10.8692 21.8261 11.0376 22.8167 12.4574ZM16.2552 10.6649C16.0552 9.73303 16.6074 8.80119 17.1217 8.20677C17.7788 7.48792 18.8167 7 19.7118 7C19.7689 7.93185 19.4068 8.84575 18.7596 9.51136C18.1789 10.2302 17.1788 10.7714 16.2552 10.6649Z" fill="white"/>
</svg>
