<svg width="30" height="30" viewBox="0 0 30 30" fill="none" xmlns="http://www.w3.org/2000/svg">
<path d="M17.0781 7.02356C17.0781 6.82973 17.2359 6.672 17.4297 6.672H19.4609C19.6548 6.672 19.8125 6.82973 19.8125 7.02356V9.1179H20.9844V7.02356C20.9844 6.18352 20.301 5.50012 19.4609 5.50012H17.4297C16.5896 5.50012 15.9062 6.18352 15.9062 7.02356V9.1179H17.0781V7.02356Z" fill="#BF9766"/>
<path d="M11.6226 24.3283C11.3666 23.9305 11.2188 23.4595 11.2188 22.9611V14.1765H5.86719C5.11332 14.1765 4.5 14.7898 4.5 15.5437V22.9611C4.5 23.6486 5.0102 24.219 5.67188 24.3141V24.9141C5.67188 25.2376 5.93422 25.5 6.25781 25.5C6.58141 25.5 6.84375 25.2376 6.84375 24.9141V24.3282L11.6226 24.3283ZM6.84375 16.325C6.84375 16.0014 7.10609 15.739 7.42969 15.739C7.75328 15.739 8.01563 16.0014 8.01563 16.325V22.1798C8.01563 22.5034 7.75328 22.7658 7.42969 22.7658C7.10609 22.7658 6.84375 22.5034 6.84375 22.1798V16.325Z" fill="#BF9766"/>
<path d="M9.96875 12.0822C9.96875 11.8883 10.1265 11.7306 10.3203 11.7306H11.2188V11.657C11.2188 11.2638 11.3086 10.8913 11.4688 10.5587H10.3203C9.48027 10.5587 8.79688 11.2421 8.79688 12.0822V13.0046H9.96875V12.0822Z" fill="#BF9766"/>
<path d="M23.1328 10.2898H13.7578C13.0039 10.2898 12.3906 10.9031 12.3906 11.657V22.9611C12.3906 23.6486 12.9008 24.219 13.5625 24.3141V24.9141C13.5625 25.2376 13.8248 25.5 14.1484 25.5C14.472 25.5 14.7344 25.2376 14.7344 24.9141V24.3282H22.1563V24.9141C22.1563 25.2376 22.4186 25.5 22.7422 25.5C23.0658 25.5 23.3281 25.2376 23.3281 24.9141V24.3141C23.9898 24.219 24.5 23.6486 24.5 22.9611V11.657C24.5 10.9031 23.8867 10.2898 23.1328 10.2898ZM15.9063 22.1798C15.9063 22.5034 15.6439 22.7658 15.3203 22.7658C14.9967 22.7658 14.7344 22.5034 14.7344 22.1798V12.4382C14.7344 12.1146 14.9967 11.8523 15.3203 11.8523C15.6439 11.8523 15.9063 12.1146 15.9063 12.4382V22.1798ZM21.5703 22.7658C21.2467 22.7658 20.9844 22.5034 20.9844 22.1798V12.4382C20.9844 12.1146 21.2467 11.8523 21.5703 11.8523C21.8939 11.8523 22.1563 12.1146 22.1563 12.4382V22.1798C22.1563 22.5034 21.8939 22.7658 21.5703 22.7658Z" fill="#BF9766"/>
</svg>
