<svg width="19" height="18" viewBox="0 0 19 18" fill="none" xmlns="http://www.w3.org/2000/svg">
<path fill-rule="evenodd" clip-rule="evenodd" d="M6.6498 4.50001C6.6498 3.65148 6.6498 3.22722 6.92806 2.96362C7.20631 2.70001 7.65414 2.70001 8.5498 2.70001H10.4498C11.3455 2.70001 11.7933 2.70001 12.0715 2.96362C12.3498 3.22722 12.3498 3.65148 12.3498 4.50001V5.45941C12.8637 5.52093 13.2246 5.64616 13.5051 5.901C14.0563 6.40198 14.0922 7.21801 14.164 8.85012L14.2281 10.3065L15.1998 10.575C15.1998 11.4385 15.1512 12.325 15.0851 13.1314C14.9698 14.5387 14.9121 15.2423 14.3659 15.7212C13.8197 16.2 13.0347 16.2 11.4647 16.2H7.53487C5.9649 16.2 5.17992 16.2 4.63369 15.7212C4.08745 15.2423 4.02979 14.5387 3.91447 13.1314C3.84838 12.325 3.7998 11.4385 3.7998 10.575L4.77151 10.3065L4.83554 8.85016C4.90731 7.21806 4.94322 6.40198 5.49451 5.901C5.775 5.64612 6.1359 5.52093 6.6498 5.45941V4.50001ZM8.07476 5.40078C8.24994 5.40001 8.43547 5.40001 8.63226 5.40001H10.3673C10.5641 5.40001 10.7496 5.40001 10.9248 5.40078V4.05001H8.07476V5.40078ZM6.4123 11.7H12.5873C12.5873 11.7 12.8248 13.3875 12.8248 13.725C12.8248 14.0625 12.5873 14.4 12.1123 14.4C11.6373 14.4 11.3998 14.0635 11.3998 13.725C11.3998 13.6122 11.4261 13.3498 11.4613 13.05H6.29355L6.4123 11.7Z" fill="#3F3F3F"/>
</svg>
