<svg width="18" height="18" viewBox="0 0 18 18" fill="none" xmlns="http://www.w3.org/2000/svg">
<g clip-path="url(#clip0_1235_8680)">
<path d="M5.16578 4.13198C5.16578 4.13198 4.95664 4.12793 4.73873 4.23688C4.52081 4.34584 4.27881 4.62322 4.27881 5.01667V15.3456C4.27881 15.739 4.52081 16.0164 4.73873 16.1254C4.95664 16.2343 5.16578 16.2303 5.16578 16.2303H12.8373C12.8373 16.2303 13.0464 16.2343 13.2643 16.1254C13.4822 16.0164 13.7214 15.739 13.7214 15.3456V5.01663C13.7214 4.62318 13.4823 4.34581 13.2643 4.23685C13.0464 4.12789 12.8373 4.13195 12.8373 4.13195L5.16578 4.13198ZM8.9972 5.8984C9.1602 5.89682 9.29357 6.02765 9.29516 6.19064C9.2952 6.19275 9.29516 6.19485 9.29516 6.19695V14.4592C9.29878 14.6221 9.16957 14.7572 9.00661 14.7608C8.84365 14.7644 8.70862 14.6352 8.705 14.4722C8.70489 14.4679 8.70489 14.4635 8.705 14.4592V6.19695C8.70308 6.03399 8.83366 5.90032 8.99665 5.8984H8.9972ZM6.9322 6.48915C7.0952 6.48757 7.22857 6.6184 7.23016 6.78139C7.23019 6.78331 7.23019 6.78523 7.23016 6.78711V13.869C7.23377 14.032 7.1046 14.167 6.94161 14.1706C6.77865 14.1742 6.64361 14.0451 6.64 13.8821C6.63989 13.8777 6.63989 13.8733 6.64 13.869V6.78707C6.63845 6.62415 6.76924 6.49074 6.9322 6.48915ZM11.0622 6.48915C11.2251 6.48631 11.3595 6.61607 11.3624 6.77903C11.3625 6.78172 11.3625 6.78442 11.3625 6.78711V13.869C11.3588 14.032 11.2238 14.1612 11.0608 14.1576C10.9029 14.1541 10.7758 14.0269 10.7723 13.869V6.78711C10.7707 6.62504 10.9001 6.49199 11.0622 6.48915Z" fill="#3F3F3F"/>
<path d="M6.91905 0C6.75602 0.000590159 6.62438 0.133228 6.625 0.296223V0.352841V0.357194L6.64024 1.48115C6.64319 1.64245 6.77512 1.77151 6.93646 1.77085H11.0664C11.2312 1.77147 11.3645 1.63714 11.3627 1.47241L11.3452 0.291871C11.3435 0.130536 11.2125 0.000553274 11.0512 0L6.91905 0Z" fill="#3F3F3F"/>
<path d="M10.1821 1.47684V3.5418H10.7724V1.47684H10.1821Z" fill="#3F3F3F"/>
<path d="M7.23047 1.47684V3.5418H7.82078V1.47684H7.23047Z" fill="#3F3F3F"/>
<path d="M6.04983 16.8204V17.1156C6.04983 17.1156 6.04544 17.3247 6.1544 17.5426C6.26336 17.7605 6.54294 18 6.9364 18C7.32985 18 7.60726 17.7605 7.71622 17.5426C7.82518 17.3246 7.82079 17.1156 7.82079 17.1156V16.8204C7.82079 16.8204 6.05042 16.8195 6.04983 16.8204Z" fill="#3F3F3F"/>
<path d="M10.1822 16.8204V17.1157C10.1822 17.1157 10.1778 17.3247 10.2867 17.5426C10.3957 17.7605 10.6731 18.0001 11.0665 18.0001C11.46 18.0001 11.7374 17.7606 11.8464 17.5426C11.9553 17.3247 11.9531 17.1157 11.9531 17.1157V16.8204H10.1822Z" fill="#3F3F3F"/>
</g>
<defs>
<clipPath id="clip0_1235_8680">
<rect width="18" height="18" fill="white"/>
</clipPath>
</defs>
</svg>
