<svg width="24" height="24" viewBox="0 0 24 24" fill="none" xmlns="http://www.w3.org/2000/svg">
<path d="M12 6.76959V5.53134C11.5155 5.56659 11.2462 5.82459 11.0115 6.24234L5.871 16.7191H8.3355L7.58175 15.7621L8.23425 14.3986L8.238 14.4023L12 6.77334V6.76959ZM10.527 13.1213H13.4722L11.9992 10.0741L10.527 13.1213ZM8.23425 14.4143H8.25L8.238 14.4023L8.23425 14.4143ZM21.4957 5.06634L13.2615 0.308336C12.5662 -0.0936641 11.433 -0.0936641 10.7377 0.308336L2.5035 5.06634C1.812 5.46459 1.242 6.44559 1.242 7.24584V16.7536C1.242 17.5583 1.812 18.5348 2.5035 18.9331L10.7377 23.6911C11.433 24.0931 12.5662 24.0931 13.2615 23.6911L21.4957 18.9256C22.1872 18.5348 22.7535 17.5426 22.7535 16.7498V7.24584C22.7535 6.44484 22.1872 5.46459 21.4957 5.06634ZM15.4297 17.1173L14.742 15.7306H9.24225L8.57025 17.1173H5.28525L10.6837 6.08184C10.9882 5.47659 11.4607 5.18334 12 5.18334C12.5392 5.18334 13.035 5.51184 13.3162 6.07359L18.711 17.1166L15.4297 17.1173ZM12 6.76959V9.24234L14.5192 14.4181H8.25L9.0075 15.3556H14.9805L15.6525 16.7071H18.129L16.422 15.7186V15.7576L12 6.76959Z" fill="#BF9766"/>
</svg>
