<svg width="52" height="52" viewBox="0 0 52 52" fill="none" xmlns="http://www.w3.org/2000/svg">
<path d="M41.2852 20.4328H10.7148M41.2852 20.4328L38.8537 15.6C37.7289 13.3636 35.4397 11.9524 32.9367 11.9524H19.0633C16.5598 11.9524 14.2705 13.3636 13.1457 15.6L10.7148 20.4328M41.2852 20.4328L44.0268 22.1472C46.0489 23.4112 47.2773 25.6273 47.2773 28.0119V33.5136C47.2773 34.1438 47.1641 34.7694 46.9427 35.36L46.798 35.7464C46.6248 36.2096 46.3064 36.5884 45.9062 36.8403M10.7148 20.4328L7.97266 22.1472C5.95055 23.4112 4.72266 25.6273 4.72266 28.0119V33.5136C4.72266 34.1438 4.8359 34.7694 5.0568 35.36L5.20152 35.7464C5.3752 36.2096 5.69309 36.5884 6.09375 36.8403M45.9062 36.8403C45.5625 37.0571 45.1572 37.179 44.7317 37.179L41.1008 37.2699C40.8357 37.277 40.5757 37.1962 40.3609 37.0409L38.4922 35.688M45.9062 36.8403L45.9062 39.2219C45.9062 39.9582 45.309 40.5554 44.5726 40.5554H39.8251C39.0888 40.5554 38.4916 39.9582 38.4916 39.2219L38.4922 35.688M38.4922 35.688L37.4649 34.9446L14.5346 34.843L13.5078 35.586M13.5078 35.586L11.6248 36.9489C11.4187 37.0982 11.1704 37.179 10.9154 37.179H7.26781C6.84227 37.179 6.43754 37.0571 6.09375 36.8403M13.5078 35.586L13.5077 39.2219C13.5077 39.9582 12.9105 40.5554 12.1742 40.5554H7.42667C6.69034 40.5554 6.09315 39.9582 6.09315 39.2219L6.09375 36.8403M41.2852 20.3003C39.9898 22.7525 38.2906 24.991 36.2767 26.8978M10.7148 20.3003C12.0103 22.7525 13.7094 24.991 15.7234 26.8978M17.1829 30.8151H34.4704M38.3327 31.8307C38.3327 29.8751 39.9181 28.2897 41.8737 28.2897H43.6378C43.9689 28.2897 44.237 28.5578 44.237 28.8889V30.4515C44.237 31.2132 43.6195 31.8307 42.8578 31.8307H38.3327ZM41.0937 20.2074C41.0937 18.5138 42.4664 17.1412 44.1599 17.1412H45.6874C45.9738 17.1412 46.2064 17.3733 46.2064 17.6602V19.013C46.2064 19.6727 45.6717 20.2074 45.012 20.2074H41.0937ZM10.9062 20.3003C10.9062 18.6068 9.53358 17.2341 7.84002 17.2341H6.31201C6.02561 17.2341 5.79303 17.4662 5.79303 17.7531V19.1059C5.79303 19.7656 6.32776 20.3003 6.9874 20.3003H10.9062ZM13.6667 31.8307C13.6667 29.8751 12.0813 28.2897 10.1257 28.2897H8.36161C8.03052 28.2897 7.76239 28.5578 7.76239 28.8889V30.4515C7.76239 31.2132 8.37989 31.8307 9.14161 31.8307H13.6667Z" stroke="#6D6D6D" stroke-width="1.52344" stroke-miterlimit="10"/>
</svg>
