<svg width="33" height="33" viewBox="0 0 33 33" fill="none" xmlns="http://www.w3.org/2000/svg">
<path d="M26.2221 15.2202H24.7404L22.6613 12.1825C21.4338 10.3888 19.4035 9.31807 17.2306 9.31807H12.8532C10.6802 9.31807 8.64994 10.3888 7.42241 12.1825L5.2866 15.3032C3.37218 15.9356 2.05273 17.7454 2.05273 19.7766V21.2358C2.05273 22.1746 2.81628 22.9383 3.7548 22.9383H4.90432C4.90284 22.9761 4.90142 23.0138 4.90142 23.0518C4.90142 24.6165 6.174 25.8894 7.7382 25.8894C9.3024 25.8894 10.575 24.6165 10.575 23.0518C10.575 23.0138 10.5736 22.9761 10.5721 22.9383H14.0724C14.3857 22.9383 14.6397 22.6842 14.6397 22.3708C14.6397 22.0574 14.3857 21.8033 14.0724 21.8033H10.2848C9.82227 20.8631 8.8547 20.2143 7.7382 20.2143C6.6217 20.2143 5.65413 20.8631 5.19157 21.8033H3.7548C3.44196 21.8033 3.18744 21.5487 3.18744 21.2358V19.7766C3.18744 18.181 4.26009 16.7653 5.79586 16.3341C5.92403 16.2981 6.03551 16.2182 6.11069 16.1083L8.35872 12.8236C9.37457 11.3393 11.0548 10.4531 12.8531 10.4531H17.2305C19.0289 10.4531 20.7091 11.3393 21.725 12.8236L23.973 16.1082C24.0787 16.2628 24.2539 16.3552 24.4411 16.3552H26.2221C28.2868 16.3552 29.9666 18.0354 29.9666 20.1008V21.8033H28.0596C27.5969 20.8631 26.6294 20.2143 25.5129 20.2143C24.3963 20.2143 23.4288 20.8631 22.9662 21.8033H19.1786C18.8653 21.8033 18.6112 22.0574 18.6112 22.3708C18.6112 22.6842 18.8653 22.9383 19.1786 22.9383H22.6789C22.6775 22.9761 22.676 23.0138 22.676 23.0518C22.676 24.6165 23.9486 25.8894 25.5128 25.8894C27.077 25.8894 28.3496 24.6165 28.3496 23.0518C28.3496 23.0138 28.3482 22.9761 28.3467 22.9383H30.534C30.8473 22.9383 31.1013 22.6842 31.1013 22.3708V20.1008C31.1013 17.4096 28.9125 15.2202 26.2221 15.2202ZM7.7382 21.3493C8.67672 21.3493 9.44027 22.1131 9.44027 23.0518C9.44027 23.9906 8.67672 24.7544 7.7382 24.7544C6.79968 24.7544 6.03613 23.9906 6.03613 23.0518C6.03613 22.1131 6.79974 21.3493 7.7382 21.3493ZM25.5129 24.7544C24.5744 24.7544 23.8108 23.9906 23.8108 23.0518C23.8108 22.1131 24.5744 21.3493 25.5129 21.3493C26.4514 21.3493 27.2149 22.1131 27.2149 23.0518C27.2149 23.9906 26.4514 24.7544 25.5129 24.7544Z" fill="#DD4B39"/>
<path d="M7.73536 23.6177C7.88458 23.6177 8.03096 23.557 8.1365 23.4514C8.24203 23.3459 8.30274 23.1994 8.30274 23.0502C8.30274 22.9009 8.24203 22.7545 8.1365 22.6489C8.03096 22.5433 7.88458 22.4826 7.73536 22.4826C7.58613 22.4826 7.43975 22.5433 7.33421 22.6489C7.22868 22.7545 7.16797 22.9009 7.16797 23.0502C7.16797 23.1994 7.22868 23.3459 7.33421 23.4514C7.43975 23.557 7.58613 23.6177 7.73536 23.6177Z" fill="#DD4B39"/>
<path d="M25.5098 22.4834C25.3605 22.4834 25.2142 22.544 25.1086 22.6496C25.0031 22.7552 24.9424 22.9016 24.9424 23.0509C24.9424 23.2002 25.003 23.3466 25.1086 23.4521C25.2142 23.5577 25.3605 23.6184 25.5098 23.6184C25.659 23.6184 25.8054 23.5577 25.9109 23.4521C26.0164 23.3466 26.0772 23.2002 26.0772 23.0509C26.0772 22.9016 26.0164 22.7552 25.9109 22.6496C25.8054 22.544 25.659 22.4834 25.5098 22.4834Z" fill="#DD4B39"/>
<path d="M15.6943 16.3552L21.6876 16.3552C21.8981 16.3552 22.0913 16.2387 22.1895 16.0524C22.2877 15.8662 22.2747 15.6409 22.1558 15.4671L20.7854 13.4648C19.9811 12.2896 18.6509 11.5881 17.2272 11.5881H15.6943C15.381 11.5881 15.127 11.8422 15.127 12.1556V15.7877C15.127 16.1011 15.381 16.3552 15.6943 16.3552ZM16.2617 12.7231H17.2272C18.2763 12.7231 19.2564 13.2401 19.8491 14.1059L20.6116 15.2202L16.2617 15.2202V12.7231Z" fill="#DD4B39"/>
<path d="M12.8627 11.5884C11.439 11.5884 10.1088 12.2899 9.30451 13.4651L7.93417 15.4673C7.81526 15.641 7.80226 15.8664 7.90047 16.0526C7.99863 16.2389 8.19187 16.3554 8.40236 16.3554H13.4377C13.7511 16.3554 14.0051 16.1013 14.0051 15.7879V12.1558C14.0051 11.8424 13.7511 11.5883 13.4377 11.5883H12.8627V11.5884ZM12.8704 15.2205H9.47829L10.2408 14.1063C10.8335 13.2404 11.8136 12.7234 12.8627 12.7234H12.8704V15.2205Z" fill="#DD4B39"/>
<path d="M16.9329 18.0731C16.9329 17.7597 16.6789 17.5056 16.3656 17.5056H15.6943C15.3809 17.5056 15.127 17.7597 15.127 18.0731C15.127 18.3864 15.3809 18.6405 15.6943 18.6405H16.3656C16.6789 18.6405 16.9329 18.3864 16.9329 18.0731Z" fill="#DD4B39"/>
<path d="M16.623 21.8029C16.4733 21.8029 16.3274 21.8636 16.2213 21.9692C16.1158 22.0748 16.0557 22.2212 16.0557 22.3705C16.0557 22.5197 16.1158 22.6662 16.2213 22.7717C16.3274 22.8772 16.4738 22.938 16.623 22.938C16.7717 22.938 16.9181 22.8773 17.0242 22.7717C17.1297 22.6662 17.1899 22.5197 17.1899 22.3705C17.1899 22.2212 17.1297 22.0748 17.0242 21.9692C16.9181 21.8636 16.7723 21.8029 16.623 21.8029Z" fill="#DD4B39"/>
</svg>
