<svg width="22" height="12" viewBox="0 0 22 12" fill="none" xmlns="http://www.w3.org/2000/svg">
<path d="M0.629796 9.60981C0.414302 9.81427 0.405357 10.1547 0.609815 10.3702C0.814273 10.5857 1.15471 10.5946 1.3702 10.3902L0.629796 9.60981ZM20.537 0.969276C20.52 0.672708 20.2658 0.446048 19.9693 0.463016L15.1364 0.739529C14.8399 0.756497 14.6132 1.01067 14.6302 1.30724C14.6471 1.6038 14.9013 1.83046 15.1979 1.8135L19.4937 1.56771L19.7395 5.86358C19.7565 6.16015 20.0107 6.38681 20.3072 6.36984C20.6038 6.35287 20.8305 6.0987 20.8135 5.80213L20.537 0.969276ZM11.7063 9.70486L12.1046 9.34338L11.7063 9.70486ZM12.2394 9.70253L12.6408 10.0605L12.2394 9.70253ZM6.63061 4.65773L6.2604 4.26755L6.63061 4.65773ZM7.14293 4.67687L6.74465 5.03835L7.14293 4.67687ZM1.3702 10.3902L7.00081 5.04792L6.2604 4.26755L0.629796 9.60981L1.3702 10.3902ZM6.74465 5.03835L11.308 10.0663L12.1046 9.34338L7.54121 4.31539L6.74465 5.03835ZM12.6408 10.0605L20.4014 1.35798L19.5986 0.64202L11.838 9.34455L12.6408 10.0605ZM11.308 10.0663C11.6658 10.4606 12.2865 10.4579 12.6408 10.0605L11.838 9.34455C11.9089 9.26507 12.033 9.26452 12.1046 9.34338L11.308 10.0663ZM7.00081 5.04792C6.92785 5.11714 6.81224 5.11282 6.74465 5.03835L7.54121 4.31539C7.20326 3.94303 6.62519 3.92144 6.2604 4.26755L7.00081 5.04792Z" fill="#3F3F3F"/>
</svg>
