<svg width="20" height="20" viewBox="0 0 20 20" fill="none" xmlns="http://www.w3.org/2000/svg">
<g clip-path="url(#clip0_1198_5782)">
<path d="M18.5675 9.13585C18.6625 8.31585 18.75 7.38169 18.75 6.73919C18.75 2.13335 13.3833 0.416687 10 0.416687C7.805 0.416687 6.22083 1.59419 5.68833 2.05169C4.02167 2.14752 1.25 3.20835 1.25 6.73919C1.25 7.39085 1.33667 8.32085 1.43083 9.13669C0.586667 9.48169 0 10.2984 0 11.25C0 12.4534 0.935833 13.4325 2.11583 13.5242C3.245 16.8017 6.34917 19.1667 10 19.1667C13.6508 19.1667 16.755 16.8025 17.8842 13.5242C19.065 13.4325 20 12.4534 20 11.25C20 10.2975 19.4133 9.48085 18.5675 9.13585ZM16.8125 12.7725C16.8125 12.7742 16.8108 12.775 16.8108 12.7767V12.7792C15.9558 15.7417 13.2292 17.9167 10 17.9167C6.47917 17.9167 3.5575 15.3309 3.0075 11.9575L3.83917 9.04835C4.58167 8.81252 6.245 8.14502 6.97333 6.73585C8.09417 7.79502 10.6058 9.09502 16.195 9.16419L16.9933 11.9534C16.9483 12.2317 16.8892 12.505 16.8125 12.7725Z" fill="#3F3F3F"/>
</g>
<defs>
<clipPath id="clip0_1198_5782">
<rect width="20" height="20" fill="white"/>
</clipPath>
</defs>
</svg>
