<svg width="20" height="20" viewBox="0 0 20 20" fill="none" xmlns="http://www.w3.org/2000/svg">
<g clip-path="url(#clip0_1096_5608)">
<path d="M18.567 9.13584C18.662 8.31584 18.7495 7.38167 18.7495 6.73917C18.7495 2.13334 13.3828 0.416672 9.99951 0.416672C7.80451 0.416672 6.22035 1.59417 5.68785 2.05167C4.02118 2.1475 1.24951 3.20834 1.24951 6.73917C1.24951 7.39084 1.33618 8.32084 1.43035 9.13667C0.586178 9.48167 -0.000488281 10.2983 -0.000488281 11.25C-0.000488281 12.4533 0.935345 13.4325 2.11535 13.5242C3.24451 16.8017 6.34868 19.1667 9.99951 19.1667C13.6503 19.1667 16.7545 16.8025 17.8837 13.5242C19.0645 13.4325 19.9995 12.4533 19.9995 11.25C19.9995 10.2975 19.4128 9.48084 18.567 9.13584ZM16.812 12.7725C16.812 12.7742 16.8103 12.775 16.8103 12.7767V12.7792C15.9553 15.7417 13.2287 17.9167 9.99951 17.9167C6.47868 17.9167 3.55701 15.3308 3.00701 11.9575L3.83868 9.04834C4.58118 8.8125 6.24451 8.14501 6.97285 6.73584C8.09368 7.79501 10.6053 9.09501 16.1945 9.16417L16.9928 11.9533C16.9478 12.2317 16.8887 12.505 16.812 12.7725Z" fill="#3F3F3F"/>
</g>
<defs>
<clipPath id="clip0_1096_5608">
<rect width="20" height="20" fill="white"/>
</clipPath>
</defs>
</svg>
