<svg width="33" height="32" viewBox="0 0 33 32" fill="none" xmlns="http://www.w3.org/2000/svg">
<path d="M16.6691 23.9392C16.3789 23.9392 16.1436 24.1745 16.1436 24.4648V24.4772C16.1436 24.7674 16.3789 25.0027 16.6691 25.0027C16.9593 25.0027 17.1946 24.7674 17.1946 24.4772V24.4648C17.1946 24.1745 16.9593 23.9392 16.6691 23.9392Z" fill="#F39C12"/>
<path d="M28.2955 28.4122C27.5259 28.4122 26.8088 27.9982 26.4241 27.3317C26.3302 27.169 26.1566 27.0688 25.9688 27.0688C25.7809 27.0688 25.6073 27.169 25.5134 27.3317C25.1589 27.9458 24.5222 28.3447 23.8223 28.4038C24.8232 26.466 25.729 24.01 26.4567 21.7558C26.4667 21.7311 26.475 21.706 26.4811 21.6804C26.7226 20.9297 26.9441 20.2026 27.1426 19.5255C27.1469 19.513 27.1504 19.5004 27.1537 19.4878C27.3867 18.692 27.5876 17.9665 27.7514 17.3553C27.8 17.1739 27.7481 16.9803 27.6153 16.8474C26.2345 15.4666 24.5613 14.1091 22.7985 12.9095L22.6738 8.8695C22.6537 8.2232 22.1404 7.71698 21.5054 7.71698H19.3074L19.0811 5.27074C19.0804 5.25881 19.0794 5.24698 19.0778 5.23525L18.9156 3.48091C18.8662 2.94644 18.4434 2.54343 17.9321 2.54343H15.3904C14.8791 2.54343 14.4563 2.94644 14.4069 3.48091L14.2446 5.23562C14.2431 5.24698 14.2421 5.25849 14.2414 5.27006L14.0151 7.71692H11.8172C11.1819 7.71692 10.6687 8.22326 10.6487 8.86961L10.524 12.9095C8.76116 14.1091 7.08794 15.4666 5.70717 16.8474C5.57441 16.9802 5.52246 17.1739 5.5711 17.3553C5.7342 17.9639 5.934 18.6856 6.16561 19.4768C6.1696 19.4937 6.1746 19.5105 6.18033 19.5271C6.37865 20.2034 6.59985 20.9295 6.84098 21.679C6.84713 21.7054 6.85565 21.7312 6.86601 21.7566C7.59386 24.0109 8.49958 26.4664 9.50026 28.4038C8.80038 28.3447 8.16371 27.9458 7.80922 27.3317C7.71537 27.169 7.5418 27.0688 7.35389 27.0688C7.16608 27.0688 6.99246 27.169 6.89855 27.3317C6.51378 27.9982 5.79661 28.4122 5.02701 28.4122C4.73662 28.4122 4.50122 28.6476 4.50122 28.938C4.50122 29.2283 4.73667 29.4637 5.02701 29.4637C5.91417 29.4637 6.75444 29.0936 7.35384 28.4654C7.95313 29.0937 8.79345 29.4639 9.68071 29.4639C9.94403 29.4639 10.203 29.4309 10.4529 29.3686C10.4651 29.366 10.4773 29.363 10.4894 29.3594C11.0675 29.2082 11.5946 28.8979 12.0076 28.4651C12.6069 29.0935 13.4471 29.4639 14.3344 29.4639C15.2216 29.4639 16.0618 29.0937 16.6611 28.4655C17.2605 29.0938 18.1009 29.464 18.988 29.464C19.8753 29.464 20.7154 29.0936 21.3149 28.4652C21.7251 28.8952 22.248 29.2043 22.8216 29.3565C22.8401 29.3624 22.8588 29.367 22.8775 29.3707C23.125 29.4317 23.3812 29.4639 23.6417 29.4639C24.5289 29.4639 25.3693 29.0937 25.9686 28.4655C26.5679 29.0937 27.4082 29.4638 28.2954 29.4638C28.5858 29.4638 28.8212 29.2284 28.8212 28.938C28.8213 28.6476 28.5859 28.4122 28.2955 28.4122ZM22.0347 13.6605C23.7132 14.789 25.3155 16.0689 26.6561 17.3779C26.5682 17.702 26.4709 18.0536 26.3652 18.4266C24.0551 16.5155 19.9784 13.6328 17.187 12.3547L17.187 10.9549C18.7365 11.6348 20.373 12.5501 21.9459 13.6008C21.9733 13.6236 22.003 13.6436 22.0347 13.6605ZM15.4524 3.595H17.8702L17.9796 4.77776H15.3429L15.4524 3.595ZM15.2457 5.82934H18.0768L18.2514 7.71692H15.0712L15.2457 5.82934ZM11.6998 8.90205C11.7018 8.83643 11.7463 8.7685 11.8172 8.7685H14.4944H18.828H18.8291H21.5054C21.5763 8.7685 21.6207 8.83648 21.6227 8.90205L21.7246 12.2054C20.0954 11.1768 18.4256 10.3012 16.8675 9.68069C16.8659 9.68001 16.8643 9.67943 16.8627 9.67874C16.8603 9.67775 16.8578 9.67669 16.8554 9.67575C16.8509 9.67401 16.8463 9.67275 16.8419 9.67112C16.8317 9.66739 16.8215 9.66365 16.811 9.66055C16.8047 9.65866 16.7984 9.65729 16.792 9.65566C16.7821 9.65314 16.7723 9.65046 16.7622 9.64851C16.7538 9.64688 16.7454 9.64588 16.737 9.64467C16.7288 9.64352 16.7207 9.64199 16.7124 9.6412C16.6783 9.63784 16.6439 9.63784 16.6099 9.6412C16.6016 9.64199 16.5935 9.64352 16.5853 9.64467C16.5769 9.64588 16.5684 9.64688 16.56 9.64851C16.5499 9.65051 16.5401 9.65314 16.5303 9.65566C16.5239 9.65729 16.5175 9.65866 16.5112 9.66055C16.5008 9.66365 16.4906 9.66739 16.4804 9.67112C16.4759 9.67275 16.4714 9.67401 16.467 9.67575C16.4645 9.67675 16.462 9.6778 16.4596 9.67874C16.458 9.67938 16.4563 9.68001 16.4548 9.68069C14.8967 10.3012 13.2271 11.1768 11.5978 12.2054L11.6998 8.90205ZM6.66637 17.3779C8.0065 16.0693 9.60821 14.7898 11.2861 13.6617C11.3185 13.6446 11.3488 13.6239 11.3768 13.6007C12.9496 12.55 14.586 11.6348 16.1354 10.9549L16.1355 12.3547C13.344 13.6327 9.2675 16.5154 6.95729 18.4264C6.8516 18.0536 6.75438 17.702 6.66637 17.3779ZM22.7355 28.2109C22.337 28.0263 21.9962 27.723 21.7703 27.3318C21.7694 27.3301 21.7682 27.3287 21.7672 27.327C21.7615 27.3173 21.7552 27.308 21.7488 27.2986C21.7453 27.2934 21.7419 27.2881 21.7382 27.283C21.7321 27.2747 21.7254 27.2667 21.7188 27.2587C21.7141 27.2532 21.7097 27.2474 21.7048 27.242C21.699 27.2357 21.6928 27.2297 21.6867 27.2236C21.6803 27.2172 21.674 27.2106 21.6673 27.2046C21.6623 27.2 21.6568 27.1958 21.6515 27.1914C21.6432 27.1845 21.635 27.1776 21.6264 27.1713C21.6215 27.1677 21.6164 27.1645 21.6115 27.1611C21.6019 27.1546 21.5924 27.1482 21.5824 27.1423C21.5809 27.1414 21.5794 27.1402 21.5778 27.1393C21.5737 27.137 21.5693 27.1351 21.5651 27.1329C21.5558 27.1278 21.5466 27.1229 21.537 27.1185C21.5296 27.115 21.5221 27.112 21.5145 27.1088C21.5066 27.1056 21.4987 27.1024 21.4906 27.0995C21.4817 27.0963 21.4726 27.0935 21.4636 27.0909C21.4566 27.0888 21.4497 27.0868 21.4427 27.085C21.4329 27.0826 21.4231 27.0806 21.4133 27.0787C21.4064 27.0773 21.3996 27.0761 21.3927 27.0751C21.383 27.0737 21.3734 27.0726 21.3637 27.0717C21.3562 27.0709 21.3488 27.0704 21.3411 27.07C21.3323 27.0696 21.3235 27.0694 21.3146 27.0694C21.3061 27.0694 21.2975 27.0696 21.289 27.07C21.2812 27.0704 21.2733 27.071 21.2655 27.0717C21.2561 27.0726 21.2468 27.0737 21.2374 27.0751C21.2302 27.0761 21.2232 27.0775 21.216 27.0788C21.2064 27.0807 21.197 27.0827 21.1875 27.085C21.1801 27.0869 21.173 27.089 21.1658 27.0911C21.1569 27.0937 21.1482 27.0964 21.1394 27.0995C21.1312 27.1024 21.123 27.1057 21.1148 27.1091C21.1075 27.1121 21.1002 27.1151 21.0929 27.1185C21.0833 27.1229 21.0739 27.1279 21.0645 27.133C21.0604 27.1352 21.0561 27.137 21.052 27.1394C21.0504 27.1403 21.049 27.1414 21.0474 27.1424C21.0374 27.1482 21.0279 27.1547 21.0183 27.1612C21.0133 27.1646 21.0083 27.1678 21.0034 27.1713C20.9948 27.1777 20.9865 27.1846 20.9782 27.1915C20.9729 27.1959 20.9675 27.2001 20.9624 27.2047C20.9557 27.2107 20.9494 27.2173 20.9431 27.2237C20.937 27.2298 20.9308 27.2358 20.925 27.2421C20.9201 27.2475 20.9157 27.2532 20.911 27.2589C20.9044 27.2668 20.8977 27.2748 20.8915 27.2831C20.8878 27.2882 20.8844 27.2935 20.881 27.2987C20.8746 27.3081 20.8683 27.3174 20.8626 27.3272C20.8615 27.3288 20.8604 27.3303 20.8595 27.3319C20.4747 27.9984 19.7575 28.4124 18.9879 28.4124C18.2183 28.4124 17.5012 27.9983 17.1164 27.3318C17.0225 27.1691 16.8489 27.0689 16.661 27.0689C16.4732 27.0689 16.2996 27.1691 16.2057 27.3318C15.821 27.9982 15.1039 28.4122 14.3343 28.4122C13.5647 28.4122 12.8476 27.9982 12.4628 27.3317C12.4619 27.3301 12.4608 27.3287 12.4598 27.3272C12.454 27.3173 12.4476 27.3076 12.4411 27.298C12.4376 27.293 12.4344 27.2879 12.4309 27.2831C12.4246 27.2746 12.4178 27.2664 12.411 27.2582C12.4065 27.2529 12.4021 27.2472 12.3974 27.242C12.3916 27.2355 12.3852 27.2294 12.379 27.2232C12.3726 27.2169 12.3665 27.2105 12.36 27.2046C12.3548 27.2 12.3492 27.1957 12.3439 27.1912C12.3357 27.1843 12.3275 27.1775 12.3189 27.1712C12.3141 27.1677 12.309 27.1644 12.3039 27.161C12.2944 27.1545 12.2848 27.1481 12.275 27.1422C12.2733 27.1413 12.2719 27.1402 12.2703 27.1392C12.2662 27.1369 12.2619 27.135 12.2577 27.1328C12.2484 27.1277 12.239 27.1228 12.2295 27.1183C12.2221 27.1149 12.2148 27.1119 12.2074 27.1088C12.1993 27.1055 12.1911 27.1022 12.1829 27.0993C12.1742 27.0962 12.1654 27.0935 12.1565 27.0909C12.1493 27.0887 12.1421 27.0866 12.1348 27.0848C12.1253 27.0824 12.116 27.0804 12.1065 27.0786C12.0992 27.0772 12.092 27.0759 12.0847 27.0748C12.0755 27.0735 12.0663 27.0724 12.0571 27.0716C12.0491 27.0708 12.041 27.0701 12.033 27.0698C12.0247 27.0694 12.0165 27.0692 12.0082 27.0692C11.999 27.0692 11.9898 27.0694 11.9807 27.0698C11.9735 27.0702 11.9664 27.0708 11.9593 27.0714C11.9492 27.0723 11.9391 27.0735 11.9291 27.075C11.9227 27.076 11.9163 27.0771 11.9098 27.0784C11.8996 27.0803 11.8894 27.0824 11.8792 27.085C11.8727 27.0867 11.8662 27.0885 11.8597 27.0904C11.8502 27.0933 11.8408 27.0962 11.8313 27.0995C11.8237 27.1023 11.8163 27.1053 11.8088 27.1083C11.8008 27.1116 11.7929 27.1148 11.785 27.1185C11.7759 27.1228 11.767 27.1275 11.7581 27.1323C11.7536 27.1347 11.749 27.1367 11.7446 27.1392C11.7429 27.1402 11.7413 27.1413 11.7396 27.1423C11.7301 27.148 11.721 27.1542 11.7117 27.1604C11.7064 27.164 11.701 27.1675 11.6957 27.1713C11.6875 27.1774 11.6797 27.1839 11.6718 27.1905C11.6661 27.1952 11.6602 27.1998 11.6548 27.2047C11.6485 27.2104 11.6425 27.2166 11.6364 27.2226C11.63 27.229 11.6235 27.2353 11.6175 27.2421C11.6128 27.2472 11.6086 27.2526 11.6042 27.258C11.5973 27.2662 11.5904 27.2744 11.5841 27.283C11.5805 27.2879 11.5772 27.2931 11.5738 27.2981C11.5673 27.3076 11.561 27.3171 11.5552 27.3269C11.5542 27.3286 11.5531 27.33 11.5522 27.3316C11.3262 27.7228 10.9854 28.0261 10.5871 28.2107C9.59869 26.372 8.6946 23.9682 7.96081 21.7249L8.40993 21.3313C8.72688 21.0533 9.06575 20.7685 9.41714 20.4848C9.64307 20.3024 9.6784 19.9714 9.496 19.7454C9.31361 19.5195 8.98257 19.4842 8.75659 19.6666C8.39411 19.9592 8.0442 20.2533 7.71673 20.5405L7.61221 20.6321C7.49496 20.2551 7.38317 19.8866 7.27744 19.5304C9.37586 17.7414 13.3726 14.889 16.1353 13.5199L16.1353 22.9549C16.1353 23.2453 16.3707 23.4807 16.6611 23.4807C16.9515 23.4807 17.1869 23.2453 17.1869 22.9549L17.187 13.5201C19.9497 14.8892 23.9466 17.7416 26.045 19.5306C25.9393 19.8868 25.8275 20.2552 25.7102 20.6321L25.6059 20.5406C24.9277 19.9461 24.1849 19.3473 23.335 18.7099C23.1026 18.5357 22.773 18.5828 22.5989 18.8151C22.4246 19.0474 22.4717 19.377 22.704 19.5512C23.5208 20.1637 24.2639 20.7626 24.9127 21.3314L25.3617 21.725C24.628 23.9679 23.7239 26.372 22.7355 28.2109Z" fill="#F39C12"/>
<path d="M10.6557 18.7375C10.4509 18.5554 10.1433 18.5627 9.94733 18.7467C9.90177 18.7893 9.86388 18.8398 9.83587 18.8958C9.70607 19.1554 9.81128 19.4711 10.0709 19.6009C10.1464 19.6386 10.2265 19.6565 10.3055 19.6565C10.4541 19.6565 10.5984 19.5933 10.6989 19.48C10.6991 19.4797 10.6993 19.4796 10.6994 19.4794C10.8922 19.2624 10.8727 18.9303 10.6557 18.7375Z" fill="#F39C12"/>
</svg>
