<svg width="52" height="52" viewBox="0 0 52 52" fill="none" xmlns="http://www.w3.org/2000/svg">
<path d="M48.5804 19.8169C48.4478 19.5462 48.2458 19.3155 47.9949 19.1483C47.7441 18.9811 47.4534 18.8834 47.1524 18.8652C43.8988 18.811 40.6493 19.1187 37.4637 19.7828C34.7089 15.4567 28.5808 14.5852 23.9222 16.6263C21.7659 15.3378 19.2468 14.7916 16.7505 15.0711C14.3043 15.3917 10.9479 17.7855 9.04021 19.0509C8.7586 19.2461 8.52281 19.5002 8.34922 19.7956C8.17563 20.091 8.06839 20.4206 8.03493 20.7616L7.68106 24.3077C7.39215 24.682 7.22268 25.1347 7.19473 25.6067L7.06173 28.1034C6.72699 28.4637 6.5115 28.9184 6.44463 29.4056C6.25288 31.1498 6.17772 33.8385 7.2813 35.37H4.04905C3.83588 35.3736 3.63267 35.4609 3.48321 35.6129C3.33374 35.7649 3.24999 35.9696 3.25 36.1828C3.25001 36.396 3.33377 36.6007 3.48324 36.7527C3.63271 36.9047 3.83593 36.992 4.0491 36.9956C12.2509 36.9986 36.6085 36.9985 44.5655 36.9956C44.779 36.9923 44.9826 36.9053 45.1324 36.7532C45.2821 36.6011 45.3661 36.3962 45.3661 36.1827C45.3661 35.9693 45.2821 35.7644 45.1323 35.6123C44.9825 35.4602 44.7789 35.3732 44.5655 35.3699H41.319C42.5106 33.1884 43.3079 30.6781 44.42 28.6087C44.4681 28.5117 44.4963 28.406 44.503 28.2979C44.5096 28.1898 44.4946 28.0815 44.4589 27.9793C44.4231 27.877 44.3673 27.783 44.2947 27.7026C44.222 27.6223 44.1341 27.5572 44.036 27.5113C43.9379 27.4654 43.8316 27.4396 43.7234 27.4353C43.6152 27.4311 43.5072 27.4485 43.4058 27.4865C43.3044 27.5245 43.2116 27.5825 43.1329 27.6568C43.0542 27.7312 42.9911 27.8206 42.9474 27.9197C42.0279 29.7993 41.1325 31.8163 40.2848 33.9182C40.1182 34.3424 39.8287 34.7073 39.4535 34.9659C39.0782 35.2246 38.6343 35.3653 38.1785 35.3699H10.4488C8.66902 35.345 8.01892 33.6779 8.00281 32.1028C9.01559 31.8072 10.0763 31.4957 11.0616 31.2114C11.2659 31.1492 11.4375 31.0091 11.5394 30.8214C11.6413 30.6336 11.6652 30.4134 11.6059 30.2082C11.5467 30.0029 11.4091 29.8293 11.2229 29.7247C11.0366 29.6201 10.8167 29.5931 10.6107 29.6493C9.7552 29.8966 8.86306 30.1576 7.98002 30.4168C8.03866 29.8245 7.95766 29.2041 8.58301 28.9952C34.7828 20.8084 44.2167 20.3154 47.0556 20.4877L47.1175 20.5972C46.7917 21.0697 46.465 21.5793 46.1318 22.1197C41.471 22.2859 32.1223 23.604 13.7461 28.7531C13.56 28.809 13.4 28.9296 13.295 29.093C13.1899 29.2565 13.1467 29.4521 13.1732 29.6446C13.1996 29.8371 13.2939 30.0138 13.4391 30.1429C13.5844 30.272 13.7709 30.3449 13.9652 30.3486C30.7126 25.724 40.3439 24.0577 45.1216 23.7993C44.7963 24.4802 43.8231 25.4909 44.789 26.0718C44.9783 26.1749 45.2007 26.1986 45.4075 26.1377C45.6142 26.0769 45.7883 25.9364 45.8915 25.7472C46.3285 24.9447 46.7968 24.1366 47.2877 23.3397C47.8713 22.1395 49.2221 21.1896 48.5804 19.8169ZM30.3528 17.2738C31.3869 17.3691 32.3918 17.6687 33.3092 18.1554C34.2267 18.6421 35.0383 19.3061 35.6971 20.1089C26.5883 22.0032 17.588 24.386 8.73519 27.247L8.81799 25.6924C8.8251 25.5558 8.86966 25.4238 8.94681 25.3108C9.02395 25.1978 9.1307 25.1082 9.25536 25.0519L24.1464 18.2921C26.081 17.3847 28.2296 17.0321 30.3528 17.2738ZM16.9128 16.6871C18.6683 16.505 20.4414 16.7673 22.069 17.45L16.9602 19.7693L15.5746 17.0837C15.9982 16.885 16.4493 16.7513 16.9128 16.6871ZM9.96656 20.3861C11.3003 19.4476 12.6837 18.582 14.1108 17.7928L15.4778 20.4422L9.4266 23.1893L9.65263 20.9234C9.66294 20.8165 9.69636 20.713 9.75056 20.6203C9.80476 20.5275 9.87846 20.4476 9.96656 20.3861Z" fill="#6D6D6D"/>
</svg>
