<svg width="20" height="20" viewBox="0 0 20 20" fill="none" xmlns="http://www.w3.org/2000/svg">
<g clip-path="url(#clip0_3710_11384)">
<path d="M3.5 13.2002H8.16699C8.33253 13.2004 8.4668 13.3344 8.4668 13.5V16.5C8.4668 16.6656 8.33253 16.7996 8.16699 16.7998H3.5C3.33431 16.7998 3.2002 16.6657 3.2002 16.5V13.5C3.2002 13.3343 3.33432 13.2002 3.5 13.2002ZM11.833 9.86621H16.5C16.6657 9.86621 16.7998 10.0013 16.7998 10.167V16.5C16.7998 16.6657 16.6657 16.7998 16.5 16.7998H11.833C11.6675 16.7996 11.5332 16.6656 11.5332 16.5V10.167C11.5332 10.0014 11.6675 9.86639 11.833 9.86621ZM3.5 3.2002H8.16699C8.33253 3.20037 8.4668 3.33442 8.4668 3.5V9.83301C8.4668 9.99859 8.33253 10.1336 8.16699 10.1338H3.5C3.33431 10.1338 3.2002 9.99869 3.2002 9.83301V3.5C3.2002 3.33431 3.33432 3.2002 3.5 3.2002ZM11.833 3.2002H16.5C16.6657 3.2002 16.7998 3.33431 16.7998 3.5V6.5C16.7998 6.66569 16.6657 6.7998 16.5 6.7998H11.833C11.6675 6.79963 11.5332 6.66558 11.5332 6.5V3.5C11.5332 3.33442 11.6675 3.20037 11.833 3.2002Z" stroke="#BF9766" stroke-width="1.4"/>
</g>
<defs>
<clipPath id="clip0_3710_11384">
<rect width="20" height="20" fill="white"/>
</clipPath>
</defs>
</svg>
