<svg width="52" height="52" viewBox="0 0 52 52" fill="none" xmlns="http://www.w3.org/2000/svg">
<path d="M8.60284 29.0201C8.19822 29.21 8.01971 29.6879 8.20002 30.0964L10.0482 34.0638C10.139 34.2613 10.3046 34.4151 10.5083 34.491C10.5976 34.5234 10.6923 34.5402 10.7874 34.5402C10.9065 34.5412 11.0241 34.5157 11.1324 34.4666L25.096 27.9444L23.8312 41.1686C23.8068 41.4289 23.9071 41.6848 24.1018 41.8587C24.714 42.3654 25.477 42.654 26.2708 42.68C26.4896 42.6797 26.7073 42.6522 26.9195 42.5982C28.0531 42.3024 28.932 41.2923 29.5316 39.5671L35.0266 23.2956L45.9098 18.2191C49.1132 16.7243 50.7641 13.6935 49.6555 11.3278C49.0263 10.0913 47.8212 9.25019 46.4438 9.08531C44.9133 8.85432 43.3491 9.09508 41.9591 9.7757L29.3999 15.6648L15.8967 10.3833C14.1962 9.74277 12.8493 9.75923 11.9048 10.4411C11.1123 11.0914 10.6614 12.0688 10.6807 13.0939C10.6889 13.3539 10.8198 13.5944 11.0339 13.7431L20.1265 19.9936L14.9192 22.4578L6.18751 20.2398C5.82971 20.1518 5.45725 20.3131 5.27591 20.6341L3.09954 24.5519C2.98662 24.7595 2.96887 25.0059 3.05092 25.2276C3.13246 25.4496 3.30583 25.6253 3.52679 25.7102L9.99107 28.3799L8.60284 29.0201ZM12.3642 12.6834C12.4126 12.3361 12.5883 12.02 12.8573 11.7962C13.3257 11.4592 14.18 11.5086 15.3215 11.9356L27.3467 16.6258L21.8596 19.1885L12.3642 12.6834ZM4.97213 24.5439L6.40126 22.0059L14.804 24.092C14.9851 24.1378 15.1762 24.1205 15.3465 24.0431L42.6574 11.2869C43.7432 10.7513 44.966 10.5564 46.1647 10.7282C47.0053 10.8056 47.7541 11.2907 48.169 12.0259C48.8583 13.5047 47.5033 15.6648 45.2114 16.7326L35.7492 21.1684L36.3243 19.4676C36.4697 19.0301 36.2323 18.5573 35.7947 18.4122C35.3567 18.2672 34.8841 18.5046 34.7391 18.9421L27.979 39.0575C27.5764 40.1996 27.0753 40.8815 26.5169 41.0289C26.1709 41.0955 25.8129 41.0276 25.5148 40.8403L27.1577 23.5909C27.2006 23.1374 26.868 22.7349 26.414 22.6919C25.9605 22.6484 25.558 22.9816 25.5148 23.435L25.2604 26.0716L11.165 32.6426L10.0075 30.1784L12.3233 29.0945C12.6214 28.963 12.8136 28.6683 12.8136 28.3429C12.8136 28.0172 12.6214 27.7224 12.3233 27.5913L4.97213 24.5439Z" fill="#6D6D6D"/>
</svg>
