<svg width="33" height="33" viewBox="0 0 33 33" fill="none" xmlns="http://www.w3.org/2000/svg">
<path d="M25.0971 9.91651C24.9861 8.61904 24.1454 7.77816 22.8484 7.66718C22.6683 7.65177 22.5098 7.78533 22.4944 7.96546C22.479 8.14555 22.6125 8.30416 22.7926 8.31957C23.7741 8.4036 24.3609 8.99062 24.4449 9.97233C24.4517 10.0523 24.4868 10.1231 24.5394 10.1758C24.6054 10.2417 24.6988 10.2792 24.7989 10.2706C24.979 10.2552 25.1125 10.0966 25.0971 9.91651Z" fill="#0073B7" stroke="#0073B7" stroke-width="0.208983"/>
<path d="M26.7884 5.97868C26.4799 5.67011 26.0537 5.51612 25.6194 5.55582L25.1116 5.60234C23.1542 5.78186 21.3675 6.69914 20.0807 8.18535L19.2992 9.08775L17.4968 8.34053L17.5932 8.2441C17.8803 7.95693 17.8803 7.48971 17.5932 7.20258L17.047 6.65605C16.76 6.36901 16.2929 6.36892 16.0058 6.65605L15.2522 7.40987L14.3856 7.05065L14.6028 6.83341C14.8899 6.54624 14.8899 6.07906 14.6028 5.79194L14.0565 5.2455C13.7694 4.95837 13.3023 4.95845 13.0153 5.2455L12.141 6.12008L10.6676 5.5093C9.96925 5.21975 9.17265 5.37823 8.63806 5.91288L7.65741 6.8938C7.44926 7.10201 7.34203 7.38993 7.36324 7.68366C7.38445 7.97739 7.53197 8.24687 7.76785 8.42305L15.1208 13.913L12.6665 16.7473C12.5482 16.884 12.563 17.0907 12.6996 17.209C12.7615 17.2626 12.8377 17.2889 12.9137 17.2889C13.0053 17.2889 13.0964 17.2507 13.1611 17.1759L15.8457 14.0757L15.8458 14.0756L17.4314 12.2445L20.5753 8.61384C21.7509 7.25614 23.3832 6.41817 25.1714 6.25418L25.6791 6.20766C25.9198 6.18562 26.1551 6.27086 26.3257 6.44154C26.4963 6.61217 26.5815 6.84789 26.5595 7.08828L26.513 7.59617C26.4052 8.77294 25.9944 9.90974 25.3251 10.8835C25.2227 11.0325 25.2604 11.2363 25.4093 11.3387C25.5583 11.4412 25.762 11.4033 25.8644 11.2544C26.597 10.1884 27.0466 8.9441 27.1647 7.65594L27.2112 7.14805C27.251 6.71348 27.0969 6.28724 26.7884 5.97868ZM16.4685 7.119C16.5003 7.08705 16.5522 7.08701 16.5842 7.119L17.1304 7.6654C17.1623 7.69726 17.1623 7.74924 17.1305 7.7811L16.8425 8.06916L16.5768 7.959L15.9065 7.68111L16.4685 7.119ZM13.4781 5.7084C13.5099 5.67645 13.5619 5.67641 13.5938 5.7084L14.14 6.2548C14.1719 6.28666 14.1719 6.3386 14.14 6.37046L13.7313 6.77932L12.7953 6.39132L13.4781 5.7084ZM15.5504 13.4169L8.15931 7.89844C8.07448 7.83515 8.02362 7.74211 8.01596 7.63653C8.00835 7.53095 8.04531 7.43157 8.1202 7.35675L9.1008 6.37588C9.33246 6.1442 9.63988 6.02145 9.95354 6.02145C10.1093 6.02145 10.2668 6.05178 10.4172 6.1141L18.8477 9.60906L15.5504 13.4169Z" fill="#0073B7" stroke="#0073B7" stroke-width="0.208983"/>
<path d="M27.7145 18.9038L27.1683 18.3573C26.8811 18.0702 26.414 18.0703 26.127 18.3573L25.8566 18.6279L25.4418 17.6269L26.1145 16.954C26.4016 16.6668 26.4016 16.1997 26.1145 15.9125L25.5683 15.366C25.2812 15.0789 24.8141 15.079 24.5271 15.3661L24.5116 15.3816L23.71 13.4469L24.5858 12.6881C24.6505 12.6321 24.7149 12.5743 24.7775 12.5163C24.91 12.3935 24.9179 12.1863 24.795 12.0538C24.6722 11.9213 24.4652 11.9134 24.3326 12.0363C24.2754 12.0893 24.2165 12.1421 24.1574 12.1933L14.5968 20.4765C14.0971 20.9095 13.5767 21.3169 13.0381 21.698C12.2943 22.2244 11.5083 22.7042 10.702 23.1243C10.7018 23.1244 10.7016 23.1245 10.7014 23.1246C10.4931 23.2332 10.2829 23.3382 10.0708 23.4395C9.81143 23.5633 9.57661 23.465 9.44334 23.3317C9.31011 23.1984 9.21181 22.9635 9.33554 22.7041C9.44338 22.478 9.55593 22.2543 9.67204 22.0325C9.71556 21.9493 9.75951 21.8663 9.8043 21.7836C9.81438 21.765 9.82472 21.7466 9.83484 21.728C9.8791 21.6469 9.92372 21.566 9.96917 21.4853C9.97867 21.4685 9.98839 21.4517 9.99794 21.4349C10.0446 21.3526 10.0917 21.2706 10.1396 21.1889C10.1485 21.1737 10.1575 21.1587 10.1664 21.1436C10.2152 21.0608 10.2645 20.9783 10.3146 20.8962C10.3236 20.8813 10.3328 20.8665 10.3419 20.8516C10.3917 20.7702 10.4421 20.6892 10.4931 20.6085C10.5034 20.592 10.5139 20.5757 10.5243 20.5593C10.574 20.4812 10.6242 20.4034 10.6749 20.326C10.6875 20.3069 10.7 20.2878 10.7126 20.2688C10.7615 20.1948 10.8108 20.1211 10.8606 20.0479C10.8753 20.0262 10.8902 20.0045 10.905 19.9828C10.9535 19.912 11.0025 19.8415 11.0518 19.7714C11.4026 19.2731 11.7755 18.7902 12.1704 18.3252C12.2874 18.1874 12.2706 17.9808 12.1329 17.8638C11.995 17.7469 11.7887 17.7636 11.6716 17.9014C11.3323 18.301 11.0089 18.7134 10.701 19.1369L7.74401 17.7979C7.1861 17.5453 6.52062 17.6665 6.0878 18.0996L5.58441 18.6032C5.45703 18.7306 5.39125 18.9068 5.40388 19.0866C5.41655 19.2664 5.5064 19.4316 5.65036 19.5398L8.94395 22.0177C8.87632 22.1519 8.80962 22.2866 8.7449 22.4222C8.52195 22.8897 8.61448 23.4284 8.9806 23.7946C9.21414 24.0283 9.51783 24.1505 9.82846 24.1505C10.0048 24.1505 10.1834 24.111 10.3526 24.0303C10.4882 23.9655 10.6228 23.8988 10.7569 23.8312L13.2342 27.1257C13.3424 27.2697 13.5076 27.3596 13.6873 27.3723C13.7019 27.3733 13.7165 27.3738 13.731 27.3738C13.8953 27.3738 14.0535 27.3087 14.1705 27.1916L14.6738 26.6881C15.1068 26.2552 15.228 25.5894 14.9755 25.0315L13.6371 22.074C14.1148 21.7266 14.578 21.3588 15.0253 20.9713L18.8689 17.6412L24.4091 25.0654C24.5852 25.3014 24.8546 25.4489 25.1483 25.4701C25.1727 25.4719 25.1971 25.4727 25.2215 25.4727C25.4893 25.4727 25.7471 25.3667 25.9379 25.1758L26.9185 24.195C27.4531 23.6603 27.6115 22.8634 27.3221 22.1649L26.7869 20.8732L27.7146 19.9453C28.0016 19.6581 28.0016 19.191 27.7145 18.9038ZM6.07385 19.0394L6.55058 18.5626C6.79196 18.3211 7.16313 18.2535 7.47412 18.3944L10.3177 19.6819C10.3116 19.6909 10.3056 19.7001 10.2995 19.7091C10.264 19.7615 10.2288 19.8142 10.1937 19.8669C10.1766 19.8926 10.1597 19.9185 10.1427 19.9443C10.0235 20.1257 9.90708 20.3089 9.79352 20.4939C9.77936 20.517 9.7651 20.54 9.75102 20.5632C9.71745 20.6184 9.68419 20.6737 9.65114 20.7292C9.63403 20.7579 9.61709 20.7867 9.60015 20.8155C9.56825 20.8696 9.53639 20.9238 9.50498 20.9782C9.48896 21.0059 9.4733 21.0338 9.45742 21.0616C9.40545 21.1525 9.35419 21.2439 9.30359 21.3357C9.28626 21.3671 9.26862 21.3985 9.25146 21.43L6.07385 19.0394ZM14.3794 25.3015C14.5201 25.6126 14.4526 25.9838 14.2111 26.2253L13.7345 26.7021L11.3445 23.5236C11.396 23.4956 11.4472 23.467 11.4984 23.4385C11.5717 23.3978 11.6446 23.3567 11.7172 23.3151C11.7516 23.2955 11.7859 23.2759 11.8201 23.2561C11.8749 23.2244 11.9294 23.1925 11.9838 23.1603C12.011 23.1442 12.0382 23.1279 12.0654 23.1117C12.2529 22.9996 12.4386 22.8847 12.6225 22.7668C12.6465 22.7514 12.6706 22.736 12.6946 22.7205C12.7514 22.6838 12.8081 22.6468 12.8646 22.6095C12.8872 22.5946 12.9098 22.5794 12.9324 22.5643C12.9857 22.5288 13.0393 22.4935 13.0923 22.4575L14.3794 25.3015ZM24.9898 15.829C25.0216 15.797 25.0735 15.797 25.1054 15.829L25.6517 16.3754C25.6836 16.4073 25.6836 16.4592 25.6517 16.4911L25.1706 16.9724L24.8758 16.2608L24.7827 16.0361L24.9898 15.829ZM26.4557 23.7321L25.4751 24.7129C25.4004 24.7878 25.3011 24.8244 25.1954 24.8172C25.0898 24.8096 24.9968 24.7587 24.9335 24.6739L19.3649 17.2115L20.532 16.2003L23.1886 13.8986L26.7175 22.4154C26.9052 22.8685 26.8025 23.3853 26.4557 23.7321ZM27.2517 19.4824L26.5157 20.2187L26.1277 19.2824L26.5898 18.8202C26.6216 18.7883 26.6736 18.7883 26.7055 18.8202L27.2517 19.3666V19.3666C27.2836 19.3986 27.2836 19.4505 27.2517 19.4824Z" fill="#0073B7" stroke="#0073B7" stroke-width="0.208983"/>
</svg>
