<svg width="25" height="25" viewBox="0 0 25 25" fill="none" xmlns="http://www.w3.org/2000/svg">
<path d="M23.0057 12.7331C23.0057 11.8698 22.9342 11.2398 22.7795 10.5864H12.72V14.483H18.6247C18.5057 15.4514 17.8628 16.9097 16.4342 17.8897L16.4142 18.0202L19.5948 20.4349L19.8152 20.4564C21.839 18.6247 23.0057 15.9297 23.0057 12.7331Z" fill="#4285F4"/>
<path d="M12.7186 23.0001C15.6114 23.0001 18.04 22.0667 19.8138 20.4567L16.4329 17.89C15.5281 18.5083 14.3138 18.94 12.7186 18.94C9.88533 18.94 7.4806 17.1083 6.62337 14.5767L6.49773 14.5871L3.19047 17.0955L3.14722 17.2133C4.9091 20.6433 8.52814 23.0001 12.7186 23.0001Z" fill="#34A853"/>
<path d="M6.6251 14.5765C6.39891 13.9232 6.26801 13.2231 6.26801 12.4998C6.26801 11.7764 6.39891 11.0765 6.6132 10.4231L6.60721 10.284L3.2585 7.73535L3.14893 7.78642C2.42277 9.20977 2.0061 10.8081 2.0061 12.4998C2.0061 14.1915 2.42277 15.7897 3.14893 17.2131L6.6251 14.5765Z" fill="#FBBC05"/>
<path d="M12.7187 6.05997C14.7306 6.05997 16.0877 6.91163 16.8615 7.62335L19.8853 4.73C18.0282 3.03834 15.6115 2 12.7187 2C8.52817 2 4.90911 4.35665 3.14722 7.78662L6.61149 10.4233C7.48062 7.89166 9.88537 6.05997 12.7187 6.05997Z" fill="#EB4335"/>
</svg>
