<svg width="34" height="33" viewBox="0 0 34 33" fill="none" xmlns="http://www.w3.org/2000/svg">
<path fill-rule="evenodd" clip-rule="evenodd" d="M24.6852 12.0539L20.5874 13.153L20.5868 13.1531L15.5437 14.5057L17.9971 23.6707C19.1341 22.7396 20.5917 22.1807 22.1799 22.1807C25.5844 22.1807 28.3925 24.7506 28.7225 28.0513H29.4071C29.7672 28.0513 30.0592 28.3433 30.0592 28.7036C30.0592 29.0639 29.7672 29.3559 29.4071 29.3559H4.62688C4.26672 29.3559 3.97476 29.0638 3.97476 28.7036C3.97476 28.3433 4.26672 28.0513 4.62688 28.0513H10.1199C11.0359 26.5991 12.6627 25.634 14.515 25.634C15.1155 25.634 15.6932 25.7356 16.2308 25.9228C16.4267 25.5109 16.6648 25.1227 16.9395 24.7636L14.284 14.8436L9.24134 16.1961L9.2403 16.1963L5.14296 17.2953C4.97585 17.3401 4.79783 17.3167 4.648 17.2301C4.49821 17.1436 4.38889 17.0011 4.34415 16.8339C2.80514 11.0848 6.21356 5.17478 11.9581 3.63407C17.7028 2.0933 23.6071 5.50585 25.1462 11.2552C25.2393 11.6031 25.0329 11.9607 24.6852 12.0539ZM15.2064 13.2455L12.9454 4.79959C14.0418 4.76691 15.2656 5.33978 16.4455 6.51498C17.7369 7.80116 18.8879 9.73501 19.6081 12.065L15.2064 13.2455ZM11.6857 5.13757L13.9466 13.5834L9.54484 14.764C9.00489 12.3858 9.0357 10.1352 9.51155 8.37498C9.94631 6.76683 10.72 5.6581 11.6857 5.13757ZM8.25255 8.03446C7.70914 10.0446 7.6934 12.5325 8.28427 15.1021L5.45659 15.8605C4.77386 12.3799 6.10449 8.91185 8.70012 6.7529C8.52275 7.15722 8.37355 7.58685 8.25255 8.03446ZM17.3658 5.59052C18.8405 7.05938 20.0968 9.20597 20.8687 11.7269L23.6964 10.9685C22.5491 7.612 19.6639 5.27439 16.3372 4.70406C16.693 4.96563 17.0371 5.2632 17.3658 5.59052ZM22.1799 23.4853C19.871 23.4853 17.9116 24.9545 17.1978 26.9955C17.1356 27.1732 16.9998 27.3154 16.8251 27.3855C16.6505 27.4556 16.4541 27.4468 16.2863 27.3614C15.7563 27.0914 15.1547 26.9386 14.515 26.9386C13.4494 26.9386 12.485 27.3637 11.7845 28.0513H27.4099C27.0859 25.4814 24.8726 23.4853 22.1799 23.4853Z" fill="#D81B60"/>
</svg>
