<svg width="24" height="25" viewBox="0 0 24 25" fill="none" xmlns="http://www.w3.org/2000/svg">
<path d="M21.6424 2.64751H2.35985C2.02844 2.64751 1.75977 2.91618 1.75977 3.24759V22.5302C1.75977 22.8616 2.02844 23.1303 2.35985 23.1303C2.69125 23.1303 2.95993 22.8616 2.95993 22.5302V21.53H21.0424V22.5302C21.0424 22.8616 21.311 23.1303 21.6424 23.1303C21.9738 23.1303 22.2425 22.8616 22.2425 22.5302V3.24759C22.2425 2.91618 21.9738 2.64751 21.6424 2.64751ZM21.0424 3.84767V7.74907C20.7286 7.58281 20.3714 7.48816 19.9922 7.48816H19.8422V6.24799C19.8422 6.00212 19.6922 5.78113 19.4637 5.69032C17.3731 4.85956 15.0704 4.85956 12.9797 5.69032C12.7512 5.78113 12.6012 6.00212 12.6012 6.24799V7.48816H11.4011V6.24799C11.4011 6.00212 11.251 5.78113 11.0226 5.69032C8.93193 4.85956 6.62922 4.85956 4.53858 5.69032C4.31011 5.78113 4.16009 6.00212 4.16009 6.24799V7.48816H4.01007C3.63094 7.48816 3.27365 7.58277 2.95993 7.74907V3.84767H21.0424ZM2.95993 9.73846C2.95993 9.15942 3.43103 8.68832 4.01007 8.68832H4.16009V9.52843C4.16009 9.77431 4.31011 9.9953 4.53858 10.0861C5.58388 10.5015 6.68223 10.7092 7.78058 10.7092C8.87892 10.7092 9.97727 10.5015 11.0226 10.0861C11.251 9.9953 11.4011 9.77431 11.4011 9.52843V8.68832H12.6012V9.52843C12.6012 9.77431 12.7512 9.9953 12.9797 10.0861C14.025 10.5015 15.1234 10.7092 16.2217 10.7092C17.3201 10.7092 18.4184 10.5015 19.4637 10.0861C19.6922 9.9953 19.8422 9.77431 19.8422 9.52843V8.68832H19.9922C20.5713 8.68832 21.0424 9.15942 21.0424 9.73846V16.9904C20.7286 16.8241 20.3712 16.7294 19.992 16.7294H4.01027C3.63106 16.7294 3.27373 16.8241 2.95993 16.9904V9.73846ZM10.2009 9.10978C8.62641 9.64153 6.93474 9.64153 5.36025 9.10978V6.66665C6.93474 6.1349 8.62641 6.1349 10.2009 6.66665V9.10978ZM18.642 9.10978C17.0675 9.64153 15.3759 9.64153 13.8014 9.10978V6.66665C15.3759 6.1349 17.0675 6.1349 18.642 6.66665V9.10978ZM2.95993 18.9799C2.95993 18.4007 3.43111 17.9296 4.01027 17.9296H19.992C20.5712 17.9296 21.0424 18.4007 21.0424 18.9799V20.3299H2.95993V18.9799Z" fill="url(#paint0_linear_2280_6891)"/>
<defs>
<linearGradient id="paint0_linear_2280_6891" x1="12.0015" y1="3.78499" x2="12.0015" y2="21.9926" gradientUnits="userSpaceOnUse">
<stop offset="0.11" stop-color="#DEAF33"/>
<stop offset="0.61" stop-color="#B58F2C"/>
<stop offset="1" stop-color="#DEAF33"/>
</linearGradient>
</defs>
</svg>
