<svg width="52" height="52" viewBox="0 0 52 52" fill="none" xmlns="http://www.w3.org/2000/svg">
<path fill-rule="evenodd" clip-rule="evenodd" d="M15 15.6876H12.25C11.8703 15.6876 11.5625 15.9954 11.5625 16.3751V20.5C11.5625 20.8797 11.8703 21.1875 12.25 21.1875H15C15.3796 21.1875 15.6875 20.8797 15.6875 20.5V16.3751C15.6875 15.9954 15.3796 15.6876 15 15.6876ZM14.3125 19.8125H12.9375V17.0626H14.3125V19.8125Z" fill="#6D6D6D"/>
<path fill-rule="evenodd" clip-rule="evenodd" d="M15 23.25H12.25C11.8703 23.25 11.5625 23.5578 11.5625 23.9375V28.0625C11.5625 28.4421 11.8703 28.75 12.25 28.75H15C15.3796 28.75 15.6875 28.4421 15.6875 28.0625V23.9375C15.6875 23.5578 15.3796 23.25 15 23.25ZM14.3125 27.375H12.9375V24.625H14.3125V27.375Z" fill="#6D6D6D"/>
<path fill-rule="evenodd" clip-rule="evenodd" d="M12.25 30.8124H15C15.3796 30.8124 15.6875 31.1203 15.6875 31.4999V35.6249C15.6875 36.0046 15.3796 36.3124 15 36.3124H12.25C11.8703 36.3124 11.5625 36.0046 11.5625 35.6249V31.4999C11.5625 31.1203 11.8703 30.8124 12.25 30.8124ZM12.9375 34.9374H14.3125V32.1874H12.9375V34.9374Z" fill="#6D6D6D"/>
<path fill-rule="evenodd" clip-rule="evenodd" d="M15 38.3749H12.25C11.8703 38.3749 11.5625 38.6827 11.5625 39.0624V43.1873C11.5625 43.567 11.8703 43.8748 12.25 43.8748H15C15.3796 43.8748 15.6875 43.567 15.6875 43.1873V39.0624C15.6875 38.6827 15.3796 38.3749 15 38.3749ZM14.3125 42.4998H12.9375V39.7499H14.3125V42.4998Z" fill="#6D6D6D"/>
<path fill-rule="evenodd" clip-rule="evenodd" d="M23.9375 21.875H21.1875C20.8078 21.875 20.5 22.1828 20.5 22.5625V26.6875C20.5 27.0671 20.8078 27.375 21.1875 27.375H23.9375C24.3171 27.375 24.625 27.0671 24.625 26.6875V22.5625C24.625 22.1828 24.3171 21.875 23.9375 21.875ZM23.25 26H21.875V23.25H23.25V26Z" fill="#6D6D6D"/>
<path fill-rule="evenodd" clip-rule="evenodd" d="M26.6875 21.875H29.4375C29.8171 21.875 30.125 22.1828 30.125 22.5625V26.6875C30.125 27.0671 29.8171 27.375 29.4375 27.375H26.6875C26.3078 27.375 26 27.0671 26 26.6875V22.5625C26 22.1828 26.3078 21.875 26.6875 21.875ZM27.375 26H28.75V23.25H27.375V26Z" fill="#6D6D6D"/>
<path fill-rule="evenodd" clip-rule="evenodd" d="M34.9375 21.875H32.1875C31.8078 21.875 31.5 22.1828 31.5 22.5625V26.6875C31.5 27.0671 31.8078 27.375 32.1875 27.375H34.9375C35.3171 27.375 35.625 27.0671 35.625 26.6875V22.5625C35.625 22.1828 35.3171 21.875 34.9375 21.875ZM34.25 26H32.875V23.25H34.25V26Z" fill="#6D6D6D"/>
<path fill-rule="evenodd" clip-rule="evenodd" d="M21.1875 28.75H23.9375C24.3171 28.75 24.625 29.0578 24.625 29.4375V33.5624C24.625 33.9421 24.3171 34.2499 23.9375 34.2499H21.1875C20.8078 34.2499 20.5 33.9421 20.5 33.5624V29.4375C20.5 29.0578 20.8078 28.75 21.1875 28.75ZM21.875 32.8749H23.25V30.125H21.875V32.8749Z" fill="#6D6D6D"/>
<path fill-rule="evenodd" clip-rule="evenodd" d="M29.4375 28.75H26.6875C26.3078 28.75 26 29.0578 26 29.4375V33.5624C26 33.9421 26.3078 34.2499 26.6875 34.2499H29.4375C29.8171 34.2499 30.125 33.9421 30.125 33.5624V29.4375C30.125 29.0578 29.8171 28.75 29.4375 28.75ZM28.75 32.8749H27.375V30.125H28.75V32.8749Z" fill="#6D6D6D"/>
<path fill-rule="evenodd" clip-rule="evenodd" d="M32.1875 28.75H34.9375C35.3171 28.75 35.625 29.0578 35.625 29.4375V33.5624C35.625 33.9421 35.3171 34.2499 34.9375 34.2499H32.1875C31.8078 34.2499 31.5 33.9421 31.5 33.5624V29.4375C31.5 29.0578 31.8078 28.75 32.1875 28.75ZM32.875 32.8749H34.25V30.125H32.875V32.8749Z" fill="#6D6D6D"/>
<path fill-rule="evenodd" clip-rule="evenodd" d="M44.5622 46.6249H47.3122C47.6919 46.6249 47.9997 46.9327 47.9997 47.3124C47.9997 47.692 47.6919 47.9999 47.3122 47.9999H4.68749C4.30783 47.9999 4 47.692 4 47.3124C4 46.9327 4.30783 46.6249 4.68749 46.6249H7.43747V12.9376C7.43747 12.558 7.7453 12.2501 8.12497 12.2501H9.49996V8.81265C9.49996 8.43298 9.80779 8.12515 10.1875 8.12515H11.5624V4.68768C11.5624 4.30801 11.8703 4.00018 12.2499 4.00018C12.6296 4.00018 12.9374 4.30801 12.9374 4.68768V8.12515H14.3124V6.06267C14.3124 5.683 14.6203 5.37517 14.9999 5.37517C15.3796 5.37517 15.6874 5.683 15.6874 6.06267V8.12515H29.4373C29.817 8.12515 30.1248 8.43298 30.1248 8.81265V12.2501H31.4998C31.8795 12.2501 32.1873 12.558 32.1873 12.9376V17.7501H37.6873C38.0669 17.7501 38.3747 18.0579 38.3747 18.4376V46.6249H43.1872V40.7023C43.1872 40.089 42.8958 39.5398 42.3879 39.1957C41.8797 38.852 41.262 38.7851 40.6927 39.0134C40.3399 39.1534 39.9397 38.9829 39.7988 38.6304C39.6578 38.2776 39.8293 37.8778 40.1818 37.7365C41.0801 37.3781 42.0825 37.4504 42.9182 37.9153L42.9076 37.8409C42.8317 37.3101 42.545 36.8536 42.1002 36.5545C41.6558 36.2554 41.1237 36.1624 40.6041 36.292C40.2365 36.384 39.8625 36.1604 39.7702 35.7918C39.6782 35.4232 39.9021 35.0499 40.2704 34.9579C41.1606 34.7357 42.1066 34.9015 42.8676 35.4135C43.2928 35.6993 43.6287 36.0853 43.8747 36.5234C44.1207 36.0854 44.4566 35.6993 44.8818 35.4135C45.6425 34.9015 46.5901 34.735 47.479 34.9579C47.8473 35.0499 48.0712 35.4232 47.9792 35.7918C47.8872 36.1604 47.5139 36.384 47.1453 36.292C46.6257 36.1624 46.094 36.2554 45.6492 36.5545C45.2044 36.8536 44.9177 37.3101 44.8418 37.8405L44.8312 37.9152C45.667 37.4497 46.6687 37.3778 47.5676 37.7365C47.9201 37.8778 48.0917 38.2776 47.9507 38.6304C47.809 38.9822 47.4095 39.1524 47.0567 39.0134C46.4874 38.7845 45.8694 38.852 45.3615 39.1957C44.8536 39.5398 44.5622 40.089 44.5622 40.7023V46.6249ZM28.7498 9.50014H10.8749V12.2501H28.7498V9.50014ZM30.8123 13.6251H8.81246V46.6249H17.7499V18.4376C17.7499 18.0579 18.0577 17.7501 18.4374 17.7501H30.8123V13.6251ZM28.0623 37.6874C26.022 37.6874 24.3231 39.1766 23.9948 41.1249H32.1299C31.8016 39.1766 30.1027 37.6874 28.0623 37.6874ZM27.3748 42.4999H25.3123V46.6249H27.3748V42.4999ZM28.7498 42.4999V46.6249H30.8123V42.4999H28.7498ZM32.1873 42.4999V46.6249H36.9998V19.1251H19.1249V46.6249H23.9374V42.4999H23.2499C22.8702 42.4999 22.5624 42.1921 22.5624 41.8124C22.5624 38.7798 25.0297 36.3125 28.0623 36.3125C31.095 36.3125 33.5623 38.7798 33.5623 41.8124C33.5623 42.1921 33.2545 42.4999 32.8748 42.4999H32.1873Z" fill="#6D6D6D"/>
</svg>
