<svg width="34" height="33" viewBox="0 0 34 33" fill="none" xmlns="http://www.w3.org/2000/svg">
<path d="M30.8737 24.9543V22.1258C30.8737 21.53 30.455 21.0305 29.8966 20.9055V20.1034C29.8966 18.9365 29.1474 17.9417 28.105 17.5738V11.2459C28.105 9.91935 27.0261 8.84013 25.6999 8.84013H13.3725C13.4504 8.736 13.4952 8.60825 13.4952 8.47355C13.4952 8.24956 13.3732 8.0437 13.1767 7.93624L12.1345 7.36603L11.5644 6.32349C11.457 6.12703 11.2511 6.00494 11.0272 6.00494C10.8034 6.00494 10.5976 6.12703 10.4901 6.32349L9.92001 7.36603L8.8777 7.93624C8.68129 8.0437 8.5593 8.24962 8.5593 8.47355C8.5593 8.60825 8.60415 8.736 8.68207 8.84013H7.59186C6.26567 8.84013 5.18674 9.91935 5.18674 11.2459V12.7469C5.18674 12.9771 5.37331 13.1638 5.60357 13.1638C5.83383 13.1638 6.0204 12.9771 6.0204 12.7469V11.2459C6.0204 10.3792 6.7254 9.67402 7.59186 9.67402H9.97086L10.4901 10.6237C10.5976 10.8201 10.8034 10.9422 11.0272 10.9422C11.2511 10.9422 11.457 10.8201 11.5644 10.6237L12.0836 9.67402H25.6998C26.5663 9.67402 27.2713 10.3792 27.2713 11.2459V17.4227C27.2526 17.4223 27.2339 17.4213 27.2151 17.4213H26.2453C26.2466 17.395 26.2483 17.3687 26.2483 17.3422V14.43C26.2483 13.4955 25.4881 12.7351 24.5539 12.7351H19.0029C18.0685 12.7351 17.3084 13.4955 17.3084 14.43V17.3422C17.3084 17.3687 17.3102 17.395 17.3114 17.4213H15.9804C15.9816 17.395 15.9833 17.3687 15.9833 17.3422V14.43C15.9833 13.4955 15.2232 12.7351 14.2889 12.7351H8.73787C7.80355 12.7351 7.04347 13.4955 7.04347 14.43V17.3422C7.04347 17.3687 7.0452 17.395 7.04642 17.4213H6.07653C6.05769 17.4213 6.03913 17.4223 6.02035 17.4227V14.6926C6.02035 14.4624 5.83377 14.2757 5.60351 14.2757C5.37325 14.2757 5.18668 14.4624 5.18668 14.6926V17.5737C4.14432 17.9417 3.39513 18.9364 3.39513 20.1034V20.9054C2.83669 21.0305 2.41797 21.53 2.41797 22.1258V24.9543C2.41797 25.5501 2.83669 26.0496 3.39513 26.1747V28.1082H2.8348C2.60454 28.1082 2.41797 28.2949 2.41797 28.5251C2.41797 28.7554 2.60454 28.9421 2.8348 28.9421H30.4569C30.6871 28.9421 30.8737 28.7554 30.8737 28.5251C30.8737 28.2949 30.6871 28.1082 30.4569 28.1082H29.8966V26.1747C30.455 26.0496 30.8737 25.5502 30.8737 24.9543ZM11.6778 8.88043C11.5749 8.93664 11.4907 9.02075 11.4342 9.12398L11.0273 9.86821L10.6205 9.1241C10.5642 9.02108 10.4801 8.93686 10.377 8.88049L9.63295 8.47344L10.3771 8.06638C10.4801 8.01001 10.5642 7.92579 10.6203 7.82294L11.0273 7.07872L11.4343 7.82328C11.4907 7.92618 11.5749 8.01029 11.6776 8.06644L12.4216 8.47344L11.6778 8.88043ZM7.87708 14.43C7.87708 13.9553 8.26318 13.569 8.73781 13.569H14.2888C14.7634 13.569 15.1496 13.9553 15.1496 14.43V17.3422C15.1496 17.3687 15.1484 17.3951 15.146 17.4213H7.8807C7.87825 17.3951 7.87708 17.3687 7.87708 17.3422V14.43ZM4.2288 20.1034C4.2288 19.0843 5.05768 18.2552 6.07653 18.2552H21.0921C21.3223 18.2552 21.5089 18.0685 21.5089 17.8382C21.5089 17.608 21.3223 17.4213 21.0921 17.4213H18.1461C18.1437 17.3951 18.1421 17.3687 18.1421 17.3422V14.43C18.1421 13.9553 18.5283 13.569 19.0029 13.569H24.5539C25.0285 13.569 25.4146 13.9553 25.4146 14.43V17.3422C25.4146 17.3687 25.4131 17.3951 25.4107 17.4213H23.0373C22.807 17.4213 22.6204 17.608 22.6204 17.8382C22.6204 18.0685 22.807 18.2552 23.0373 18.2552H27.2152C28.234 18.2552 29.0629 19.0843 29.0629 20.1034V20.875H4.2288V20.1034ZM3.25163 22.1258C3.25163 21.8959 3.4386 21.7089 3.66847 21.7089H29.6232C29.8531 21.7089 30.0401 21.8959 30.0401 22.1258V23.251H3.25163V22.1258ZM5.98294 28.1082H4.2288V26.2052H5.98294V28.1082ZM29.0629 28.1082H27.3088V26.2052H29.0629V28.1082ZM29.6232 25.3713H11.9773C11.7471 25.3713 11.5605 25.558 11.5605 25.7882C11.5605 26.0185 11.7471 26.2052 11.9773 26.2052H26.4751V28.1082H6.81661V26.2052H10.0321C10.2624 26.2052 10.4489 26.0185 10.4489 25.7882C10.4489 25.558 10.2624 25.3713 10.0321 25.3713H3.66847C3.4386 25.3713 3.25163 25.1842 3.25163 24.9543V24.0849H30.0401V24.9543C30.0401 25.1843 29.8531 25.3713 29.6232 25.3713Z" fill="#00A65A"/>
<path d="M13.7851 5.78829H14.2438V6.24715C14.2438 6.47746 14.4304 6.66419 14.6607 6.66419C14.891 6.66419 15.0777 6.47746 15.0777 6.24715V5.78829H15.5364C15.7667 5.78829 15.9533 5.60157 15.9533 5.37126C15.9533 5.14094 15.7667 4.95422 15.5364 4.95422H15.0777V4.49536C15.0777 4.26505 14.891 4.07832 14.6607 4.07832C14.4304 4.07832 14.2438 4.26505 14.2438 4.49536V4.95422H13.7851C13.5548 4.95422 13.3682 5.14094 13.3682 5.37126C13.3682 5.60157 13.5548 5.78829 13.7851 5.78829Z" fill="#00A65A"/>
<path d="M17.6111 7.67786H17.7919V7.85864C17.7919 8.08889 17.9784 8.27556 18.2087 8.27556C18.4389 8.27556 18.6255 8.08889 18.6255 7.85864V7.67786H18.8062C19.0365 7.67786 19.223 7.49118 19.223 7.26093C19.223 7.03067 19.0365 6.844 18.8062 6.844H18.6255V6.66322C18.6255 6.43296 18.4389 6.24629 18.2087 6.24629C17.9784 6.24629 17.7919 6.43296 17.7919 6.66322V6.844H17.6111C17.3809 6.844 17.1943 7.03067 17.1943 7.26093C17.1943 7.49118 17.381 7.67786 17.6111 7.67786Z" fill="#00A65A"/>
<path d="M20.6053 6.46064L21.4022 6.8966L21.838 7.69352C21.9454 7.8901 22.1512 8.01218 22.3751 8.01218H22.3752C22.5991 8.01218 22.8049 7.8901 22.9124 7.69363L23.3482 6.8966L24.1451 6.46064C24.3415 6.35318 24.4635 6.14726 24.4635 5.92328C24.4635 5.69935 24.3415 5.49349 24.1451 5.38603L23.3481 4.95001L22.9124 4.15297C22.8049 3.95651 22.5991 3.83443 22.3752 3.83443C22.3751 3.83443 22.3751 3.83443 22.3751 3.83443C22.1512 3.83448 21.9454 3.95656 21.838 4.15297L21.4023 4.95001L20.6053 5.38597C20.4089 5.49343 20.2869 5.69929 20.2869 5.92328C20.2869 6.1472 20.4089 6.35312 20.6053 6.46064ZM21.8592 5.65048C21.962 5.59422 22.0461 5.51016 22.1025 5.4071L22.3752 4.90837L22.648 5.40743C22.7044 5.51033 22.7886 5.59444 22.8913 5.65054L23.3899 5.92333L22.8915 6.19601C22.7885 6.25227 22.7043 6.33644 22.6479 6.43957L22.3752 6.93824L22.1024 6.43934C22.0461 6.3365 21.962 6.25239 21.8591 6.19607L21.3605 5.92328L21.8592 5.65048Z" fill="#00A65A"/>
</svg>
