<svg width="24" height="24" viewBox="0 0 24 24" fill="none" xmlns="http://www.w3.org/2000/svg">
<path d="M20.3615 10.0178H20.2275C19.7688 6.31276 16.6335 3.47101 12.8298 3.47101H11.1702C7.35175 3.47101 4.20575 6.33376 3.76975 10.0178H3.6385C2.18325 10.0178 1 11.2018 1 12.6575C1 14.112 2.18325 15.296 3.6385 15.296H4.049C4.28075 16.0255 4.5935 16.715 5.0275 17.3225C6.43125 19.3303 8.7275 20.529 11.1705 20.529H12.83C15.2662 20.529 17.5625 19.3383 18.9743 17.3388C19.4135 16.7045 19.711 16.0105 19.9345 15.2963H20.3617C21.8167 15.296 23 14.1123 23 12.6575C23 11.2018 21.8167 10.0178 20.3615 10.0178ZM18.0745 16.7105C16.871 18.4143 14.9102 19.4308 12.8298 19.4308H11.1702C9.0855 19.4308 7.12475 18.4075 5.9235 16.689C5.503 16.1 5.199 15.4338 5.00325 14.7173L4.9725 14.6038C4.9095 14.3723 4.86275 14.126 4.82925 13.8743C4.828 13.8625 4.8245 13.8513 4.8225 13.8395C4.789 13.5768 4.7715 13.3065 4.7715 13.037V10.9623C4.7715 10.9605 4.77225 10.9593 4.77225 10.9575C4.77225 10.8508 4.77025 10.7438 4.79025 10.5913C4.9195 8.16001 6.419 6.12551 8.5115 5.16701C8.85775 6.21876 9.7845 8.19801 11.902 8.43076L12.0218 7.34051C10.491 7.17201 9.80175 5.62051 9.54275 4.80426C10.0658 4.66651 10.6047 4.56926 11.17 4.56926H11.5565C11.8472 5.37801 12.5623 6.76301 14.1147 6.93576L14.236 5.84551C13.4625 5.75901 13.0013 5.11926 12.7413 4.56901H12.8298C16.2277 4.56901 19.0303 7.21426 19.215 10.639C19.2285 10.7365 19.227 10.8333 19.227 10.9308C19.227 10.9413 19.2283 10.9515 19.2283 10.962V13.0368C19.2283 13.2703 19.2168 13.4943 19.1928 13.728C19.1693 13.9415 19.1337 14.146 19.085 14.3508C18.9122 15.197 18.5715 15.9925 18.0745 16.7105Z" fill="black"/>
</svg>
