<svg width="18" height="19" viewBox="0 0 18 19" fill="none" xmlns="http://www.w3.org/2000/svg">
<path d="M12.2501 5.25V5C12.2501 4.14 11.9101 3.31 11.3001 2.7C10.6901 2.09 9.86013 1.75 9.00013 1.75C8.14013 1.75 7.31013 2.09 6.70013 2.7C6.09013 3.31 5.75013 4.14 5.75013 5V5.25H12.2501ZM4.25013 10V6.75H3.84013C3.19013 6.75 2.65013 7.25 2.59013 7.9L1.93013 15.9C1.87013 16.62 2.44013 17.25 3.17013 17.25H14.8301C15.5601 17.25 16.1301 16.62 16.0701 15.9L15.4101 7.9C15.3501 7.25 14.8101 6.75 14.1601 6.75H13.7501V10C13.7501 10.41 13.4101 10.75 13.0001 10.75C12.5901 10.75 12.2501 10.41 12.2501 10V6.75H5.75013V10C5.75013 10.41 5.41013 10.75 5.00013 10.75C4.59013 10.75 4.25013 10.41 4.25013 10ZM4.25013 5C4.25013 3.74 4.75013 2.53 5.64013 1.64C6.53013 0.75 7.74013 0.25 9.00013 0.25C10.2601 0.25 11.4701 0.75 12.3601 1.64C13.2501 2.53 13.7501 3.74 13.7501 5V5.25H14.1601C15.5901 5.25 16.7801 6.35 16.9001 7.77L17.5701 15.77C17.7001 17.37 16.4401 18.75 14.8301 18.75H3.17013C1.56013 18.75 0.300126 17.37 0.430126 15.77L1.10013 7.77C1.22013 6.35 2.41013 5.25 3.84013 5.25H4.25013V5Z" fill="white"/>
</svg>
