<svg width="25" height="24" viewBox="0 0 25 24" fill="none" xmlns="http://www.w3.org/2000/svg">
<path d="M3.65454 7.29161V11.7975H8.73425L5.43492 7.12344C5.38027 7.04604 5.29143 7 5.19668 7H3.94615C3.7851 7 3.65454 7.13056 3.65454 7.29161Z" stroke="#BF9766" stroke-width="0.564412"/>
<path d="M21.4337 16.3127H5.97969C5.19968 16.3127 4.42542 16.0943 3.81126 15.6135C0.908213 13.3405 1.86595 12.0543 2.80806 11.7974H14.0885C14.6456 11.7974 15.1903 11.9623 15.6539 12.2713L17.4828 13.4906L21.4337 14.3372C22.7882 15.2403 21.9981 16.1245 21.4337 16.3127Z" stroke="#BF9766" stroke-width="0.564412"/>
<path d="M13.1473 12.8731L12.9763 11.8193C16.0761 11.8193 16.3098 13.4153 19.0802 13.8527L14.2987 13.8527C13.7266 13.8527 13.2389 13.4378 13.1473 12.8731Z" stroke="#BF9766" stroke-width="0.583226"/>
<path d="M9.00195 11.9575V12.8696C9.00195 13.2512 8.69213 13.561 8.31055 13.561C7.92901 13.561 7.62012 13.2512 7.62012 12.8696V11.9575H9.00195Z" stroke="#BF9766" stroke-width="0.583226"/>
<path d="M11.7722 11.9575V12.8696C11.7722 13.2512 11.4624 13.561 11.0808 13.561C10.6993 13.561 10.3904 13.2512 10.3904 12.8696V11.9575H11.7722Z" stroke="#BF9766" stroke-width="0.583226"/>
<path d="M3.53986 13.3921H1.84662C1.37904 13.3921 1 13.7711 1 14.2387C1 14.7063 1.37904 15.0853 1.84662 15.0853H3.53985C4.00743 15.0853 4.38647 14.7063 4.38647 14.2387C4.38647 13.7711 4.00743 13.3921 3.53986 13.3921Z" fill="#F7F4F0" stroke="#BF9766" stroke-width="0.564412"/>
<path d="M10.7173 15.5791H5.63763C5.17006 15.5791 4.79102 15.9581 4.79102 16.4257C4.79102 16.8933 5.17006 17.2723 5.63763 17.2723H10.7173C11.1849 17.2723 11.564 16.8933 11.564 16.4257C11.564 15.9581 11.1849 15.5791 10.7173 15.5791Z" fill="#F7F4F0" stroke="#BF9766" stroke-width="0.583226"/>
</svg>
