<svg width="24" height="24" viewBox="0 0 24 24" fill="none" xmlns="http://www.w3.org/2000/svg">
<path d="M19.1051 11.1996H18.0145L16.4842 8.96427C15.5806 7.6444 14.0862 6.85645 12.4867 6.85645H9.26466C7.66516 6.85645 6.17077 7.6444 5.26722 8.96427L3.69511 11.2607C2.28596 11.7261 1.31476 13.0579 1.31476 14.5526V15.6263C1.31476 16.3171 1.87678 16.8792 2.5676 16.8792H3.41373C3.41264 16.9069 3.4116 16.9347 3.4116 16.9627C3.4116 18.1141 4.3483 19.0508 5.49966 19.0508C6.65102 19.0508 7.58773 18.1141 7.58773 16.9627C7.58773 16.9347 7.58673 16.9069 7.5856 16.8792H10.1621C10.3927 16.8792 10.5797 16.6922 10.5797 16.4616C10.5797 16.231 10.3927 16.0439 10.1621 16.0439H7.37416C7.03368 15.352 6.32149 14.8746 5.49966 14.8746C4.67784 14.8746 3.96564 15.352 3.62516 16.0439H2.5676C2.33733 16.0439 2.14999 15.8566 2.14999 15.6263V14.5526C2.14999 13.3784 2.93953 12.3367 4.06996 12.0193C4.1643 11.9928 4.24636 11.934 4.3017 11.8531L5.95641 9.43609C6.70415 8.34378 7.94091 7.69167 9.26462 7.69167H12.4867C13.8104 7.69167 15.0471 8.34378 15.7949 9.43609L17.4496 11.8531C17.5274 11.9669 17.6564 12.0349 17.7942 12.0349H19.1051C20.6249 12.0349 21.8613 13.2713 21.8613 14.7911V16.0439H20.4576C20.1171 15.352 19.4049 14.8746 18.5831 14.8746C17.7612 14.8746 17.0491 15.352 16.7085 16.0439H13.9206C13.69 16.0439 13.503 16.231 13.503 16.4616C13.503 16.6922 13.69 16.8792 13.9206 16.8792H16.4971C16.496 16.9069 16.495 16.9347 16.495 16.9627C16.495 18.1141 17.4317 19.0508 18.583 19.0508C19.7344 19.0508 20.6711 18.1141 20.6711 16.9627C20.6711 16.9347 20.6701 16.9069 20.669 16.8792H22.279C22.5096 16.8792 22.6966 16.6922 22.6966 16.4616V14.7911C22.6966 12.8107 21.0855 11.1996 19.1051 11.1996ZM5.49966 15.7099C6.19048 15.7099 6.75251 16.2719 6.75251 16.9627C6.75251 17.6535 6.19048 18.2155 5.49966 18.2155C4.80885 18.2155 4.24682 17.6535 4.24682 16.9627C4.24682 16.2719 4.80889 15.7099 5.49966 15.7099ZM18.5831 18.2155C17.8923 18.2155 17.3302 17.6535 17.3302 16.9627C17.3302 16.2719 17.8923 15.7099 18.5831 15.7099C19.2739 15.7099 19.8359 16.2719 19.8359 16.9627C19.8359 17.6535 19.2739 18.2155 18.5831 18.2155Z" fill="#3F3F3F"/>
<path d="M5.49759 17.3792C5.60743 17.3792 5.71518 17.3345 5.79286 17.2568C5.87054 17.1792 5.91523 17.0714 5.91523 16.9616C5.91523 16.8517 5.87054 16.744 5.79286 16.6663C5.71518 16.5886 5.60743 16.5439 5.49759 16.5439C5.38775 16.5439 5.28 16.5886 5.20232 16.6663C5.12464 16.744 5.07996 16.8517 5.07996 16.9616C5.07996 17.0714 5.12464 17.1792 5.20232 17.2568C5.28 17.3345 5.38775 17.3792 5.49759 17.3792Z" fill="#3F3F3F"/>
<path d="M18.5808 16.5439C18.471 16.5439 18.3633 16.5886 18.2856 16.6663C18.2079 16.744 18.1632 16.8517 18.1632 16.9616C18.1632 17.0714 18.2079 17.1792 18.2856 17.2568C18.3633 17.3345 18.471 17.3792 18.5808 17.3792C18.6907 17.3792 18.7984 17.3345 18.8761 17.2568C18.9538 17.1792 18.9985 17.0714 18.9985 16.9616C18.9985 16.8517 18.9538 16.744 18.8761 16.6663C18.7984 16.5886 18.6907 16.5439 18.5808 16.5439Z" fill="#3F3F3F"/>
<path d="M11.356 12.0353L15.7675 12.0353C15.9224 12.0353 16.0646 11.9496 16.1369 11.8125C16.2091 11.6755 16.1996 11.5096 16.1121 11.3818L15.1034 9.90835C14.5113 9.0436 13.5322 8.52734 12.4843 8.52734H11.356C11.1253 8.52734 10.9384 8.71431 10.9384 8.94496V11.6177C10.9384 11.8483 11.1253 12.0353 11.356 12.0353ZM11.7736 9.36257H12.4843C13.2565 9.36257 13.978 9.74298 14.4142 10.3801L14.9755 11.2001L11.7736 11.2001V9.36257Z" fill="#3F3F3F"/>
<path d="M9.27168 8.52739C8.22376 8.52739 7.24462 9.04364 6.65261 9.90839L5.64395 11.3818C5.55642 11.5096 5.54686 11.6754 5.61914 11.8125C5.69139 11.9495 5.83363 12.0353 5.98857 12.0353H9.69497C9.92562 12.0353 10.1126 11.8483 10.1126 11.6177V8.94496C10.1126 8.71431 9.92562 8.52734 9.69497 8.52734H9.27168V8.52739ZM9.27736 11.2001H6.78053L7.3418 10.3803C7.77808 9.74302 8.49951 9.36261 9.27168 9.36261H9.27736V11.2001Z" fill="#3F3F3F"/>
<path d="M12.2677 13.2994C12.2677 13.0688 12.0807 12.8818 11.8501 12.8818H11.3559C11.1253 12.8818 10.9384 13.0688 10.9384 13.2994C10.9384 13.53 11.1253 13.717 11.3559 13.717H11.8501C12.0807 13.717 12.2677 13.53 12.2677 13.2994Z" fill="#3F3F3F"/>
<path d="M12.0396 16.0439C11.9293 16.0439 11.822 16.0886 11.7439 16.1663C11.6662 16.244 11.6219 16.3517 11.6219 16.4616C11.6219 16.5714 11.6662 16.6792 11.7439 16.7568C11.822 16.8345 11.9297 16.8792 12.0396 16.8792C12.149 16.8792 12.2568 16.8345 12.3349 16.7568C12.4125 16.6792 12.4568 16.5714 12.4568 16.4616C12.4568 16.3517 12.4125 16.244 12.3349 16.1663C12.2568 16.0886 12.1494 16.0439 12.0396 16.0439Z" fill="#3F3F3F"/>
</svg>
