<svg width="25" height="24" viewBox="0 0 25 24" fill="none" xmlns="http://www.w3.org/2000/svg">
<path d="M19.7794 11.1996H18.6887L17.1584 8.96427C16.2548 7.6444 14.7604 6.85645 13.161 6.85645H9.93892C8.33941 6.85645 6.84502 7.6444 5.94148 8.96427L4.36937 11.2607C2.96022 11.7261 1.98901 13.0579 1.98901 14.5526V15.6263C1.98901 16.3171 2.55104 16.8792 3.24185 16.8792H4.08798C4.0869 16.9069 4.08585 16.9347 4.08585 16.9627C4.08585 18.1141 5.02256 19.0508 6.17392 19.0508C7.32528 19.0508 8.26199 18.1141 8.26199 16.9627C8.26199 16.9347 8.26099 16.9069 8.25986 16.8792H10.8363C11.067 16.8792 11.2539 16.6922 11.2539 16.4616C11.2539 16.231 11.067 16.0439 10.8363 16.0439H8.04842C7.70794 15.352 6.99574 14.8746 6.17392 14.8746C5.3521 14.8746 4.6399 15.352 4.29942 16.0439H3.24185C3.01158 16.0439 2.82424 15.8566 2.82424 15.6263V14.5526C2.82424 13.3784 3.61378 12.3367 4.74422 12.0193C4.83856 11.9928 4.92062 11.934 4.97595 11.8531L6.63066 9.43609C7.3784 8.34378 8.61516 7.69167 9.93887 7.69167H13.1609C14.4846 7.69167 15.7214 8.34378 16.4692 9.43609L18.1238 11.8531C18.2017 11.9669 18.3307 12.0349 18.4685 12.0349H19.7794C21.2992 12.0349 22.5356 13.2713 22.5356 14.7911V16.0439H21.1319C20.7914 15.352 20.0792 14.8746 19.2573 14.8746C18.4355 14.8746 17.7233 15.352 17.3828 16.0439H14.5948C14.3642 16.0439 14.1772 16.231 14.1772 16.4616C14.1772 16.6922 14.3642 16.8792 14.5948 16.8792H17.1714C17.1703 16.9069 17.1692 16.9347 17.1692 16.9627C17.1692 18.1141 18.1059 19.0508 19.2573 19.0508C20.4087 19.0508 21.3454 18.1141 21.3454 16.9627C21.3454 16.9347 21.3444 16.9069 21.3432 16.8792H22.9532C23.1838 16.8792 23.3708 16.6922 23.3708 16.4616V14.7911C23.3708 12.8107 21.7597 11.1996 19.7794 11.1996ZM6.17392 15.7099C6.86474 15.7099 7.42676 16.2719 7.42676 16.9627C7.42676 17.6535 6.86474 18.2155 6.17392 18.2155C5.4831 18.2155 4.92108 17.6535 4.92108 16.9627C4.92108 16.2719 5.48314 15.7099 6.17392 15.7099ZM19.2573 18.2155C18.5665 18.2155 18.0045 17.6535 18.0045 16.9627C18.0045 16.2719 18.5665 15.7099 19.2573 15.7099C19.9482 15.7099 20.5102 16.2719 20.5102 16.9627C20.5102 17.6535 19.9482 18.2155 19.2573 18.2155Z" fill="#BF9766"/>
<path d="M6.17179 17.3792C6.28163 17.3792 6.38938 17.3345 6.46706 17.2568C6.54474 17.1792 6.58942 17.0714 6.58942 16.9616C6.58942 16.8517 6.54474 16.744 6.46706 16.6663C6.38938 16.5886 6.28163 16.5439 6.17179 16.5439C6.06195 16.5439 5.9542 16.5886 5.87652 16.6663C5.79884 16.744 5.75415 16.8517 5.75415 16.9616C5.75415 17.0714 5.79884 17.1792 5.87652 17.2568C5.9542 17.3345 6.06195 17.3792 6.17179 17.3792Z" fill="#BF9766"/>
<path d="M19.255 16.5439C19.1452 16.5439 19.0375 16.5886 18.9598 16.6663C18.8821 16.744 18.8374 16.8517 18.8374 16.9616C18.8374 17.0714 18.882 17.1792 18.9598 17.2568C19.0375 17.3345 19.1452 17.3792 19.255 17.3792C19.3649 17.3792 19.4726 17.3345 19.5503 17.2568C19.6279 17.1792 19.6727 17.0714 19.6727 16.9616C19.6727 16.8517 19.628 16.744 19.5503 16.6663C19.4726 16.5886 19.3649 16.5439 19.255 16.5439Z" fill="#BF9766"/>
<path d="M12.0302 12.0353L16.4417 12.0353C16.5966 12.0353 16.7388 11.9496 16.8111 11.8125C16.8833 11.6755 16.8738 11.5096 16.7863 11.3818L15.7776 9.90835C15.1855 9.0436 14.2064 8.52734 13.1585 8.52734H12.0302C11.7995 8.52734 11.6125 8.71431 11.6125 8.94496V11.6177C11.6125 11.8483 11.7995 12.0353 12.0302 12.0353ZM12.4478 9.36257H13.1585C13.9307 9.36257 14.6521 9.74298 15.0883 10.3801L15.6497 11.2001L12.4478 11.2001V9.36257Z" fill="#BF9766"/>
<path d="M9.94587 8.52739C8.89795 8.52739 7.91882 9.04364 7.32681 9.90839L6.31815 11.3818C6.23061 11.5096 6.22105 11.6754 6.29334 11.8125C6.36559 11.9495 6.50783 12.0353 6.66276 12.0353H10.3692C10.5998 12.0353 10.7868 11.8483 10.7868 11.6177V8.94496C10.7868 8.71431 10.5998 8.52734 10.3692 8.52734H9.94587V8.52739ZM9.95155 11.2001H7.45472L8.016 10.3803C8.45228 9.74302 9.17371 9.36261 9.94587 9.36261H9.95155V11.2001Z" fill="#BF9766"/>
<path d="M12.9419 13.2994C12.9419 13.0688 12.7549 12.8818 12.5243 12.8818H12.0301C11.7995 12.8818 11.6125 13.0688 11.6125 13.2994C11.6125 13.53 11.7995 13.717 12.0301 13.717H12.5243C12.7549 13.717 12.9419 13.53 12.9419 13.2994Z" fill="#BF9766"/>
<path d="M12.7138 16.0439C12.6035 16.0439 12.4962 16.0886 12.4181 16.1663C12.3404 16.244 12.2961 16.3517 12.2961 16.4616C12.2961 16.5714 12.3404 16.6792 12.4181 16.7568C12.4962 16.8345 12.6039 16.8792 12.7138 16.8792C12.8232 16.8792 12.9309 16.8345 13.009 16.7568C13.0867 16.6792 13.131 16.5714 13.131 16.4616C13.131 16.3517 13.0867 16.244 13.009 16.1663C12.9309 16.0886 12.8236 16.0439 12.7138 16.0439Z" fill="#BF9766"/>
</svg>
