<svg width="24" height="24" viewBox="0 0 24 24" fill="none" xmlns="http://www.w3.org/2000/svg">
<path d="M11.9959 17.9541C11.7783 17.9541 11.6018 18.1306 11.6018 18.3482V18.3575C11.6018 18.5752 11.7783 18.7517 11.9959 18.7517C12.2136 18.7517 12.3901 18.5752 12.3901 18.3575V18.3482C12.3901 18.1306 12.2136 17.9541 11.9959 17.9541Z" fill="#3F3F3F"/>
<path d="M20.7159 21.3088C20.1387 21.3088 19.6009 20.9983 19.3124 20.4984C19.2419 20.3764 19.1117 20.3013 18.9709 20.3013C18.83 20.3013 18.6997 20.3764 18.6294 20.4984C18.3635 20.959 17.8859 21.2581 17.361 21.3025C18.1117 19.8492 18.791 18.0072 19.3368 16.3165C19.3443 16.298 19.3506 16.2792 19.3551 16.26C19.5363 15.6969 19.7024 15.1516 19.8513 14.6438C19.8545 14.6344 19.8571 14.6249 19.8596 14.6155C20.0343 14.0186 20.185 13.4745 20.3078 13.0161C20.3443 12.8801 20.3054 12.7349 20.2058 12.6352C19.1702 11.5996 17.9153 10.5815 16.5932 9.68178L16.4997 6.65178C16.4846 6.16706 16.0996 5.78739 15.6233 5.78739H13.9748L13.8051 3.95271C13.8046 3.94376 13.8038 3.93489 13.8027 3.9261L13.681 2.61034C13.6439 2.20949 13.3268 1.90723 12.9434 1.90723H11.0371C10.6536 1.90723 10.3366 2.20949 10.2994 2.61034L10.1777 3.92637C10.1766 3.93489 10.1759 3.94353 10.1753 3.9522L10.0056 5.78735H8.35716C7.88071 5.78735 7.4958 6.1671 7.48081 6.65186L7.38727 9.68175C6.06516 10.5815 4.81025 11.5996 3.77467 12.6352C3.6751 12.7348 3.63614 12.8801 3.67261 13.0161C3.79494 13.4726 3.94479 14.0138 4.1185 14.6073C4.12149 14.62 4.12524 14.6325 4.12954 14.645C4.27828 15.1522 4.44418 15.6968 4.62503 16.2589C4.62964 16.2787 4.63603 16.298 4.6438 16.3171C5.18969 18.0078 5.86898 19.8494 6.61949 21.3025C6.09458 21.2581 5.61707 20.959 5.35121 20.4984C5.28082 20.3764 5.15065 20.3013 5.00971 20.3012C4.86885 20.3012 4.73864 20.3764 4.66821 20.4984C4.37963 20.9983 3.84175 21.3088 3.26455 21.3088C3.04676 21.3088 2.87021 21.4853 2.87021 21.7031C2.87021 21.9209 3.04679 22.0975 3.26455 22.0975C3.92992 22.0975 4.56012 21.8199 5.00967 21.3487C5.45914 21.8199 6.08938 22.0975 6.75483 22.0975C6.95231 22.0975 7.14657 22.0728 7.33396 22.0261C7.34315 22.0242 7.35226 22.0219 7.36133 22.0192C7.79494 21.9058 8.19027 21.6731 8.49999 21.3485C8.94946 21.8198 9.57965 22.0975 10.2451 22.0975C10.9105 22.0975 11.5407 21.82 11.9901 21.3488C12.4397 21.82 13.0699 22.0976 13.7353 22.0976C14.4008 22.0976 15.0309 21.8198 15.4805 21.3486C15.7881 21.6711 16.1803 21.9029 16.6105 22.0171C16.6244 22.0215 16.6384 22.0249 16.6524 22.0277C16.838 22.0734 17.0302 22.0976 17.2255 22.0976C17.891 22.0976 18.5212 21.82 18.9708 21.3488C19.4202 21.8199 20.0504 22.0975 20.7159 22.0975C20.9337 22.0975 21.1102 21.921 21.1102 21.7032C21.1102 21.4853 20.9337 21.3088 20.7159 21.3088ZM16.0203 10.2451C17.2792 11.0914 18.4809 12.0513 19.4864 13.0331C19.4204 13.2761 19.3475 13.5399 19.2682 13.8196C17.5356 12.3863 14.4781 10.2242 12.3846 9.26572L12.3845 8.21582C13.5467 8.72578 14.7741 9.41225 15.9537 10.2002C15.9743 10.2173 15.9965 10.2324 16.0203 10.2451ZM11.0836 2.69591H12.8969L12.979 3.58298H11.0015L11.0836 2.69591ZM10.9286 4.37166H13.0519L13.1828 5.78735H10.7977L10.9286 4.37166ZM8.26914 6.67619C8.27064 6.62698 8.304 6.57603 8.35716 6.57603H10.3651H13.6153H13.6161H15.6233C15.6765 6.57603 15.7098 6.62702 15.7113 6.67619L15.7878 9.15372C14.5658 8.38227 13.3135 7.72558 12.1449 7.26017C12.1437 7.25966 12.1425 7.25923 12.1413 7.25871C12.1395 7.25797 12.1376 7.25718 12.1358 7.25647C12.1325 7.25517 12.129 7.25422 12.1257 7.253C12.1181 7.2502 12.1104 7.2474 12.1026 7.24507C12.0978 7.24365 12.0931 7.24263 12.0883 7.2414C12.0809 7.23951 12.0736 7.2375 12.066 7.23604C12.0597 7.23482 12.0534 7.23407 12.047 7.23316C12.0409 7.23229 12.0348 7.23115 12.0286 7.23056C12.003 7.22803 11.9773 7.22803 11.9517 7.23056C11.9455 7.23115 11.9394 7.23229 11.9333 7.23316C11.927 7.23407 11.9206 7.23482 11.9143 7.23604C11.9067 7.23754 11.8994 7.23951 11.892 7.2414C11.8872 7.24263 11.8824 7.24365 11.8777 7.24507C11.8699 7.2474 11.8622 7.2502 11.8546 7.253C11.8512 7.25422 11.8478 7.25517 11.8445 7.25647C11.8427 7.25722 11.8408 7.25801 11.839 7.25871C11.8378 7.25919 11.8366 7.25966 11.8354 7.26017C10.6669 7.72554 9.41458 8.38223 8.19264 9.15368L8.26914 6.67619ZM4.49407 13.0331C5.49917 12.0517 6.70045 11.092 7.95887 10.2459C7.9832 10.2331 8.00588 10.2176 8.0269 10.2001C9.20649 9.41217 10.4338 8.72574 11.5958 8.21582L11.5959 9.26568C9.50232 10.2242 6.44492 12.3862 4.71226 13.8195C4.63299 13.5399 4.56008 13.2762 4.49407 13.0331ZM16.5459 21.1578C16.2471 21.0194 15.9915 20.7919 15.822 20.4985C15.8213 20.4973 15.8205 20.4962 15.8197 20.4949C15.8154 20.4876 15.8107 20.4806 15.8059 20.4736C15.8033 20.4697 15.8007 20.4657 15.7979 20.4619C15.7933 20.4557 15.7884 20.4497 15.7834 20.4437C15.7799 20.4395 15.7765 20.4352 15.7729 20.4312C15.7686 20.4264 15.7639 20.4219 15.7593 20.4173C15.7545 20.4125 15.7498 20.4076 15.7448 20.4031C15.741 20.3997 15.7369 20.3965 15.7329 20.3932C15.7267 20.388 15.7205 20.3829 15.7141 20.3781C15.7104 20.3755 15.7066 20.373 15.7029 20.3705C15.6957 20.3656 15.6886 20.3608 15.6811 20.3564C15.68 20.3557 15.6789 20.3548 15.6776 20.3542C15.6746 20.3524 15.6713 20.351 15.6681 20.3493C15.6612 20.3455 15.6542 20.3419 15.6471 20.3385C15.6415 20.3359 15.6359 20.3337 15.6302 20.3313C15.6243 20.3288 15.6183 20.3264 15.6123 20.3243C15.6055 20.3219 15.5988 20.3198 15.592 20.3178C15.5867 20.3163 15.5815 20.3147 15.5763 20.3134C15.569 20.3116 15.5616 20.3101 15.5542 20.3087C15.5491 20.3077 15.544 20.3067 15.5388 20.306C15.5316 20.3049 15.5244 20.3041 15.5171 20.3034C15.5115 20.3029 15.5059 20.3025 15.5001 20.3021C15.4935 20.3018 15.4869 20.3017 15.4802 20.3017C15.4738 20.3017 15.4675 20.3018 15.461 20.3021C15.4552 20.3024 15.4493 20.3029 15.4434 20.3034C15.4364 20.3041 15.4294 20.3049 15.4224 20.306C15.417 20.3068 15.4117 20.3077 15.4063 20.3088C15.3991 20.3102 15.3921 20.3116 15.3849 20.3134C15.3794 20.3148 15.374 20.3164 15.3686 20.318C15.362 20.3199 15.3554 20.3219 15.3489 20.3243C15.3427 20.3265 15.3365 20.329 15.3304 20.3314C15.3249 20.3337 15.3194 20.336 15.314 20.3385C15.3068 20.3419 15.2997 20.3456 15.2927 20.3494C15.2896 20.3511 15.2864 20.3524 15.2833 20.3542C15.2821 20.3549 15.281 20.3557 15.2798 20.3564C15.2723 20.3608 15.2652 20.3657 15.258 20.3706C15.2543 20.3731 15.2505 20.3755 15.2469 20.3781C15.2404 20.3829 15.2342 20.3881 15.228 20.3933C15.224 20.3966 15.2199 20.3997 15.2161 20.4032C15.2111 20.4077 15.2064 20.4126 15.2016 20.4174C15.197 20.422 15.1924 20.4265 15.188 20.4313C15.1844 20.4353 15.181 20.4396 15.1775 20.4438C15.1726 20.4498 15.1676 20.4558 15.1629 20.462C15.1602 20.4658 15.1576 20.4698 15.155 20.4737C15.1502 20.4807 15.1455 20.4877 15.1412 20.495C15.1404 20.4962 15.1396 20.4973 15.1389 20.4986C14.8503 20.9984 14.3124 21.3089 13.7352 21.3089C13.158 21.3089 12.6202 20.9984 12.3316 20.4985C12.2612 20.3765 12.131 20.3013 11.9901 20.3013C11.8492 20.3013 11.719 20.3765 11.6486 20.4985C11.3601 20.9983 10.8222 21.3088 10.245 21.3088C9.66783 21.3088 9.13003 20.9983 8.84141 20.4984C8.8407 20.4973 8.83987 20.4962 8.83916 20.4951C8.83478 20.4876 8.82997 20.4804 8.82508 20.4732C8.82248 20.4694 8.82007 20.4656 8.81747 20.462C8.81278 20.4556 8.80761 20.4495 8.80253 20.4433C8.79913 20.4393 8.7959 20.4351 8.79235 20.4312C8.78797 20.4263 8.7832 20.4217 8.77851 20.4171C8.77378 20.4124 8.76916 20.4076 8.76427 20.4031C8.76037 20.3996 8.75623 20.3964 8.75221 20.393C8.74606 20.3879 8.7399 20.3828 8.73348 20.3781C8.72985 20.3754 8.72602 20.373 8.72224 20.3704C8.71506 20.3655 8.70792 20.3607 8.70051 20.3563C8.69929 20.3557 8.69822 20.3548 8.69704 20.3541C8.69396 20.3523 8.69073 20.3509 8.68758 20.3492C8.68056 20.3454 8.67358 20.3417 8.6664 20.3384C8.66088 20.3358 8.6554 20.3336 8.64984 20.3313C8.64376 20.3288 8.63765 20.3263 8.6315 20.3241C8.62491 20.3218 8.61833 20.3198 8.6117 20.3178C8.60626 20.3162 8.60086 20.3146 8.59538 20.3132C8.58828 20.3115 8.58126 20.31 8.57416 20.3086C8.56872 20.3076 8.56328 20.3066 8.5578 20.3058C8.5509 20.3047 8.544 20.304 8.53713 20.3033C8.53114 20.3027 8.52507 20.3023 8.51903 20.302C8.51284 20.3017 8.50665 20.3016 8.50042 20.3016C8.49356 20.3016 8.48666 20.3017 8.4798 20.302C8.47439 20.3023 8.46911 20.3027 8.46375 20.3032C8.45621 20.3039 8.44864 20.3047 8.44115 20.3059C8.4363 20.3066 8.43149 20.3075 8.42668 20.3084C8.41903 20.3099 8.41134 20.3115 8.40373 20.3134C8.3988 20.3146 8.39395 20.316 8.3891 20.3175C8.38192 20.3196 8.37486 20.3218 8.36776 20.3243C8.36205 20.3264 8.35649 20.3286 8.35089 20.3309C8.34489 20.3333 8.33894 20.3358 8.33306 20.3385C8.3262 20.3417 8.31954 20.3453 8.31283 20.3489C8.30952 20.3507 8.30605 20.3521 8.30274 20.354C8.30144 20.3548 8.30029 20.3557 8.29903 20.3564C8.29189 20.3606 8.28503 20.3653 8.27809 20.3699C8.27407 20.3727 8.27001 20.3753 8.26606 20.3781C8.25991 20.3827 8.25404 20.3876 8.24812 20.3925C8.24386 20.396 8.23945 20.3995 8.23538 20.4032C8.23065 20.4074 8.2262 20.4121 8.22162 20.4166C8.21681 20.4214 8.21188 20.4262 8.20739 20.4312C8.20392 20.435 8.20072 20.4391 8.19741 20.4431C8.19224 20.4493 8.18708 20.4555 8.18234 20.4619C8.17966 20.4656 8.17722 20.4695 8.17466 20.4732C8.16981 20.4803 8.16503 20.4875 8.16066 20.4949C8.15995 20.4961 8.15912 20.4971 8.15841 20.4984C7.98896 20.7918 7.73335 21.0192 7.43463 21.1577C6.69331 19.7787 6.01524 17.9758 5.4649 16.2934L5.80174 15.9981C6.03945 15.7896 6.29361 15.576 6.55714 15.3633C6.72659 15.2265 6.75309 14.9782 6.6163 14.8087C6.4795 14.6393 6.23122 14.6128 6.06173 14.7496C5.78987 14.969 5.52744 15.1896 5.28184 15.4051L5.20345 15.4738C5.11551 15.191 5.03167 14.9146 4.95237 14.6474C6.52619 13.3057 9.52378 11.1664 11.5958 10.1396L11.5958 17.2158C11.5958 17.4336 11.7724 17.6102 11.9901 17.6102C12.2079 17.6102 12.3845 17.4336 12.3845 17.2158L12.3846 10.1397C14.4566 11.1665 17.4542 13.3059 19.028 14.6476C18.9487 14.9147 18.8649 15.191 18.777 15.4738L18.6987 15.4051C18.1901 14.9592 17.6329 14.5101 16.9955 14.0321C16.8212 13.9014 16.5741 13.9368 16.4434 14.111C16.3128 14.2852 16.3481 14.5324 16.5223 14.6631C17.1349 15.1224 17.6922 15.5716 18.1788 15.9982L18.5156 16.2934C17.9653 17.9756 17.2872 19.7787 16.5459 21.1578Z" fill="#3F3F3F"/>
<path d="M7.48581 14.0527C7.33221 13.9161 7.10153 13.9216 6.95452 14.0596C6.92035 14.0916 6.89193 14.1294 6.87092 14.1715C6.77357 14.3662 6.85248 14.6029 7.04722 14.7002C7.10381 14.7285 7.16392 14.7419 7.22316 14.7419C7.33458 14.7419 7.44281 14.6945 7.5182 14.6095C7.51832 14.6094 7.51848 14.6093 7.5186 14.6091C7.66316 14.4464 7.64854 14.1973 7.48581 14.0527Z" fill="#3F3F3F"/>
</svg>
