<svg width="25" height="24" viewBox="0 0 25 24" fill="none" xmlns="http://www.w3.org/2000/svg">
<path d="M12.2877 17.9541C12.07 17.9541 11.8936 18.1306 11.8936 18.3482V18.3575C11.8936 18.5752 12.07 18.7517 12.2877 18.7517C12.5054 18.7517 12.6818 18.5752 12.6818 18.3575V18.3482C12.6818 18.1306 12.5054 17.9541 12.2877 17.9541Z" fill="#BF9766"/>
<path d="M21.0076 21.3088C20.4304 21.3088 19.8926 20.9983 19.604 20.4984C19.5336 20.3764 19.4034 20.3013 19.2625 20.3013C19.1216 20.3013 18.9914 20.3764 18.921 20.4984C18.6551 20.959 18.1776 21.2581 17.6527 21.3025C18.4033 19.8492 19.0827 18.0072 19.6285 16.3165C19.636 16.298 19.6422 16.2792 19.6468 16.26C19.8279 15.6969 19.9941 15.1516 20.1429 14.6438C20.1461 14.6344 20.1487 14.6249 20.1512 14.6155C20.326 14.0186 20.4767 13.4745 20.5995 13.0161C20.6359 12.8801 20.597 12.7349 20.4974 12.6352C19.4618 11.5996 18.2069 10.5815 16.8848 9.68178L16.7913 6.65178C16.7762 6.16706 16.3913 5.78739 15.915 5.78739H14.2665L14.0968 3.95271C14.0962 3.94376 14.0955 3.93489 14.0943 3.9261L13.9727 2.61034C13.9356 2.20949 13.6185 1.90723 13.235 1.90723H11.3287C10.9453 1.90723 10.6282 2.20949 10.5911 2.61034L10.4694 3.92637C10.4683 3.93489 10.4675 3.94353 10.467 3.9522L10.2972 5.78735H8.64881C8.17237 5.78735 7.78745 6.1671 7.77247 6.65186L7.67893 9.68175C6.35682 10.5815 5.10191 11.5996 4.06633 12.6352C3.96676 12.7348 3.92779 12.8801 3.96427 13.0161C4.0866 13.4726 4.23645 14.0138 4.41015 14.6073C4.41315 14.62 4.4169 14.6325 4.4212 14.645C4.56994 15.1522 4.73584 15.6968 4.91669 16.2589C4.9213 16.2787 4.92769 16.298 4.93546 16.3171C5.48134 18.0078 6.16064 19.8494 6.91115 21.3025C6.38624 21.2581 5.90873 20.959 5.64287 20.4984C5.57248 20.3764 5.4423 20.3013 5.30137 20.3012C5.16051 20.3012 5.03029 20.3764 4.95987 20.4984C4.67129 20.9983 4.1334 21.3088 3.55621 21.3088C3.33841 21.3088 3.16187 21.4853 3.16187 21.7031C3.16187 21.9209 3.33845 22.0975 3.55621 22.0975C4.22158 22.0975 4.85178 21.8199 5.30133 21.3487C5.7508 21.8199 6.38103 22.0975 7.04648 22.0975C7.24397 22.0975 7.43822 22.0728 7.62562 22.0261C7.6348 22.0242 7.64391 22.0219 7.65298 22.0192C8.0866 21.9058 8.48193 21.6731 8.79164 21.3485C9.24111 21.8198 9.87131 22.0975 10.5368 22.0975C11.2022 22.0975 11.8323 21.82 12.2818 21.3488C12.7314 21.82 13.3616 22.0976 14.027 22.0976C14.6924 22.0976 15.3225 21.8198 15.7721 21.3486C16.0797 21.6711 16.4719 21.9029 16.9021 22.0171C16.916 22.0215 16.93 22.0249 16.9441 22.0277C17.1297 22.0734 17.3219 22.0976 17.5172 22.0976C18.1827 22.0976 18.8129 21.82 19.2624 21.3488C19.7119 21.8199 20.3421 22.0975 21.0075 22.0975C21.2253 22.0975 21.4019 21.921 21.4019 21.7032C21.4019 21.4853 21.2254 21.3088 21.0076 21.3088ZM16.312 10.2451C17.5709 11.0914 18.7726 12.0513 19.778 13.0331C19.7121 13.2761 19.6392 13.5399 19.5599 13.8196C17.8273 12.3863 14.7698 10.2242 12.6762 9.26572L12.6762 8.21582C13.8383 8.72578 15.0657 9.41225 16.2454 10.2002C16.266 10.2173 16.2882 10.2324 16.312 10.2451ZM11.3753 2.69591H13.1886L13.2706 3.58298H11.2931L11.3753 2.69591ZM11.2202 4.37166H13.3436L13.4745 5.78735H11.0893L11.2202 4.37166ZM8.5608 6.67619C8.56229 6.62698 8.59566 6.57603 8.64881 6.57603H10.6568H13.9069H13.9078H15.915C15.9681 6.57603 16.0015 6.62702 16.003 6.67619L16.0794 9.15372C14.8575 8.38227 13.6051 7.72558 12.4366 7.26017C12.4354 7.25966 12.4342 7.25923 12.433 7.25871C12.4311 7.25797 12.4293 7.25718 12.4275 7.25647C12.4241 7.25517 12.4207 7.25422 12.4174 7.253C12.4097 7.2502 12.4021 7.2474 12.3942 7.24507C12.3895 7.24365 12.3847 7.24263 12.38 7.2414C12.3725 7.23951 12.3652 7.2375 12.3576 7.23604C12.3513 7.23482 12.345 7.23407 12.3387 7.23316C12.3326 7.23229 12.3264 7.23115 12.3203 7.23056C12.2947 7.22803 12.2689 7.22803 12.2434 7.23056C12.2371 7.23115 12.2311 7.23229 12.2249 7.23316C12.2186 7.23407 12.2122 7.23482 12.2059 7.23604C12.1984 7.23754 12.191 7.23951 12.1837 7.2414C12.1789 7.24263 12.1741 7.24365 12.1694 7.24507C12.1615 7.2474 12.1539 7.2502 12.1463 7.253C12.1429 7.25422 12.1395 7.25517 12.1362 7.25647C12.1343 7.25722 12.1325 7.25801 12.1306 7.25871C12.1295 7.25919 12.1282 7.25966 12.1271 7.26017C10.9585 7.72554 9.70624 8.38223 8.48429 9.15368L8.5608 6.67619ZM4.78572 13.0331C5.79082 12.0517 6.99211 11.092 8.25053 10.2459C8.27486 10.2331 8.29753 10.2176 8.31855 10.2001C9.49815 9.41217 10.7254 8.72574 11.8875 8.21582L11.8875 9.26568C9.79398 10.2242 6.73657 12.3862 5.00391 13.8195C4.92465 13.5399 4.85174 13.2762 4.78572 13.0331ZM16.8376 21.1578C16.5387 21.0194 16.2831 20.7919 16.1137 20.4985C16.113 20.4973 16.1121 20.4962 16.1113 20.4949C16.1071 20.4876 16.1023 20.4806 16.0975 20.4736C16.0949 20.4697 16.0924 20.4657 16.0896 20.4619C16.085 20.4557 16.08 20.4497 16.0751 20.4437C16.0715 20.4395 16.0682 20.4352 16.0645 20.4312C16.0602 20.4264 16.0555 20.4219 16.051 20.4173C16.0462 20.4125 16.0415 20.4076 16.0364 20.4031C16.0327 20.3997 16.0286 20.3965 16.0246 20.3932C16.0184 20.388 16.0122 20.3829 16.0057 20.3781C16.0021 20.3755 15.9983 20.373 15.9946 20.3705C15.9874 20.3656 15.9803 20.3608 15.9728 20.3564C15.9716 20.3557 15.9705 20.3548 15.9693 20.3542C15.9662 20.3524 15.9629 20.351 15.9598 20.3493C15.9528 20.3455 15.9459 20.3419 15.9387 20.3385C15.9331 20.3359 15.9275 20.3337 15.9219 20.3313C15.9159 20.3288 15.9099 20.3264 15.9039 20.3243C15.8972 20.3219 15.8904 20.3198 15.8836 20.3178C15.8784 20.3163 15.8732 20.3147 15.8679 20.3134C15.8606 20.3116 15.8533 20.3101 15.8459 20.3087C15.8408 20.3077 15.8356 20.3067 15.8305 20.306C15.8232 20.3049 15.816 20.3041 15.8088 20.3034C15.8031 20.3029 15.7975 20.3025 15.7918 20.3021C15.7852 20.3018 15.7785 20.3017 15.7719 20.3017C15.7655 20.3017 15.7591 20.3018 15.7527 20.3021C15.7468 20.3024 15.7409 20.3029 15.7351 20.3034C15.728 20.3041 15.7211 20.3049 15.714 20.306C15.7086 20.3068 15.7033 20.3077 15.6979 20.3088C15.6908 20.3102 15.6837 20.3116 15.6766 20.3134C15.6711 20.3148 15.6657 20.3164 15.6603 20.318C15.6537 20.3199 15.6471 20.3219 15.6405 20.3243C15.6343 20.3265 15.6282 20.329 15.6221 20.3314C15.6166 20.3337 15.6111 20.336 15.6056 20.3385C15.5984 20.3419 15.5914 20.3456 15.5843 20.3494C15.5813 20.3511 15.578 20.3524 15.5749 20.3542C15.5737 20.3549 15.5727 20.3557 15.5715 20.3564C15.564 20.3608 15.5568 20.3657 15.5497 20.3706C15.5459 20.3731 15.5421 20.3755 15.5385 20.3781C15.532 20.3829 15.5259 20.3881 15.5196 20.3933C15.5156 20.3966 15.5115 20.3997 15.5078 20.4032C15.5027 20.4077 15.498 20.4126 15.4932 20.4174C15.4887 20.422 15.484 20.4265 15.4797 20.4313C15.476 20.4353 15.4727 20.4396 15.4692 20.4438C15.4642 20.4498 15.4592 20.4558 15.4546 20.462C15.4518 20.4658 15.4493 20.4698 15.4467 20.4737C15.4419 20.4807 15.4372 20.4877 15.4329 20.495C15.4321 20.4962 15.4313 20.4973 15.4305 20.4986C15.142 20.9984 14.6041 21.3089 14.0269 21.3089C13.4497 21.3089 12.9119 20.9984 12.6232 20.4985C12.5528 20.3765 12.4226 20.3013 12.2817 20.3013C12.1409 20.3013 12.0107 20.3765 11.9402 20.4985C11.6517 20.9983 11.1139 21.3088 10.5367 21.3088C9.95949 21.3088 9.42168 20.9983 9.13306 20.4984C9.13235 20.4973 9.13153 20.4962 9.13082 20.4951C9.12644 20.4876 9.12163 20.4804 9.11674 20.4732C9.11414 20.4694 9.11173 20.4656 9.10913 20.462C9.10443 20.4556 9.09927 20.4495 9.09418 20.4433C9.09079 20.4393 9.08756 20.4351 9.08401 20.4312C9.07963 20.4263 9.07486 20.4217 9.07017 20.4171C9.06543 20.4124 9.06082 20.4076 9.05593 20.4031C9.05203 20.3996 9.04789 20.3964 9.04386 20.393C9.03771 20.3879 9.03156 20.3828 9.02513 20.3781C9.0215 20.3754 9.01768 20.373 9.01389 20.3704C9.00672 20.3655 8.99958 20.3607 8.99217 20.3563C8.99094 20.3557 8.98988 20.3548 8.9887 20.3541C8.98562 20.3523 8.98239 20.3509 8.97923 20.3492C8.97221 20.3454 8.96523 20.3417 8.95806 20.3384C8.95254 20.3358 8.94705 20.3336 8.94149 20.3313C8.93542 20.3288 8.92931 20.3263 8.92316 20.3241C8.91657 20.3218 8.90999 20.3198 8.90336 20.3178C8.89792 20.3162 8.89252 20.3146 8.88703 20.3132C8.87994 20.3115 8.87292 20.31 8.86582 20.3086C8.86038 20.3076 8.85494 20.3066 8.84945 20.3058C8.84255 20.3047 8.83565 20.304 8.82879 20.3033C8.8228 20.3027 8.81672 20.3023 8.81069 20.302C8.8045 20.3017 8.79831 20.3016 8.79208 20.3016C8.78522 20.3016 8.77831 20.3017 8.77145 20.302C8.76605 20.3023 8.76077 20.3027 8.7554 20.3032C8.74787 20.3039 8.7403 20.3047 8.73281 20.3059C8.72796 20.3066 8.72315 20.3075 8.71834 20.3084C8.71068 20.3099 8.703 20.3115 8.69538 20.3134C8.69045 20.3146 8.68561 20.316 8.68075 20.3175C8.67358 20.3196 8.66652 20.3218 8.65942 20.3243C8.6537 20.3264 8.64814 20.3286 8.64254 20.3309C8.63655 20.3333 8.63059 20.3358 8.62472 20.3385C8.61786 20.3417 8.61119 20.3453 8.60449 20.3489C8.60118 20.3507 8.59771 20.3521 8.59439 20.354C8.59309 20.3548 8.59195 20.3557 8.59069 20.3564C8.58355 20.3606 8.57669 20.3653 8.56975 20.3699C8.56573 20.3727 8.56166 20.3753 8.55772 20.3781C8.55157 20.3827 8.54569 20.3876 8.53978 20.3925C8.53552 20.396 8.5311 20.3995 8.52704 20.4032C8.52231 20.4074 8.51785 20.4121 8.51328 20.4166C8.50847 20.4214 8.50354 20.4262 8.49904 20.4312C8.49557 20.435 8.49238 20.4391 8.48907 20.4431C8.4839 20.4493 8.47873 20.4555 8.474 20.4619C8.47132 20.4656 8.46887 20.4695 8.46631 20.4732C8.46146 20.4803 8.45669 20.4875 8.45231 20.4949C8.4516 20.4961 8.45077 20.4971 8.45006 20.4984C8.28062 20.7918 8.025 21.0192 7.72629 21.1577C6.98497 19.7787 6.3069 17.9758 5.75655 16.2934L6.0934 15.9981C6.33111 15.7896 6.58526 15.576 6.8488 15.3633C7.01825 15.2265 7.04475 14.9782 6.90795 14.8087C6.77116 14.6393 6.52288 14.6128 6.35339 14.7496C6.08153 14.969 5.8191 15.1896 5.5735 15.4051L5.49511 15.4738C5.40717 15.191 5.32333 14.9146 5.24403 14.6474C6.81785 13.3057 9.81543 11.1664 11.8874 10.1396L11.8875 17.2158C11.8875 17.4336 12.064 17.6102 12.2818 17.6102C12.4996 17.6102 12.6761 17.4336 12.6761 17.2158L12.6762 10.1397C14.7483 11.1665 17.7459 13.3059 19.3197 14.6476C19.2404 14.9147 19.1566 15.191 19.0686 15.4738L18.9903 15.4051C18.4818 14.9592 17.9246 14.5101 17.2872 14.0321C17.1129 13.9014 16.8657 13.9368 16.7351 14.111C16.6044 14.2852 16.6397 14.5324 16.814 14.6631C17.4266 15.1224 17.9839 15.5716 18.4704 15.9982L18.8072 16.2934C18.2569 17.9756 17.5789 19.7787 16.8376 21.1578Z" fill="#BF9766"/>
<path d="M7.77743 14.0527C7.62384 13.9161 7.39315 13.9216 7.24614 14.0596C7.21197 14.0916 7.18356 14.1294 7.16255 14.1715C7.0652 14.3662 7.1441 14.6029 7.33884 14.7002C7.39544 14.7285 7.45555 14.7419 7.51478 14.7419C7.6262 14.7419 7.73443 14.6945 7.80983 14.6095C7.80995 14.6094 7.81011 14.6093 7.81022 14.6091C7.95479 14.4464 7.94017 14.1973 7.77743 14.0527Z" fill="#BF9766"/>
</svg>
