<svg width="24" height="24" viewBox="0 0 24 24" fill="none" xmlns="http://www.w3.org/2000/svg">
<path d="M18.2021 7.29673C18.1204 6.34196 17.5016 5.72318 16.5469 5.64152C16.4143 5.63018 16.2976 5.72846 16.2863 5.86101C16.275 5.99354 16.3732 6.11025 16.5058 6.12159C17.2283 6.18343 17.6602 6.61539 17.722 7.3378C17.727 7.39666 17.7528 7.44878 17.7916 7.48752C17.8401 7.53602 17.9089 7.56358 17.9826 7.5573C18.1151 7.54593 18.2134 7.42928 18.2021 7.29673Z" fill="#BF9766" stroke="#BF9766" stroke-width="0.156279"/>
<path d="M19.447 4.39914C19.2199 4.17208 18.9062 4.05876 18.5865 4.08797L18.2127 4.1222C16.772 4.25431 15.4568 4.9293 14.5096 6.02296L13.9344 6.68701L12.6077 6.13715L12.6787 6.06619C12.89 5.85487 12.89 5.51106 12.6787 5.29977L12.2766 4.8976C12.0653 4.68637 11.7215 4.68631 11.5102 4.8976L10.9555 5.45231L10.3177 5.18797L10.4775 5.02811C10.6888 4.81679 10.6888 4.47301 10.4775 4.26172L10.0754 3.85961C9.86406 3.64833 9.52025 3.64839 9.30899 3.85961L8.66541 4.5032L7.58095 4.05374C7.06688 3.84067 6.48053 3.95729 6.08704 4.35072L5.36521 5.07255C5.21199 5.22577 5.13306 5.43764 5.14867 5.65379C5.16428 5.86993 5.27287 6.06823 5.4465 6.19788L10.8588 10.2378L9.05223 12.3235C8.96515 12.424 8.97606 12.5761 9.07659 12.6632C9.12215 12.7026 9.17828 12.722 9.23418 12.722C9.30161 12.722 9.36868 12.6938 9.41632 12.6388L11.3924 10.3575L11.3924 10.3574L12.5595 9.00995L14.8737 6.33827C15.739 5.33919 16.9405 4.72255 18.2567 4.60188L18.6305 4.56764C18.8076 4.55142 18.9808 4.61415 19.1064 4.73975C19.232 4.86531 19.2947 5.03877 19.2785 5.21566L19.2443 5.5894C19.1649 6.45535 18.8625 7.29189 18.3699 8.00847C18.2945 8.1181 18.3223 8.26805 18.4319 8.34341C18.5415 8.4188 18.6914 8.39099 18.7668 8.28139C19.3061 7.49696 19.637 6.5813 19.7239 5.63338L19.7582 5.25964C19.7875 4.93986 19.674 4.6262 19.447 4.39914ZM11.8508 5.23827C11.8742 5.21476 11.9124 5.21472 11.9359 5.23827L12.338 5.64035C12.3615 5.66379 12.3615 5.70204 12.3381 5.72549L12.1261 5.93746L11.9305 5.8564L11.4371 5.65191L11.8508 5.23827ZM9.64963 4.20025C9.67305 4.17674 9.71129 4.17671 9.73478 4.20025L10.1369 4.60233C10.1603 4.62578 10.1603 4.66399 10.1369 4.68744L9.83601 4.98831L9.14706 4.70279L9.64963 4.20025ZM11.175 9.87269L5.73464 5.81183C5.6722 5.76526 5.63476 5.6968 5.62912 5.6191C5.62352 5.54141 5.65073 5.46828 5.70585 5.41322L6.42764 4.69143C6.59816 4.52094 6.82444 4.43062 7.05532 4.43062C7.17 4.43062 7.28588 4.45293 7.39658 4.49879L13.6021 7.07063L11.175 9.87269Z" fill="#BF9766" stroke="#BF9766" stroke-width="0.156279"/>
<path d="M20.1287 13.9108L19.7266 13.5086C19.5152 13.2974 19.1714 13.2974 18.9602 13.5086L18.7611 13.7077L18.4558 12.9711L18.951 12.476C19.1623 12.2647 19.1623 11.9209 18.951 11.7096L18.5489 11.3074C18.3375 11.0962 17.9937 11.0962 17.7825 11.3075L17.7711 11.3189L17.1811 9.89523L17.8257 9.33683C17.8733 9.2956 17.9208 9.25308 17.9668 9.21042C18.0644 9.12 18.0701 8.96759 17.9797 8.87008C17.8893 8.77253 17.7369 8.76676 17.6393 8.85719C17.5972 8.89618 17.5539 8.93504 17.5104 8.97274L10.4731 15.0681C10.1053 15.3867 9.72225 15.6865 9.32578 15.967C8.77832 16.3543 8.19977 16.7074 7.60622 17.0165C7.60609 17.0166 7.60596 17.0167 7.60583 17.0167C7.45248 17.0966 7.29778 17.1739 7.14161 17.2485C6.95072 17.3396 6.77788 17.2672 6.67978 17.1691C6.58171 17.071 6.50936 16.8982 6.60043 16.7073C6.67981 16.5409 6.76266 16.3763 6.84812 16.2131C6.88015 16.1519 6.91251 16.0908 6.94548 16.03C6.95289 16.0163 6.9605 16.0027 6.96795 15.989C7.00053 15.9293 7.03337 15.8698 7.06683 15.8104C7.07382 15.798 7.08098 15.7857 7.08801 15.7733C7.12237 15.7128 7.15706 15.6524 7.19229 15.5923C7.19883 15.5811 7.20547 15.5701 7.21202 15.5589C7.24793 15.498 7.28424 15.4373 7.32106 15.3769C7.32773 15.3659 7.3345 15.355 7.34121 15.3441C7.37787 15.2842 7.41495 15.2246 7.45245 15.1652C7.4601 15.1531 7.4678 15.1411 7.47548 15.129C7.51204 15.0715 7.549 15.0143 7.58631 14.9573C7.59554 14.9433 7.6048 14.9292 7.61406 14.9152C7.65001 14.8607 7.68635 14.8066 7.72298 14.7526C7.73383 14.7367 7.74474 14.7207 7.75565 14.7048C7.79138 14.6527 7.82742 14.6008 7.86373 14.5492C8.12194 14.1825 8.39642 13.8272 8.68712 13.485C8.7732 13.3836 8.76086 13.2316 8.65946 13.1455C8.55799 13.0594 8.4061 13.0718 8.31995 13.1731C8.07022 13.4672 7.83215 13.7706 7.60554 14.0823L5.42895 13.097C5.01829 12.911 4.52845 13.0003 4.20987 13.319L3.83933 13.6896C3.74557 13.7833 3.69716 13.913 3.70645 14.0453C3.71578 14.1776 3.78191 14.2991 3.88788 14.3788L6.31219 16.2022C6.26242 16.301 6.21332 16.4 6.16568 16.4998C6.00158 16.8439 6.06968 17.2403 6.33917 17.5097C6.51108 17.6817 6.73461 17.7716 6.96326 17.7716C7.09303 17.7716 7.22449 17.7426 7.34904 17.6832C7.44889 17.6355 7.54796 17.5864 7.64667 17.5367L9.47009 19.961C9.54979 20.067 9.67134 20.1331 9.80361 20.1424C9.81439 20.1432 9.82511 20.1436 9.83583 20.1436C9.95676 20.1436 10.0732 20.0957 10.1593 20.0095L10.5298 19.639C10.8485 19.3204 10.9377 18.8305 10.7518 18.4199L9.76669 16.2436C10.1183 15.9879 10.4593 15.7173 10.7885 15.4322L13.6177 12.9817L17.6956 18.4449C17.8253 18.6186 18.0236 18.7271 18.2397 18.7427C18.2577 18.744 18.2757 18.7446 18.2936 18.7446C18.4907 18.7446 18.6805 18.6666 18.821 18.5261L19.5427 17.8044C19.9362 17.4109 20.0528 16.8245 19.8398 16.3105L19.4459 15.36L20.1287 14.6772C20.34 14.4659 20.34 14.1221 20.1287 13.9108ZM4.1996 14.0105L4.5505 13.6597C4.72818 13.482 5.00139 13.4322 5.23029 13.5359L7.32336 14.4834C7.31886 14.49 7.31445 14.4967 7.30999 14.5033C7.28385 14.5419 7.25791 14.5807 7.2321 14.6195C7.21953 14.6384 7.20706 14.6574 7.19459 14.6764C7.10683 14.8099 7.02113 14.9447 6.93754 15.0809C6.92711 15.0979 6.91662 15.1148 6.90626 15.1318C6.88155 15.1725 6.85706 15.2132 6.83274 15.254C6.82014 15.2752 6.80767 15.2963 6.7952 15.3175C6.77172 15.3574 6.74828 15.3972 6.72515 15.4372C6.71336 15.4576 6.70183 15.4782 6.69014 15.4986C6.65189 15.5655 6.61416 15.6328 6.57692 15.7003C6.56416 15.7234 6.55117 15.7465 6.53854 15.7697L4.1996 14.0105ZM10.313 18.6186C10.4166 18.8475 10.3669 19.1207 10.1892 19.2984L9.83836 19.6493L8.07916 17.3103C8.11705 17.2897 8.15475 17.2687 8.19248 17.2477C8.24637 17.2178 8.30004 17.1875 8.35354 17.1569C8.3788 17.1425 8.40406 17.1281 8.42926 17.1135C8.46955 17.0902 8.50967 17.0667 8.54973 17.043C8.56978 17.0311 8.58976 17.0192 8.60978 17.0072C8.74781 16.9248 8.88451 16.8402 9.01989 16.7534C9.03757 16.7421 9.05529 16.7308 9.07294 16.7194C9.11475 16.6923 9.15649 16.6651 9.19805 16.6377C9.21472 16.6267 9.23131 16.6155 9.24795 16.6044C9.28724 16.5783 9.32665 16.5523 9.36568 16.5258L10.313 18.6186ZM18.123 11.6481C18.1465 11.6246 18.1847 11.6246 18.2082 11.6481L18.6103 12.0502C18.6337 12.0737 18.6337 12.1119 18.6103 12.1353L18.2562 12.4895L18.0392 11.9659L17.9706 11.8005L18.123 11.6481ZM19.2021 17.4637L18.4803 18.1855C18.4253 18.2406 18.3522 18.2675 18.2744 18.2623C18.1967 18.2567 18.1283 18.2192 18.0817 18.1568L13.9828 12.6654L14.8419 11.9213L16.7973 10.2276L19.3948 16.4949C19.533 16.8282 19.4573 17.2086 19.2021 17.4637ZM19.788 14.3365L19.2462 14.8783L18.9607 14.1893L19.3008 13.8492C19.3242 13.8257 19.3625 13.8257 19.386 13.8492L19.788 14.2513V14.2514C19.8115 14.2748 19.8115 14.3131 19.788 14.3365Z" fill="#BF9766" stroke="#BF9766" stroke-width="0.156279"/>
</svg>
