<svg width="25" height="24" viewBox="0 0 25 24" fill="none" xmlns="http://www.w3.org/2000/svg">
<path d="M18.642 7.29673C18.5603 6.34196 17.9415 5.72318 16.9868 5.64152C16.8542 5.63018 16.7376 5.72846 16.7262 5.86101C16.7149 5.99354 16.8132 6.11025 16.9457 6.12159C17.6682 6.18343 18.1001 6.61539 18.1619 7.3378C18.167 7.39666 18.1928 7.44878 18.2315 7.48752C18.2801 7.53602 18.3488 7.56358 18.4225 7.5573C18.5551 7.54593 18.6533 7.42928 18.642 7.29673Z" fill="#3F3F3F" stroke="#3F3F3F" stroke-width="0.156279"/>
<path d="M19.8869 4.39914C19.6598 4.17208 19.3461 4.05876 19.0264 4.08797L18.6527 4.1222C17.2119 4.25431 15.8968 4.9293 14.9495 6.02296L14.3744 6.68701L13.0476 6.13715L13.1186 6.06619C13.3299 5.85487 13.3299 5.51106 13.1186 5.29977L12.7166 4.8976C12.5053 4.68637 12.1615 4.68631 11.9501 4.8976L11.3954 5.45231L10.7576 5.18797L10.9175 5.02811C11.1288 4.81679 11.1288 4.47301 10.9175 4.26172L10.5154 3.85961C10.304 3.64833 9.96019 3.64839 9.74893 3.85961L9.10535 4.5032L8.02089 4.05374C7.50683 3.84067 6.92047 3.95729 6.52698 4.35072L5.80515 5.07255C5.65193 5.22577 5.573 5.43764 5.58861 5.65379C5.60422 5.86993 5.71282 6.06823 5.88644 6.19788L11.2987 10.2378L9.49217 12.3235C9.40509 12.424 9.416 12.5761 9.51653 12.6632C9.5621 12.7026 9.61822 12.722 9.67412 12.722C9.74155 12.722 9.80862 12.6938 9.85626 12.6388L11.8323 10.3575L11.8324 10.3574L12.9995 9.00995L15.3136 6.33827C16.179 5.33919 17.3804 4.72255 18.6967 4.60188L19.0704 4.56764C19.2476 4.55142 19.4208 4.61415 19.5463 4.73975C19.6719 4.86531 19.7346 5.03877 19.7184 5.21566L19.6842 5.5894C19.6048 6.45535 19.3025 7.29189 18.8098 8.00847C18.7344 8.1181 18.7622 8.26805 18.8718 8.34341C18.9815 8.4188 19.1314 8.39099 19.2068 8.28139C19.746 7.49696 20.077 6.5813 20.1639 5.63338L20.1981 5.25964C20.2274 4.93986 20.114 4.6262 19.8869 4.39914ZM12.2907 5.23827C12.3141 5.21476 12.3524 5.21472 12.3759 5.23827L12.778 5.64035C12.8014 5.66379 12.8014 5.70204 12.778 5.72549L12.566 5.93746L12.3704 5.8564L11.877 5.65191L12.2907 5.23827ZM10.0896 4.20025C10.113 4.17674 10.1512 4.17671 10.1747 4.20025L10.5768 4.60233C10.6003 4.62578 10.6003 4.66399 10.5768 4.68744L10.276 4.98831L9.587 4.70279L10.0896 4.20025ZM11.615 9.87269L6.17458 5.81183C6.11214 5.76526 6.0747 5.6968 6.06907 5.6191C6.06346 5.54141 6.09067 5.46828 6.14579 5.41322L6.86758 4.69143C7.0381 4.52094 7.26438 4.43062 7.49526 4.43062C7.60994 4.43062 7.72582 4.45293 7.83652 4.49879L14.042 7.07063L11.615 9.87269Z" fill="#3F3F3F" stroke="#3F3F3F" stroke-width="0.156279"/>
<path d="M20.5686 13.9108L20.1665 13.5086C19.9552 13.2974 19.6114 13.2974 19.4001 13.5086L19.201 13.7077L18.8958 12.9711L19.3909 12.476C19.6022 12.2647 19.6022 11.9209 19.3909 11.7096L18.9888 11.3074C18.7775 11.0962 18.4337 11.0962 18.2224 11.3075L18.211 11.3189L17.621 9.89523L18.2657 9.33683C18.3133 9.2956 18.3607 9.25308 18.4067 9.21042C18.5043 9.12 18.5101 8.96759 18.4196 8.87008C18.3293 8.77253 18.1768 8.76676 18.0793 8.85719C18.0372 8.89618 17.9938 8.93504 17.9503 8.97274L10.9131 15.0681C10.5453 15.3867 10.1622 15.6865 9.76572 15.967C9.21826 16.3543 8.63971 16.7074 8.04616 17.0165C8.04603 17.0166 8.04591 17.0167 8.04578 17.0167C7.89243 17.0966 7.73772 17.1739 7.58155 17.2485C7.39066 17.3396 7.21782 17.2672 7.11972 17.1691C7.02165 17.071 6.9493 16.8982 7.04037 16.7073C7.11975 16.5409 7.2026 16.3763 7.28806 16.2131C7.32009 16.1519 7.35245 16.0908 7.38542 16.03C7.39283 16.0163 7.40044 16.0027 7.40789 15.989C7.44047 15.9293 7.47331 15.8698 7.50677 15.8104C7.51377 15.798 7.52092 15.7857 7.52795 15.7733C7.56231 15.7128 7.597 15.6524 7.63223 15.5923C7.63878 15.5811 7.64542 15.5701 7.65196 15.5589C7.68787 15.498 7.72418 15.4373 7.761 15.3769C7.76767 15.3659 7.77444 15.355 7.78115 15.3441C7.81781 15.2842 7.85489 15.2246 7.89239 15.1652C7.90004 15.1531 7.90775 15.1411 7.91542 15.129C7.95198 15.0715 7.98894 15.0143 8.02625 14.9573C8.03548 14.9433 8.04474 14.9292 8.054 14.9152C8.08995 14.8607 8.12629 14.8066 8.16292 14.7526C8.17377 14.7367 8.18468 14.7207 8.1956 14.7048C8.23132 14.6527 8.26736 14.6008 8.30367 14.5492C8.56188 14.1825 8.83636 13.8272 9.12706 13.485C9.21314 13.3836 9.2008 13.2316 9.0994 13.1455C8.99793 13.0594 8.84604 13.0718 8.75989 13.1731C8.51016 13.4672 8.27209 13.7706 8.04548 14.0823L5.86889 13.097C5.45824 12.911 4.96839 13.0003 4.64981 13.319L4.27927 13.6896C4.18552 13.7833 4.1371 13.913 4.14639 14.0453C4.15572 14.1776 4.22185 14.2991 4.32782 14.3788L6.75213 16.2022C6.70236 16.301 6.65326 16.4 6.60562 16.4998C6.44152 16.8439 6.50963 17.2403 6.77911 17.5097C6.95102 17.6817 7.17455 17.7716 7.4032 17.7716C7.53297 17.7716 7.66443 17.7426 7.78898 17.6832C7.88883 17.6355 7.9879 17.5864 8.08661 17.5367L9.91003 19.961C9.98973 20.067 10.1113 20.1331 10.2435 20.1424C10.2543 20.1432 10.2651 20.1436 10.2758 20.1436C10.3967 20.1436 10.5131 20.0957 10.5992 20.0095L10.9697 19.639C11.2884 19.3204 11.3776 18.8305 11.1918 18.4199L10.2066 16.2436C10.5582 15.9879 10.8992 15.7173 11.2284 15.4322L14.0576 12.9817L18.1356 18.4449C18.2652 18.6186 18.4635 18.7271 18.6797 18.7427C18.6977 18.744 18.7156 18.7446 18.7336 18.7446C18.9307 18.7446 19.1205 18.6666 19.2609 18.5261L19.9827 17.8044C20.3762 17.4109 20.4928 16.8245 20.2797 16.3105L19.8858 15.36L20.5686 14.6772C20.7799 14.4659 20.7799 14.1221 20.5686 13.9108ZM4.63954 14.0105L4.99045 13.6597C5.16812 13.482 5.44133 13.4322 5.67024 13.5359L7.7633 14.4834C7.7588 14.49 7.7544 14.4967 7.74993 14.5033C7.72379 14.5419 7.69785 14.5807 7.67204 14.6195C7.65947 14.6384 7.647 14.6574 7.63453 14.6764C7.54677 14.8099 7.46107 14.9447 7.37748 15.0809C7.36705 15.0979 7.35656 15.1148 7.3462 15.1318C7.32149 15.1725 7.297 15.2132 7.27268 15.254C7.26008 15.2752 7.24761 15.2963 7.23515 15.3175C7.21166 15.3574 7.18822 15.3972 7.16509 15.4372C7.15331 15.4576 7.14178 15.4782 7.13008 15.4986C7.09184 15.5655 7.05411 15.6328 7.01686 15.7003C7.0041 15.7234 6.99111 15.7465 6.97848 15.7697L4.63954 14.0105ZM10.753 18.6186C10.8566 18.8475 10.8069 19.1207 10.6291 19.2984L10.2783 19.6493L8.5191 17.3103C8.55699 17.2897 8.59469 17.2687 8.63242 17.2477C8.68631 17.2178 8.73998 17.1875 8.79348 17.1569C8.81874 17.1425 8.844 17.1281 8.8692 17.1135C8.90949 17.0902 8.94961 17.0667 8.98968 17.043C9.00972 17.0311 9.02971 17.0192 9.04972 17.0072C9.18775 16.9248 9.32445 16.8402 9.45983 16.7534C9.47751 16.7421 9.49523 16.7308 9.51288 16.7194C9.55469 16.6923 9.59644 16.6651 9.63799 16.6377C9.65467 16.6267 9.67125 16.6155 9.68789 16.6044C9.72718 16.5783 9.76659 16.5523 9.80562 16.5258L10.753 18.6186ZM18.563 11.6481C18.5864 11.6246 18.6247 11.6246 18.6481 11.6481L19.0502 12.0502C19.0737 12.0737 19.0737 12.1119 19.0502 12.1353L18.6961 12.4895L18.4791 11.9659L18.4106 11.8005L18.563 11.6481ZM19.642 17.4637L18.9202 18.1855C18.8652 18.2406 18.7922 18.2675 18.7144 18.2623C18.6366 18.2567 18.5682 18.2192 18.5216 18.1568L14.4227 12.6654L15.2818 11.9213L17.2372 10.2276L19.8347 16.4949C19.9729 16.8282 19.8973 17.2086 19.642 17.4637ZM20.228 14.3365L19.6862 14.8783L19.4006 14.1893L19.7408 13.8492C19.7642 13.8257 19.8024 13.8257 19.8259 13.8492L20.228 14.2513V14.2514C20.2514 14.2748 20.2514 14.3131 20.228 14.3365Z" fill="#3F3F3F" stroke="#3F3F3F" stroke-width="0.156279"/>
</svg>
