<svg width="24" height="24" viewBox="0 0 24 24" fill="none" xmlns="http://www.w3.org/2000/svg">
<path fill-rule="evenodd" clip-rule="evenodd" d="M17.6489 8.8705L14.6326 9.67925L14.6321 9.67937L10.9201 10.6747L12.7259 17.4189C13.5629 16.7337 14.6357 16.3225 15.8048 16.3225C18.3107 16.3225 20.3777 18.2136 20.6207 20.6425H21.1245C21.3896 20.6425 21.6045 20.8574 21.6045 21.1225C21.6045 21.3876 21.3896 21.6025 21.1245 21.6025H2.88453C2.61943 21.6025 2.40453 21.3875 2.40453 21.1225C2.40453 20.8574 2.61943 20.6425 2.88453 20.6425H6.92781C7.60205 19.5738 8.79945 18.8636 10.1629 18.8636C10.6049 18.8636 11.0301 18.9384 11.4258 19.0762C11.5701 18.773 11.7453 18.4874 11.9475 18.2231L9.99283 10.9233L6.28111 11.9186L6.28034 11.9188L3.26441 12.7274C3.14141 12.7604 3.01037 12.7432 2.90009 12.6795C2.78983 12.6158 2.70936 12.511 2.67643 12.388C1.54361 8.15734 4.05245 3.80835 8.28084 2.67459C12.5094 1.54078 16.8553 4.05197 17.9882 8.28271C18.0568 8.53874 17.9048 8.80186 17.6489 8.8705ZM10.6718 9.74736L9.00758 3.53225C9.81458 3.5082 10.7154 3.92976 11.5839 4.79455C12.5344 5.74102 13.3816 7.16407 13.9118 8.87861L10.6718 9.74736ZM8.08036 3.78096L9.74452 9.996L6.5045 10.8647C6.10706 9.11474 6.12974 7.45855 6.48 6.16327C6.80001 4.97988 7.36948 4.164 8.08036 3.78096ZM5.55329 5.91269C5.1533 7.39188 5.14171 9.22262 5.57664 11.1135L3.49526 11.6716C2.99273 9.11035 3.97217 6.55834 5.88273 4.96963C5.75217 5.26716 5.64235 5.58331 5.55329 5.91269ZM12.2613 4.11427C13.3468 5.19516 14.2715 6.77477 14.8397 8.62982L16.9211 8.07173C16.0765 5.60182 13.9529 3.88164 11.5042 3.46195C11.7661 3.65443 12.0194 3.87341 12.2613 4.11427ZM15.8048 17.2825C14.1053 17.2825 12.663 18.3636 12.1376 19.8655C12.0919 19.9963 11.9919 20.1009 11.8633 20.1525C11.7347 20.2041 11.5902 20.1976 11.4667 20.1348C11.0765 19.9361 10.6337 19.8236 10.1629 19.8236C9.3785 19.8236 8.66868 20.1365 8.15309 20.6425H19.6545C19.416 18.7513 17.7868 17.2825 15.8048 17.2825Z" fill="#3F3F3F"/>
</svg>
