<svg width="25" height="24" viewBox="0 0 25 24" fill="none" xmlns="http://www.w3.org/2000/svg">
<path fill-rule="evenodd" clip-rule="evenodd" d="M17.7061 8.8705L14.6898 9.67925L14.6894 9.67937L10.9773 10.6747L12.7832 17.4189C13.6201 16.7337 14.693 16.3225 15.8621 16.3225C18.368 16.3225 20.435 18.2136 20.6779 20.6425H21.1818C21.4469 20.6425 21.6618 20.8574 21.6618 21.1225C21.6618 21.3876 21.4469 21.6025 21.1818 21.6025H2.94178C2.67668 21.6025 2.46178 21.3875 2.46178 21.1225C2.46178 20.8574 2.67668 20.6425 2.94178 20.6425H6.98506C7.6593 19.5738 8.8567 18.8636 10.2201 18.8636C10.6622 18.8636 11.0874 18.9384 11.4831 19.0762C11.6273 18.773 11.8026 18.4874 12.0047 18.2231L10.0501 10.9233L6.33836 11.9186L6.33759 11.9188L3.32166 12.7274C3.19866 12.7604 3.06762 12.7432 2.95734 12.6795C2.84708 12.6158 2.76661 12.511 2.73368 12.388C1.60086 8.15734 4.1097 3.80835 8.33809 2.67459C12.5666 1.54078 16.9126 4.05197 18.0454 8.28271C18.114 8.53874 17.9621 8.80186 17.7061 8.8705ZM10.729 9.74736L9.06483 3.53225C9.87183 3.5082 10.7727 3.92976 11.6411 4.79455C12.5917 5.74102 13.4389 7.16407 13.9691 8.87861L10.729 9.74736ZM8.13762 3.78096L9.80178 9.996L6.56175 10.8647C6.16431 9.11474 6.18699 7.45855 6.53725 6.16327C6.85726 4.97988 7.42674 4.164 8.13762 3.78096ZM5.61054 5.91269C5.21055 7.39188 5.19896 9.22262 5.63389 11.1135L3.55251 11.6716C3.04998 9.11035 4.02942 6.55834 5.93998 4.96963C5.80942 5.26716 5.6996 5.58331 5.61054 5.91269ZM12.3185 4.11427C13.404 5.19516 14.3288 6.77477 14.8969 8.62982L16.9783 8.07173C16.1338 5.60182 14.0101 3.88164 11.5614 3.46195C11.8233 3.65443 12.0766 3.87341 12.3185 4.11427ZM15.8621 17.2825C14.1626 17.2825 12.7202 18.3636 12.1949 19.8655C12.1491 19.9963 12.0491 20.1009 11.9205 20.1525C11.792 20.2041 11.6474 20.1976 11.524 20.1348C11.1338 19.9361 10.691 19.8236 10.2201 19.8236C9.43575 19.8236 8.72593 20.1365 8.21034 20.6425H19.7117C19.4732 18.7513 17.8441 17.2825 15.8621 17.2825Z" fill="#BF9766"/>
</svg>
