<svg width="24" height="24" viewBox="0 0 24 24" fill="none" xmlns="http://www.w3.org/2000/svg">
<path d="M22.4224 18.2763V16.2048C22.4224 15.7685 22.1156 15.4026 21.7065 15.311V14.7237C21.7065 13.869 21.1577 13.1405 20.3941 12.871V8.23673C20.3941 7.26521 19.6037 6.47482 18.6322 6.47482H9.60156C9.65864 6.39857 9.69146 6.305 9.69146 6.20635C9.69146 6.04232 9.60209 5.89155 9.45817 5.81285L8.69465 5.39524L8.27705 4.63173C8.19831 4.48785 8.04754 4.39844 7.8835 4.39844C7.71951 4.39844 7.56874 4.48785 7.49 4.63173L7.07239 5.39524L6.30884 5.81285C6.16495 5.89155 6.07559 6.04236 6.07559 6.20635C6.07559 6.305 6.10844 6.39857 6.16552 6.47482H5.36687C4.39535 6.47482 3.60496 7.26521 3.60496 8.23673V9.33598C3.60496 9.50462 3.74164 9.64133 3.91032 9.64133C4.079 9.64133 4.21568 9.50462 4.21568 9.33598V8.23673C4.21568 7.60196 4.73214 7.08554 5.36687 7.08554H7.10965L7.49 7.78102C7.56874 7.9249 7.71951 8.01431 7.8835 8.01431C8.04754 8.01431 8.19831 7.9249 8.27705 7.78102L8.6574 7.08554H18.6322C19.2669 7.08554 19.7833 7.60196 19.7833 8.23673V12.7604C19.7696 12.7601 19.756 12.7594 19.7422 12.7594H19.0318C19.0327 12.7401 19.0339 12.7209 19.0339 12.7015V10.5687C19.0339 9.88423 18.4771 9.32739 17.7927 9.32739H13.7262C13.0417 9.32739 12.4849 9.88423 12.4849 10.5687V12.7015C12.4849 12.7208 12.4862 12.7401 12.4871 12.7594H11.512C11.5129 12.7401 11.5142 12.7209 11.5142 12.7015V10.5687C11.5142 9.88423 10.9573 9.32739 10.2729 9.32739H6.2064C5.52195 9.32739 4.96515 9.88423 4.96515 10.5687V12.7015C4.96515 12.7208 4.96641 12.7401 4.9673 12.7594H4.2568C4.243 12.7594 4.2294 12.7601 4.21564 12.7604V10.761C4.21564 10.5923 4.07896 10.4556 3.91028 10.4556C3.7416 10.4556 3.60492 10.5923 3.60492 10.761V12.871C2.84133 13.1405 2.2925 13.869 2.2925 14.7236V15.311C1.8834 15.4026 1.57666 15.7685 1.57666 16.2048V18.2763C1.57666 18.7126 1.8834 19.0785 2.2925 19.1701V20.5861H1.88202C1.71334 20.5861 1.57666 20.7228 1.57666 20.8914C1.57666 21.0601 1.71334 21.1968 1.88202 21.1968H22.117C22.2857 21.1968 22.4224 21.0601 22.4224 20.8914C22.4224 20.7228 22.2857 20.5861 22.117 20.5861H21.7065V19.1701C22.1156 19.0785 22.4224 18.7127 22.4224 18.2763ZM8.36006 6.50434C8.2847 6.5455 8.22306 6.6071 8.18161 6.68271L7.88354 7.22775L7.58552 6.68279C7.54427 6.60735 7.48267 6.54567 7.40715 6.50438L6.8621 6.20627L7.40723 5.90816C7.48267 5.86688 7.54427 5.8052 7.58543 5.72988L7.88354 5.18483L8.18174 5.73012C8.22306 5.80548 8.2847 5.86708 8.35994 5.9082L8.90494 6.20627L8.36006 6.50434ZM5.57582 10.5687C5.57582 10.221 5.85866 9.9381 6.20636 9.9381H10.2728C10.6205 9.9381 10.9034 10.221 10.9034 10.5687V12.7015C10.9034 12.7209 10.9025 12.7402 10.9008 12.7594H5.57846C5.57667 12.7402 5.57582 12.7209 5.57582 12.7015V10.5687ZM2.90321 14.7237C2.90321 13.9773 3.51042 13.3701 4.2568 13.3701H15.2567C15.4253 13.3701 15.562 13.2333 15.562 13.0647C15.562 12.8961 15.4253 12.7594 15.2567 12.7594H13.0985C13.0968 12.7402 13.0956 12.7209 13.0956 12.7015V10.5687C13.0956 10.221 13.3785 9.9381 13.7262 9.9381H17.7927C18.1404 9.9381 18.4232 10.221 18.4232 10.5687V12.7015C18.4232 12.7209 18.4221 12.7402 18.4203 12.7594H16.6817C16.513 12.7594 16.3763 12.8961 16.3763 13.0647C16.3763 13.2333 16.513 13.3701 16.6817 13.3701H19.7422C20.4886 13.3701 21.0958 13.9773 21.0958 14.7237V15.2887H2.90321V14.7237ZM2.18737 16.2048C2.18737 16.0364 2.32434 15.8994 2.49273 15.8994H21.5063C21.6747 15.8994 21.8116 16.0364 21.8116 16.2048V17.0288H2.18737V16.2048ZM4.18824 20.5861H2.90321V19.1924H4.18824V20.5861ZM21.0958 20.5861H19.8108V19.1924H21.0958V20.5861ZM21.5063 18.5817H8.57951C8.41083 18.5817 8.27416 18.7184 8.27416 18.887C8.27416 19.0557 8.41083 19.1924 8.57951 19.1924H19.2001V20.5861H4.79895V19.1924H7.15451C7.32319 19.1924 7.45987 19.0557 7.45987 18.887C7.45987 18.7184 7.32319 18.5817 7.15451 18.5817H2.49273C2.32434 18.5817 2.18737 18.4447 2.18737 18.2763V17.6395H21.8116V18.2763C21.8116 18.4447 21.6747 18.5817 21.5063 18.5817Z" fill="#3F3F3F"/>
<path d="M9.90381 4.23963H10.2399V4.57567C10.2399 4.74435 10.3766 4.8811 10.5453 4.8811C10.714 4.8811 10.8507 4.74435 10.8507 4.57567V4.23963H11.1867C11.3555 4.23963 11.4922 4.10288 11.4922 3.9342C11.4922 3.76553 11.3555 3.62878 11.1867 3.62878H10.8507V3.29273C10.8507 3.12405 10.714 2.9873 10.5453 2.9873C10.3766 2.9873 10.2399 3.12405 10.2399 3.29273V3.62878H9.90381C9.7351 3.62878 9.59839 3.76553 9.59839 3.9342C9.59839 4.10288 9.73514 4.23963 9.90381 4.23963Z" fill="#3F3F3F"/>
<path d="M12.7066 5.62362H12.839V5.75602C12.839 5.92465 12.9757 6.06136 13.1444 6.06136C13.3131 6.06136 13.4497 5.92465 13.4497 5.75602V5.62362H13.5821C13.7508 5.62362 13.8875 5.48691 13.8875 5.31828C13.8875 5.14965 13.7508 5.01293 13.5821 5.01293H13.4497V4.88054C13.4497 4.71191 13.3131 4.5752 13.1444 4.5752C12.9757 4.5752 12.839 4.71191 12.839 4.88054V5.01293H12.7066C12.538 5.01293 12.4013 5.14965 12.4013 5.31828C12.4013 5.48691 12.538 5.62362 12.7066 5.62362Z" fill="#3F3F3F"/>
<path d="M14.9001 4.73194L15.4839 5.05122L15.8031 5.63486C15.8818 5.77882 16.0325 5.86823 16.1966 5.86823H16.1966C16.3606 5.86823 16.5114 5.77882 16.5902 5.63494L16.9094 5.05122L17.4932 4.73194C17.6371 4.65323 17.7265 4.50243 17.7265 4.33839C17.7264 4.17439 17.6371 4.02363 17.4932 3.94493L16.9094 3.62561L16.5902 3.04189C16.5114 2.898 16.3606 2.80859 16.1966 2.80859C16.1966 2.80859 16.1966 2.80859 16.1966 2.80859C16.0326 2.80863 15.8818 2.89804 15.8031 3.04189L15.4839 3.62561L14.9001 3.94489C14.7562 4.02359 14.6668 4.17435 14.6668 4.33839C14.6668 4.50239 14.7562 4.65319 14.9001 4.73194ZM15.8187 4.13861C15.8939 4.0974 15.9555 4.03584 15.9969 3.96036L16.1966 3.59511L16.3965 3.9606C16.4378 4.03597 16.4995 4.09757 16.5747 4.13865L16.94 4.33843L16.5748 4.53814C16.4994 4.57934 16.4378 4.64098 16.3964 4.7165L16.1966 5.08171L15.9968 4.71634C15.9556 4.64102 15.894 4.57942 15.8186 4.53818L15.4533 4.33839L15.8187 4.13861Z" fill="#3F3F3F"/>
</svg>
