<svg width="30" height="30" viewBox="0 0 30 30" fill="none" xmlns="http://www.w3.org/2000/svg">
<path d="M15.3355 7.3103C11.4946 7.3103 8.38086 10.424 8.38086 14.265C8.38086 18.1059 11.4946 21.2196 15.3355 21.2196C19.1765 21.2196 22.2902 18.1059 22.2902 14.265C22.2902 10.424 19.1765 7.3103 15.3355 7.3103ZM15.3355 19.542C12.4257 19.542 10.0585 17.1747 10.0585 14.265C10.0585 11.3553 12.4257 8.98801 15.3355 8.98801C18.2452 8.98801 20.6125 11.3553 20.6125 14.265C20.6125 17.1747 18.2452 19.542 15.3355 19.542Z" fill="#BF9766"/>
<path d="M15.3356 10.4025C13.2058 10.4025 11.4731 12.1352 11.4731 14.2649C11.4731 16.3947 13.2058 18.1274 15.3356 18.1274C17.4654 18.1274 19.1981 16.3947 19.1981 14.2649C19.1981 12.1352 17.4654 10.4025 15.3356 10.4025Z" fill="#BF9766"/>
<path d="M25.0616 14.848V6.39689C25.0616 6.31535 25.0096 6.24287 24.9322 6.21683C24.8549 6.19082 24.7697 6.21711 24.7203 6.28208C23.6659 7.67264 23.0952 9.36986 23.0952 11.115V14.2066C23.0952 14.5612 23.3827 14.8487 23.7373 14.8487H24.0049C23.7411 17.5739 23.5667 21.3853 23.5667 21.8316C23.5667 22.5347 23.9995 23.1047 24.5333 23.1047C25.0671 23.1047 25.4999 22.5347 25.4999 21.8316C25.4999 21.3853 25.3255 17.5732 25.0616 14.848Z" fill="#BF9766"/>
<path d="M7.30617 13.1728C7.84109 12.8488 8.19863 12.2613 8.19863 11.5902L7.93366 7.25805C7.92353 7.09292 7.78666 6.96417 7.62121 6.96417C7.44226 6.96417 7.29969 7.11408 7.30859 7.29271L7.48089 10.7671C7.48089 10.9624 7.32253 11.1207 7.1273 11.1207C6.93202 11.1207 6.7737 10.9623 6.7737 10.7671L6.68761 7.29414C6.68306 7.1106 6.53298 6.96421 6.34935 6.96421C6.16573 6.96421 6.01569 7.11064 6.0111 7.29414L5.92501 10.7671C5.92501 10.9624 5.76664 11.1207 5.57141 11.1207C5.37613 11.1207 5.21781 10.9623 5.21781 10.7671L5.39012 7.29271C5.39898 7.114 5.25633 6.96417 5.0775 6.96417C4.91204 6.96417 4.77517 7.09292 4.76508 7.25805L4.5 11.5902C4.5 12.2613 4.85749 12.8488 5.39246 13.1728C5.7406 13.3837 5.93469 13.7779 5.88981 14.1825C5.58782 16.9042 5.38274 21.3477 5.38274 21.8317C5.38274 22.5348 5.81549 23.1047 6.34931 23.1047C6.88313 23.1047 7.31589 22.5347 7.31589 21.8317C7.31589 21.3477 7.11077 16.9042 6.80881 14.1825C6.7639 13.7781 6.95819 13.3836 7.30617 13.1728Z" fill="#BF9766"/>
</svg>
