<svg width="30" height="30" viewBox="0 0 30 30" fill="none" xmlns="http://www.w3.org/2000/svg">
<path d="M15.3355 7.3103C11.4946 7.3103 8.38086 10.424 8.38086 14.265C8.38086 18.1059 11.4946 21.2196 15.3355 21.2196C19.1765 21.2196 22.2902 18.1059 22.2902 14.265C22.2902 10.424 19.1765 7.3103 15.3355 7.3103ZM15.3355 19.542C12.4257 19.542 10.0585 17.1747 10.0585 14.265C10.0585 11.3553 12.4257 8.98801 15.3355 8.98801C18.2452 8.98801 20.6125 11.3553 20.6125 14.265C20.6125 17.1747 18.2452 19.542 15.3355 19.542Z" fill="#686868"/>
<path d="M15.3351 10.4025C13.2054 10.4025 11.4727 12.1352 11.4727 14.2649C11.4727 16.3947 13.2054 18.1274 15.3351 18.1274C17.4649 18.1274 19.1976 16.3947 19.1976 14.2649C19.1976 12.1352 17.465 10.4025 15.3351 10.4025Z" fill="#686868"/>
<path d="M25.0621 14.848V6.39689C25.0621 6.31535 25.0101 6.24287 24.9327 6.21683C24.8554 6.19082 24.7702 6.21711 24.7208 6.28208C23.6664 7.67264 23.0957 9.36986 23.0957 11.115V14.2066C23.0957 14.5612 23.3831 14.8487 23.7378 14.8487H24.0054C23.7416 17.5739 23.5672 21.3853 23.5672 21.8316C23.5672 22.5347 24 23.1047 24.5338 23.1047C25.0676 23.1047 25.5004 22.5347 25.5004 21.8316C25.5004 21.3853 25.326 17.5732 25.0621 14.848Z" fill="#686868"/>
<path d="M7.30617 13.1728C7.84109 12.8488 8.19863 12.2613 8.19863 11.5902L7.93366 7.25805C7.92353 7.09292 7.78666 6.96417 7.62121 6.96417C7.44226 6.96417 7.29969 7.11408 7.30859 7.29271L7.48089 10.7671C7.48089 10.9624 7.32253 11.1207 7.1273 11.1207C6.93202 11.1207 6.7737 10.9623 6.7737 10.7671L6.68761 7.29414C6.68306 7.1106 6.53298 6.96421 6.34935 6.96421C6.16573 6.96421 6.01569 7.11064 6.0111 7.29414L5.92501 10.7671C5.92501 10.9624 5.76664 11.1207 5.57141 11.1207C5.37613 11.1207 5.21781 10.9623 5.21781 10.7671L5.39012 7.29271C5.39898 7.114 5.25633 6.96417 5.0775 6.96417C4.91204 6.96417 4.77517 7.09292 4.76508 7.25805L4.5 11.5902C4.5 12.2613 4.85749 12.8488 5.39246 13.1728C5.7406 13.3837 5.93469 13.7779 5.88981 14.1825C5.58782 16.9042 5.38274 21.3477 5.38274 21.8317C5.38274 22.5348 5.81549 23.1047 6.34931 23.1047C6.88313 23.1047 7.31589 22.5347 7.31589 21.8317C7.31589 21.3477 7.11077 16.9042 6.80881 14.1825C6.7639 13.7781 6.95819 13.3836 7.30617 13.1728Z" fill="#686868"/>
</svg>
