<svg width="24" height="24" viewBox="0 0 24 24" fill="none" xmlns="http://www.w3.org/2000/svg">
<path d="M7.9674 11.8835C10.3101 11.8835 12.216 9.89103 12.216 7.44183C12.216 4.99264 10.3101 3 7.9674 3C5.62469 3 3.71875 4.99258 3.71875 7.44177C3.71875 9.89097 5.62469 11.8835 7.9674 11.8835ZM7.9674 4.88816C9.31425 4.88816 10.4099 6.03371 10.4099 7.44177C10.4099 8.84984 9.31425 9.99532 7.9674 9.99532C6.62056 9.99532 5.52482 8.84984 5.52482 7.44177C5.52482 6.03371 6.62056 4.88816 7.9674 4.88816Z" fill="url(#paint0_linear_2280_6903)"/>
<path d="M17.2809 11.9792C19.244 11.9792 20.8412 10.3095 20.8412 8.25709C20.8412 6.20472 19.2441 4.53502 17.2809 4.53502C15.3178 4.53502 13.7207 6.20472 13.7207 8.25709C13.7207 10.3095 15.3179 11.9792 17.2809 11.9792ZM17.2809 6.42324C18.2482 6.42324 19.0351 7.24591 19.0351 8.25715C19.0351 9.26839 18.2482 10.0911 17.2809 10.0911C16.3137 10.0911 15.5268 9.26839 15.5268 8.25715C15.5268 7.24591 16.3137 6.42324 17.2809 6.42324Z" fill="url(#paint1_linear_2280_6903)"/>
<path d="M17.2808 13.5523C15.5218 13.5523 13.8744 14.4107 12.8025 15.8171C11.5486 14.5516 9.84335 13.7718 7.96696 13.7718C4.12534 13.7718 1 17.0392 1 21.0554V21.9995H14.9338V21.0554C14.9338 20.8602 14.9262 20.6669 14.9117 20.4756H23V19.5315C23.0001 16.2346 20.4344 13.5523 17.2808 13.5523ZM2.88517 20.1113C3.31339 17.5846 5.4292 15.6599 7.96696 15.6599C10.5047 15.6599 12.6205 17.5846 13.0487 20.1113H2.88517ZM14.5218 18.5874C14.3733 18.1573 14.1869 17.7461 13.9671 17.3578C14.6772 16.1793 15.9311 15.4405 17.2808 15.4405C19.1279 15.4405 20.6802 16.7851 21.0888 18.5874H14.5218Z" fill="url(#paint2_linear_2280_6903)"/>
<defs>
<linearGradient id="paint0_linear_2280_6903" x1="7.96752" y1="3.49333" x2="7.96752" y2="11.3901" gradientUnits="userSpaceOnUse">
<stop offset="0.11" stop-color="#DEAF33"/>
<stop offset="0.61" stop-color="#B58F2C"/>
<stop offset="1" stop-color="#DEAF33"/>
</linearGradient>
<linearGradient id="paint1_linear_2280_6903" x1="17.2811" y1="4.94842" x2="17.2811" y2="11.5657" gradientUnits="userSpaceOnUse">
<stop offset="0.11" stop-color="#DEAF33"/>
<stop offset="0.61" stop-color="#B58F2C"/>
<stop offset="1" stop-color="#DEAF33"/>
</linearGradient>
<linearGradient id="paint2_linear_2280_6903" x1="12.0004" y1="14.0214" x2="12.0004" y2="21.5303" gradientUnits="userSpaceOnUse">
<stop offset="0.11" stop-color="#DEAF33"/>
<stop offset="0.61" stop-color="#B58F2C"/>
<stop offset="1" stop-color="#DEAF33"/>
</linearGradient>
</defs>
</svg>
