<svg width="24" height="24" viewBox="0 0 24 24" fill="none" xmlns="http://www.w3.org/2000/svg">
<path d="M17.9961 22.001H5.99609C5.46584 22.0004 4.95747 21.7895 4.58252 21.4145C4.20758 21.0396 3.99668 20.5312 3.99609 20.001V4.00098C3.99668 3.47072 4.20758 2.96235 4.58252 2.58741C4.95747 2.21246 5.46584 2.00156 5.99609 2.00098H17.9961C18.5263 2.00156 19.0347 2.21246 19.4097 2.58741C19.7846 2.96235 19.9955 3.47072 19.9961 4.00098V20.001C19.996 20.5314 19.7852 21.04 19.4102 21.415C19.0351 21.7901 18.5265 22.0008 17.9961 22.001ZM5.99609 3.33431C5.81935 3.33454 5.64992 3.40485 5.52494 3.52983C5.39997 3.6548 5.32966 3.82424 5.32943 4.00098V20.001C5.32966 20.1777 5.39997 20.3472 5.52494 20.4721C5.64992 20.5971 5.81935 20.6674 5.99609 20.6676H17.9961C18.1729 20.6676 18.3425 20.5974 18.4675 20.4724C18.5925 20.3474 18.6628 20.1778 18.6628 20.001V4.00098C18.6625 3.82424 18.5922 3.6548 18.4672 3.52983C18.3423 3.40485 18.1728 3.33454 17.9961 3.33431H5.99609Z" fill="url(#paint0_linear_2280_6858)"/>
<path d="M7.99544 6.00097H7.32878C7.15197 6.00097 6.9824 5.93073 6.85737 5.8057C6.73235 5.68068 6.66211 5.51111 6.66211 5.3343C6.66211 5.15749 6.73235 4.98792 6.85737 4.8629C6.9824 4.73787 7.15197 4.66763 7.32878 4.66763H7.99544C8.17225 4.66763 8.34182 4.73787 8.46685 4.8629C8.59187 4.98792 8.66211 5.15749 8.66211 5.3343C8.66211 5.51111 8.59187 5.68068 8.46685 5.8057C8.34182 5.93073 8.17225 6.00097 7.99544 6.00097Z" fill="url(#paint1_linear_2280_6858)"/>
<path d="M16.6628 6.00097H10.6628C10.4859 6.00097 10.3164 5.93073 10.1914 5.8057C10.0663 5.68068 9.99609 5.51111 9.99609 5.3343C9.99609 5.15749 10.0663 4.98792 10.1914 4.8629C10.3164 4.73787 10.4859 4.66763 10.6628 4.66763H16.6628C16.8396 4.66763 17.0091 4.73787 17.1342 4.8629C17.2592 4.98792 17.3294 5.15749 17.3294 5.3343C17.3294 5.51111 17.2592 5.68068 17.1342 5.8057C17.0091 5.93073 16.8396 6.00097 16.6628 6.00097Z" fill="url(#paint2_linear_2280_6858)"/>
<path d="M7.99544 8.66765H7.32878C7.15197 8.66765 6.9824 8.59742 6.85737 8.47239C6.73235 8.34737 6.66211 8.1778 6.66211 8.00099C6.66211 7.82418 6.73235 7.65461 6.85737 7.52958C6.9824 7.40456 7.15197 7.33432 7.32878 7.33432H7.99544C8.17225 7.33432 8.34182 7.40456 8.46685 7.52958C8.59187 7.65461 8.66211 7.82418 8.66211 8.00099C8.66211 8.1778 8.59187 8.34737 8.46685 8.47239C8.34182 8.59742 8.17225 8.66765 7.99544 8.66765Z" fill="url(#paint3_linear_2280_6858)"/>
<path d="M16.6628 8.66756H10.6628C10.4859 8.66756 10.3164 8.59732 10.1914 8.4723C10.0663 8.34728 9.99609 8.17771 9.99609 8.0009C9.99609 7.82408 10.0663 7.65452 10.1914 7.52949C10.3164 7.40447 10.4859 7.33423 10.6628 7.33423H16.6628C16.8396 7.33423 17.0091 7.40447 17.1342 7.52949C17.2592 7.65452 17.3294 7.82408 17.3294 8.0009C17.3294 8.17771 17.2592 8.34728 17.1342 8.4723C17.0091 8.59732 16.8396 8.66756 16.6628 8.66756Z" fill="url(#paint4_linear_2280_6858)"/>
<path d="M7.99544 11.3343H7.32878C7.15197 11.3343 6.9824 11.2641 6.85737 11.139C6.73235 11.014 6.66211 10.8445 6.66211 10.6676C6.66211 10.4908 6.73235 10.3213 6.85737 10.1962C6.9824 10.0712 7.15197 10.001 7.32878 10.001H7.99544C8.17225 10.001 8.34182 10.0712 8.46685 10.1962C8.59187 10.3213 8.66211 10.4908 8.66211 10.6676C8.66211 10.8445 8.59187 11.014 8.46685 11.139C8.34182 11.2641 8.17225 11.3343 7.99544 11.3343Z" fill="url(#paint5_linear_2280_6858)"/>
<path d="M16.6628 11.3343H10.6628C10.4859 11.3343 10.3164 11.2641 10.1914 11.139C10.0663 11.014 9.99609 10.8445 9.99609 10.6676C9.99609 10.4908 10.0663 10.3213 10.1914 10.1962C10.3164 10.0712 10.4859 10.001 10.6628 10.001H16.6628C16.8396 10.001 17.0091 10.0712 17.1342 10.1962C17.2592 10.3213 17.3294 10.4908 17.3294 10.6676C17.3294 10.8445 17.2592 11.014 17.1342 11.139C17.0091 11.2641 16.8396 11.3343 16.6628 11.3343Z" fill="url(#paint6_linear_2280_6858)"/>
<path d="M16.6628 14.0008H10.6628C10.4859 14.0008 10.3164 13.9305 10.1914 13.8055C10.0663 13.6805 9.99609 13.5109 9.99609 13.3341C9.99609 13.1573 10.0663 12.9877 10.1914 12.8627C10.3164 12.7377 10.4859 12.6674 10.6628 12.6674H16.6628C16.8396 12.6674 17.0091 12.7377 17.1342 12.8627C17.2592 12.9877 17.3294 13.1573 17.3294 13.3341C17.3294 13.5109 17.2592 13.6805 17.1342 13.8055C17.0091 13.9305 16.8396 14.0008 16.6628 14.0008Z" fill="url(#paint7_linear_2280_6858)"/>
<path d="M16.6628 16.6678H10.6628C10.4859 16.6678 10.3164 16.5976 10.1914 16.4726C10.0663 16.3476 9.99609 16.178 9.99609 16.0012C9.99609 15.8244 10.0663 15.6548 10.1914 15.5298C10.3164 15.4047 10.4859 15.3345 10.6628 15.3345H16.6628C16.8396 15.3345 17.0091 15.4047 17.1342 15.5298C17.2592 15.6548 17.3294 15.8244 17.3294 16.0012C17.3294 16.178 17.2592 16.3476 17.1342 16.4726C17.0091 16.5976 16.8396 16.6678 16.6628 16.6678Z" fill="url(#paint8_linear_2280_6858)"/>
<path d="M16.6628 19.3343H10.6628C10.4859 19.3343 10.3164 19.2641 10.1914 19.139C10.0663 19.014 9.99609 18.8445 9.99609 18.6676C9.99609 18.4908 10.0663 18.3213 10.1914 18.1962C10.3164 18.0712 10.4859 18.001 10.6628 18.001H16.6628C16.8396 18.001 17.0091 18.0712 17.1342 18.1962C17.2592 18.3213 17.3294 18.4908 17.3294 18.6676C17.3294 18.8445 17.2592 19.014 17.1342 19.139C17.0091 19.2641 16.8396 19.3343 16.6628 19.3343Z" fill="url(#paint9_linear_2280_6858)"/>
<path d="M7.99544 14.001H7.32878C7.15197 14.001 6.9824 13.9307 6.85737 13.8057C6.73235 13.6807 6.66211 13.5111 6.66211 13.3343C6.66211 13.1575 6.73235 12.9879 6.85737 12.8629C6.9824 12.7379 7.15197 12.6676 7.32878 12.6676H7.99544C8.17225 12.6676 8.34182 12.7379 8.46685 12.8629C8.59187 12.9879 8.66211 13.1575 8.66211 13.3343C8.66211 13.5111 8.59187 13.6807 8.46685 13.8057C8.34182 13.9307 8.17225 14.001 7.99544 14.001Z" fill="url(#paint10_linear_2280_6858)"/>
<path d="M7.99544 16.6677H7.32878C7.15197 16.6677 6.9824 16.5974 6.85737 16.4724C6.73235 16.3474 6.66211 16.1778 6.66211 16.001C6.66211 15.8242 6.73235 15.6546 6.85737 15.5296C6.9824 15.4046 7.15197 15.3343 7.32878 15.3343H7.99544C8.17225 15.3343 8.34182 15.4046 8.46685 15.5296C8.59187 15.6546 8.66211 15.8242 8.66211 16.001C8.66211 16.1778 8.59187 16.3474 8.46685 16.4724C8.34182 16.5974 8.17225 16.6677 7.99544 16.6677Z" fill="url(#paint11_linear_2280_6858)"/>
<path d="M7.99544 19.3343H7.32878C7.15197 19.3343 6.9824 19.2641 6.85737 19.139C6.73235 19.014 6.66211 18.8445 6.66211 18.6676C6.66211 18.4908 6.73235 18.3213 6.85737 18.1962C6.9824 18.0712 7.15197 18.001 7.32878 18.001H7.99544C8.17225 18.001 8.34182 18.0712 8.46685 18.1962C8.59187 18.3213 8.66211 18.4908 8.66211 18.6676C8.66211 18.8445 8.59187 19.014 8.46685 19.139C8.34182 19.2641 8.17225 19.3343 7.99544 19.3343Z" fill="url(#paint12_linear_2280_6858)"/>
<defs>
<linearGradient id="paint0_linear_2280_6858" x1="11.9964" y1="3.11165" x2="11.9964" y2="20.8901" gradientUnits="userSpaceOnUse">
<stop offset="0.11" stop-color="#DEAF33"/>
<stop offset="0.61" stop-color="#B58F2C"/>
<stop offset="1" stop-color="#DEAF33"/>
</linearGradient>
<linearGradient id="paint1_linear_2280_6858" x1="7.66214" y1="4.74168" x2="7.66214" y2="5.92691" gradientUnits="userSpaceOnUse">
<stop offset="0.11" stop-color="#DEAF33"/>
<stop offset="0.61" stop-color="#B58F2C"/>
<stop offset="1" stop-color="#DEAF33"/>
</linearGradient>
<linearGradient id="paint2_linear_2280_6858" x1="13.6629" y1="4.74168" x2="13.6629" y2="5.92691" gradientUnits="userSpaceOnUse">
<stop offset="0.11" stop-color="#DEAF33"/>
<stop offset="0.61" stop-color="#B58F2C"/>
<stop offset="1" stop-color="#DEAF33"/>
</linearGradient>
<linearGradient id="paint3_linear_2280_6858" x1="7.66214" y1="7.40836" x2="7.66214" y2="8.5936" gradientUnits="userSpaceOnUse">
<stop offset="0.11" stop-color="#DEAF33"/>
<stop offset="0.61" stop-color="#B58F2C"/>
<stop offset="1" stop-color="#DEAF33"/>
</linearGradient>
<linearGradient id="paint4_linear_2280_6858" x1="13.6629" y1="7.40827" x2="13.6629" y2="8.5935" gradientUnits="userSpaceOnUse">
<stop offset="0.11" stop-color="#DEAF33"/>
<stop offset="0.61" stop-color="#B58F2C"/>
<stop offset="1" stop-color="#DEAF33"/>
</linearGradient>
<linearGradient id="paint5_linear_2280_6858" x1="7.66214" y1="10.075" x2="7.66214" y2="11.2603" gradientUnits="userSpaceOnUse">
<stop offset="0.11" stop-color="#DEAF33"/>
<stop offset="0.61" stop-color="#B58F2C"/>
<stop offset="1" stop-color="#DEAF33"/>
</linearGradient>
<linearGradient id="paint6_linear_2280_6858" x1="13.6629" y1="10.075" x2="13.6629" y2="11.2603" gradientUnits="userSpaceOnUse">
<stop offset="0.11" stop-color="#DEAF33"/>
<stop offset="0.61" stop-color="#B58F2C"/>
<stop offset="1" stop-color="#DEAF33"/>
</linearGradient>
<linearGradient id="paint7_linear_2280_6858" x1="13.6629" y1="12.7415" x2="13.6629" y2="13.9267" gradientUnits="userSpaceOnUse">
<stop offset="0.11" stop-color="#DEAF33"/>
<stop offset="0.61" stop-color="#B58F2C"/>
<stop offset="1" stop-color="#DEAF33"/>
</linearGradient>
<linearGradient id="paint8_linear_2280_6858" x1="13.6629" y1="15.4085" x2="13.6629" y2="16.5938" gradientUnits="userSpaceOnUse">
<stop offset="0.11" stop-color="#DEAF33"/>
<stop offset="0.61" stop-color="#B58F2C"/>
<stop offset="1" stop-color="#DEAF33"/>
</linearGradient>
<linearGradient id="paint9_linear_2280_6858" x1="13.6629" y1="18.075" x2="13.6629" y2="19.2603" gradientUnits="userSpaceOnUse">
<stop offset="0.11" stop-color="#DEAF33"/>
<stop offset="0.61" stop-color="#B58F2C"/>
<stop offset="1" stop-color="#DEAF33"/>
</linearGradient>
<linearGradient id="paint10_linear_2280_6858" x1="7.66214" y1="12.7417" x2="7.66214" y2="13.9269" gradientUnits="userSpaceOnUse">
<stop offset="0.11" stop-color="#DEAF33"/>
<stop offset="0.61" stop-color="#B58F2C"/>
<stop offset="1" stop-color="#DEAF33"/>
</linearGradient>
<linearGradient id="paint11_linear_2280_6858" x1="7.66214" y1="15.4084" x2="7.66214" y2="16.5936" gradientUnits="userSpaceOnUse">
<stop offset="0.11" stop-color="#DEAF33"/>
<stop offset="0.61" stop-color="#B58F2C"/>
<stop offset="1" stop-color="#DEAF33"/>
</linearGradient>
<linearGradient id="paint12_linear_2280_6858" x1="7.66214" y1="18.075" x2="7.66214" y2="19.2603" gradientUnits="userSpaceOnUse">
<stop offset="0.11" stop-color="#DEAF33"/>
<stop offset="0.61" stop-color="#B58F2C"/>
<stop offset="1" stop-color="#DEAF33"/>
</linearGradient>
</defs>
</svg>
