<svg width="20" height="20" viewBox="0 0 20 20" fill="none" xmlns="http://www.w3.org/2000/svg">
<path d="M14.375 19.3752H14.3575C14.2322 19.3717 14.1109 19.3306 14.0092 19.2573C13.9076 19.1839 13.8303 19.0817 13.7875 18.9639L11.8275 13.5733L10.5744 16.4964C10.5262 16.6088 10.4461 16.7046 10.344 16.772C10.2419 16.8393 10.1223 16.8752 10 16.8752H7.5V15.6252H9.5875L11.3 11.6289C11.4019 11.3933 11.6431 11.2439 11.8925 11.2502C12.0178 11.2537 12.1391 11.2948 12.2408 11.3681C12.3424 11.4414 12.4197 11.5436 12.4625 11.6614L14.4225 17.0527L15.6756 14.1289C15.7238 14.0165 15.8039 13.9207 15.906 13.8534C16.0081 13.7861 16.1277 13.7502 16.25 13.7502H18.75V15.0002H16.6625L14.95 18.9964C14.9018 19.1089 14.8216 19.2048 14.7194 19.2721C14.6171 19.3395 14.4974 19.3753 14.375 19.3752Z" fill="#BF9766"/>
<path d="M5.625 15.625H2.5V6.25H17.5V11.875H18.75V6.25C18.75 5.56063 18.1894 5 17.5 5H13.75V2.5C13.75 1.81062 13.1894 1.25 12.5 1.25H7.5C6.81063 1.25 6.25 1.81062 6.25 2.5V5H2.5C1.81062 5 1.25 5.56063 1.25 6.25V15.625C1.25 16.3144 1.81062 16.875 2.5 16.875H5.625V15.625ZM7.5 2.5H12.5V5H7.5V2.5Z" fill="#BF9766"/>
</svg>
