<svg width="30" height="30" viewBox="0 0 30 30" fill="none" xmlns="http://www.w3.org/2000/svg">
<path d="M21.2623 25.1424H11.9C11.4181 25.1397 10.9566 24.947 10.6158 24.6062C10.275 24.2654 10.0823 23.8039 10.0796 23.322V20.2012C10.0796 19.9943 10.1618 19.7958 10.3081 19.6495C10.4544 19.5032 10.6529 19.421 10.8598 19.421C11.0667 19.421 11.2651 19.5032 11.4115 19.6495C11.5578 19.7958 11.64 19.9943 11.64 20.2012V23.322C11.64 23.3909 11.6674 23.4571 11.7161 23.5058C11.7649 23.5546 11.8311 23.582 11.9 23.582H21.2623C21.3312 23.582 21.3974 23.5546 21.4462 23.5058C21.4949 23.4571 21.5223 23.3909 21.5223 23.322V20.2012C21.5223 19.9943 21.6045 19.7958 21.7508 19.6495C21.8972 19.5032 22.0956 19.421 22.3025 19.421C22.5094 19.421 22.7079 19.5032 22.8542 19.6495C23.0005 19.7958 23.0827 19.9943 23.0827 20.2012V23.322C23.08 23.8039 22.8873 24.2654 22.5465 24.6062C22.2057 24.947 21.7442 25.1397 21.2623 25.1424Z" fill="#686868"/>
<path d="M21.2627 11.6192H13.0551C12.8482 11.6192 12.6497 11.537 12.5034 11.3906C12.3571 11.2443 12.2749 11.0459 12.2749 10.839C12.2749 10.632 12.3571 10.4336 12.5034 10.2873C12.6497 10.141 12.8482 10.0588 13.0551 10.0588H21.2627C21.4696 10.0588 21.668 10.141 21.8143 10.2873C21.9606 10.4336 22.0428 10.632 22.0428 10.839C22.0428 11.0459 21.9606 11.2443 21.8143 11.3906C21.668 11.537 21.4696 11.6192 21.2627 11.6192Z" fill="#686868"/>
<path d="M22.3026 14.2198H14.8128C14.7532 14.2206 14.6953 14.2001 14.6495 14.1619C14.6037 14.1238 14.5731 14.0705 14.5632 14.0117L12.8467 6.28265C12.7585 5.8772 12.5337 5.51437 12.2098 5.25492C11.886 4.99548 11.4828 4.85518 11.0679 4.85751H7.94716C7.67587 4.85768 7.40804 4.91848 7.16326 5.03547C6.91849 5.15245 6.70295 5.32267 6.53242 5.53367C6.35795 5.74324 6.2343 5.99031 6.17114 6.25558C6.10798 6.52085 6.10702 6.79714 6.16834 7.06284L8.66494 18.724C8.80468 19.3627 9.15819 19.9345 9.667 20.3449C10.1758 20.7554 10.8095 20.9799 11.4632 20.9814H22.3026C22.7846 20.9787 23.246 20.786 23.5868 20.4452C23.9276 20.1044 24.1203 19.6429 24.123 19.1609V16.0402C24.1203 15.5582 23.9276 15.0968 23.5868 14.756C23.246 14.4152 22.7846 14.2225 22.3026 14.2198Z" fill="#686868"/>
</svg>
