<svg width="20" height="20" viewBox="0 0 20 20" fill="none" xmlns="http://www.w3.org/2000/svg">
<path d="M10.0101 1.875C10.6217 1.88167 11.2309 1.9525 11.8284 2.08583C11.9555 2.11421 12.0706 2.18159 12.1575 2.27855C12.2445 2.37552 12.299 2.49722 12.3134 2.62667L12.4551 3.89917C12.4751 4.07857 12.5369 4.25077 12.6356 4.40192C12.7343 4.55307 12.8671 4.67894 13.0233 4.76941C13.1795 4.85988 13.3548 4.91241 13.535 4.92279C13.7152 4.93317 13.8953 4.9011 14.0609 4.82917L15.2276 4.31667C15.3461 4.26446 15.4779 4.25037 15.6048 4.27634C15.7317 4.30232 15.8474 4.36708 15.9359 4.46167C16.7793 5.36263 17.4075 6.44303 17.7734 7.62167C17.8116 7.74562 17.8103 7.87839 17.7697 8.00157C17.7291 8.12476 17.6512 8.23226 17.5467 8.30917L16.5126 9.0725C16.3669 9.17931 16.2484 9.31894 16.1667 9.48008C16.085 9.64122 16.0424 9.81934 16.0424 10C16.0424 10.1807 16.085 10.3588 16.1667 10.5199C16.2484 10.6811 16.3669 10.8207 16.5126 10.9275L17.5484 11.69C17.653 11.767 17.7311 11.8746 17.7717 11.998C17.8123 12.1213 17.8135 12.2543 17.7751 12.3783C17.4094 13.5569 16.7815 14.6373 15.9384 15.5383C15.8501 15.6329 15.7346 15.6977 15.6078 15.7238C15.4811 15.7499 15.3494 15.7361 15.2309 15.6842L14.0592 15.17C13.8939 15.0975 13.7138 15.065 13.5335 15.075C13.3533 15.085 13.1779 15.1373 13.0216 15.2277C12.8654 15.3181 12.7326 15.444 12.634 15.5953C12.5354 15.7465 12.4738 15.9189 12.4542 16.0983L12.3126 17.37C12.2984 17.4979 12.2451 17.6184 12.16 17.7149C12.0748 17.8114 11.9619 17.8792 11.8367 17.9092C10.6297 18.1969 9.37204 18.1969 8.16506 17.9092C8.03973 17.8794 7.92666 17.8116 7.84133 17.7151C7.75601 17.6186 7.70259 17.498 7.68839 17.37L7.54756 16.1C7.5271 15.9211 7.46498 15.7495 7.36617 15.5989C7.26737 15.4484 7.13463 15.3231 6.97864 15.2331C6.82264 15.1432 6.64772 15.0911 6.46793 15.081C6.28814 15.0709 6.10848 15.1031 5.94339 15.175L4.77172 15.6883C4.6531 15.7404 4.52122 15.7544 4.39432 15.7283C4.26742 15.7021 4.15178 15.6372 4.06339 15.5425C3.22016 14.6404 2.59248 13.5588 2.22756 12.3792C2.18914 12.2551 2.19032 12.1222 2.23094 11.9988C2.27157 11.8754 2.34961 11.7678 2.45422 11.6908L3.49006 10.9275C3.63576 10.8207 3.75426 10.6811 3.83593 10.5199C3.91761 10.3588 3.96017 10.1807 3.96017 10C3.96017 9.81934 3.91761 9.64122 3.83593 9.48008C3.75426 9.31894 3.63576 9.17931 3.49006 9.0725L2.45422 8.31083C2.34961 8.23387 2.27157 8.12623 2.23094 8.00287C2.19032 7.87951 2.18914 7.74656 2.22756 7.6225C2.59343 6.44386 3.22166 5.36346 4.06506 4.4625C4.15355 4.36791 4.26923 4.30315 4.39613 4.27718C4.52302 4.2512 4.65485 4.26529 4.77339 4.3175L5.94006 4.83C6.10591 4.90189 6.28631 4.93388 6.46676 4.92341C6.64722 4.91293 6.8227 4.86027 6.97912 4.76966C7.13553 4.67906 7.26851 4.55303 7.36738 4.4017C7.46625 4.25037 7.52824 4.07797 7.54839 3.89833L7.69006 2.62667C7.70436 2.49696 7.7589 2.37499 7.84602 2.27785C7.93315 2.1807 8.0485 2.11327 8.17589 2.085C8.77256 1.95278 9.38395 1.88278 10.0101 1.875ZM10.0101 3.125C9.63203 3.12902 9.25484 3.16161 8.88172 3.2225L8.79006 4.03667C8.74837 4.41109 8.6193 4.77048 8.41326 5.08587C8.20722 5.40127 7.92996 5.66385 7.60384 5.85245C7.27772 6.04106 6.91185 6.15041 6.53571 6.17169C6.15958 6.19298 5.78371 6.12561 5.43839 5.975L4.68922 5.64667C4.21301 6.22497 3.8339 6.87679 3.56672 7.57667L4.23089 8.06583C4.53461 8.28872 4.78159 8.57997 4.95185 8.91602C5.12212 9.25207 5.21088 9.62348 5.21096 10.0002C5.21104 10.3769 5.12244 10.7484 4.95232 11.0845C4.7822 11.4206 4.53534 11.712 4.23172 11.935L3.56589 12.425C3.83256 13.1267 4.21256 13.78 4.68922 14.36L5.44339 14.0292C5.78797 13.8787 6.16305 13.8113 6.53845 13.8323C6.91385 13.8533 7.27908 13.9621 7.60474 14.15C7.93039 14.3379 8.20738 14.5997 8.4134 14.9142C8.61942 15.2287 8.74872 15.5872 8.79089 15.9608L8.88172 16.7808C9.62339 16.9058 10.3809 16.9058 11.1217 16.7808L11.2134 15.9608C11.2547 15.5867 11.3835 15.2275 11.5893 14.9122C11.795 14.597 12.0721 14.3346 12.398 14.1463C12.724 13.9579 13.0896 13.8489 13.4655 13.8279C13.8414 13.807 14.2169 13.8748 14.5617 14.0258L15.3151 14.3558C15.7917 13.7771 16.1711 13.1247 16.4384 12.4242L15.7734 11.9342C15.4697 11.7113 15.2227 11.42 15.0524 11.084C14.8822 10.7479 14.7934 10.3765 14.7933 9.99979C14.7932 9.62307 14.8818 9.25162 15.052 8.9155C15.2221 8.57937 15.4689 8.28801 15.7726 8.065L16.4367 7.57583C16.1694 6.87561 15.79 6.22349 15.3134 5.645L14.5659 5.9725C14.2207 6.12362 13.8448 6.19145 13.4685 6.17051C13.0923 6.14957 12.7262 6.04044 12.3999 5.85195C12.0736 5.66345 11.7962 5.40086 11.5901 5.08538C11.384 4.7699 11.2549 4.41038 11.2134 4.03583L11.1226 3.2225C10.7549 3.16244 10.3825 3.12985 10.0101 3.125ZM10.0001 6.875C10.8289 6.875 11.6237 7.20424 12.2098 7.79029C12.7958 8.37634 13.1251 9.1712 13.1251 10C13.1251 10.8288 12.7958 11.6237 12.2098 12.2097C11.6237 12.7958 10.8289 13.125 10.0001 13.125C9.17126 13.125 8.3764 12.7958 7.79035 12.2097C7.2043 11.6237 6.87506 10.8288 6.87506 10C6.87506 9.1712 7.2043 8.37634 7.79035 7.79029C8.3764 7.20424 9.17126 6.875 10.0001 6.875ZM10.0001 8.125C9.50278 8.125 9.02586 8.32254 8.67423 8.67418C8.3226 9.02581 8.12506 9.50272 8.12506 10C8.12506 10.4973 8.3226 10.9742 8.67423 11.3258C9.02586 11.6775 9.50278 11.875 10.0001 11.875C10.4973 11.875 10.9743 11.6775 11.3259 11.3258C11.6775 10.9742 11.8751 10.4973 11.8751 10C11.8751 9.50272 11.6775 9.02581 11.3259 8.67418C10.9743 8.32254 10.4973 8.125 10.0001 8.125Z" fill="#BF9766"/>
</svg>
