<svg width="20" height="20" viewBox="0 0 20 20" fill="none" xmlns="http://www.w3.org/2000/svg">
<path d="M10.0099 1.875C10.6216 1.88167 11.2308 1.9525 11.8283 2.08583C11.9554 2.11421 12.0705 2.18159 12.1574 2.27855C12.2444 2.37552 12.2989 2.49722 12.3133 2.62667L12.4549 3.89917C12.4749 4.07857 12.5368 4.25077 12.6355 4.40192C12.7342 4.55307 12.867 4.67894 13.0232 4.76941C13.1794 4.85988 13.3546 4.91241 13.5349 4.92279C13.7151 4.93317 13.8952 4.9011 14.0608 4.82917L15.2274 4.31667C15.346 4.26446 15.4778 4.25037 15.6047 4.27634C15.7316 4.30232 15.8473 4.36708 15.9358 4.46167C16.7792 5.36263 17.4074 6.44303 17.7733 7.62167C17.8115 7.74562 17.8102 7.87839 17.7696 8.00157C17.729 8.12476 17.6511 8.23226 17.5466 8.30917L16.5124 9.0725C16.3667 9.17931 16.2482 9.31894 16.1666 9.48008C16.0849 9.64122 16.0423 9.81934 16.0423 10C16.0423 10.1807 16.0849 10.3588 16.1666 10.5199C16.2482 10.6811 16.3667 10.8207 16.5124 10.9275L17.5483 11.69C17.6529 11.767 17.7309 11.8746 17.7716 11.998C17.8122 12.1213 17.8134 12.2543 17.7749 12.3783C17.4093 13.5569 16.7814 14.6373 15.9383 15.5383C15.8499 15.6329 15.7344 15.6977 15.6077 15.7238C15.481 15.7499 15.3493 15.7361 15.2308 15.6842L14.0591 15.17C13.8938 15.0975 13.7137 15.065 13.5334 15.075C13.3532 15.085 13.1778 15.1373 13.0215 15.2277C12.8652 15.3181 12.7324 15.444 12.6339 15.5953C12.5353 15.7465 12.4737 15.9189 12.4541 16.0983L12.3124 17.37C12.2983 17.4979 12.245 17.6184 12.1598 17.7149C12.0747 17.8114 11.9618 17.8792 11.8366 17.9092C10.6296 18.1969 9.37191 18.1969 8.16494 17.9092C8.0396 17.8794 7.92654 17.8116 7.84121 17.7151C7.75589 17.6186 7.70247 17.498 7.68827 17.37L7.54744 16.1C7.52698 15.9211 7.46485 15.7495 7.36605 15.5989C7.26724 15.4484 7.13451 15.3231 6.97851 15.2331C6.82252 15.1432 6.6476 15.0911 6.4678 15.081C6.28801 15.0709 6.10836 15.1031 5.94327 15.175L4.7716 15.6883C4.65298 15.7404 4.5211 15.7544 4.3942 15.7283C4.2673 15.7021 4.15166 15.6372 4.06327 15.5425C3.22004 14.6404 2.59236 13.5588 2.22744 12.3792C2.18902 12.2551 2.1902 12.1222 2.23082 11.9988C2.27144 11.8754 2.34949 11.7678 2.4541 11.6908L3.48994 10.9275C3.63564 10.8207 3.75413 10.6811 3.83581 10.5199C3.91749 10.3588 3.96005 10.1807 3.96005 10C3.96005 9.81934 3.91749 9.64122 3.83581 9.48008C3.75413 9.31894 3.63564 9.17931 3.48994 9.0725L2.4541 8.31083C2.34949 8.23387 2.27144 8.12623 2.23082 8.00287C2.1902 7.87951 2.18902 7.74656 2.22744 7.6225C2.5933 6.44386 3.22154 5.36346 4.06494 4.4625C4.15342 4.36791 4.26911 4.30315 4.39601 4.27718C4.5229 4.2512 4.65473 4.26529 4.77327 4.3175L5.93994 4.83C6.10578 4.90189 6.28618 4.93388 6.46664 4.92341C6.6471 4.91293 6.82258 4.86027 6.979 4.76966C7.13541 4.67906 7.26839 4.55303 7.36726 4.4017C7.46613 4.25037 7.52812 4.07797 7.54827 3.89833L7.68994 2.62667C7.70424 2.49696 7.75877 2.37499 7.8459 2.27785C7.93303 2.1807 8.04838 2.11327 8.17577 2.085C8.77244 1.95278 9.38382 1.88278 10.0099 1.875ZM10.0099 3.125C9.63191 3.12902 9.25472 3.16161 8.8816 3.2225L8.78994 4.03667C8.74825 4.41109 8.61918 4.77048 8.41314 5.08587C8.2071 5.40127 7.92984 5.66385 7.60372 5.85245C7.27759 6.04106 6.91172 6.15041 6.53559 6.17169C6.15946 6.19298 5.78359 6.12561 5.43827 5.975L4.6891 5.64667C4.21289 6.22497 3.83378 6.87679 3.5666 7.57667L4.23077 8.06583C4.53448 8.28872 4.78147 8.57997 4.95173 8.91602C5.12199 9.25207 5.21076 9.62348 5.21084 10.0002C5.21092 10.3769 5.12232 10.7484 4.9522 11.0845C4.78208 11.4206 4.53522 11.712 4.2316 11.935L3.56577 12.425C3.83244 13.1267 4.21244 13.78 4.6891 14.36L5.44327 14.0292C5.78784 13.8787 6.16293 13.8113 6.53833 13.8323C6.91373 13.8533 7.27896 13.9621 7.60462 14.15C7.93027 14.3379 8.20726 14.5997 8.41328 14.9142C8.6193 15.2287 8.7486 15.5872 8.79077 15.9608L8.8816 16.7808C9.62327 16.9058 10.3808 16.9058 11.1216 16.7808L11.2133 15.9608C11.2546 15.5867 11.3833 15.2275 11.5891 14.9122C11.7949 14.597 12.072 14.3346 12.3979 14.1463C12.7239 13.9579 13.0895 13.8489 13.4654 13.8279C13.8413 13.807 14.2168 13.8748 14.5616 14.0258L15.3149 14.3558C15.7916 13.7771 16.171 13.1247 16.4383 12.4242L15.7733 11.9342C15.4696 11.7113 15.2226 11.42 15.0523 11.084C14.882 10.7479 14.7933 10.3765 14.7932 9.99979C14.7931 9.62307 14.8817 9.25162 15.0518 8.9155C15.222 8.57937 15.4688 8.28801 15.7724 8.065L16.4366 7.57583C16.1693 6.87561 15.7899 6.22349 15.3133 5.645L14.5658 5.9725C14.2206 6.12362 13.8447 6.19145 13.4684 6.17051C13.0921 6.14957 12.7261 6.04044 12.3998 5.85195C12.0735 5.66345 11.7961 5.40086 11.59 5.08538C11.3838 4.7699 11.2548 4.41038 11.2133 4.03583L11.1224 3.2225C10.7548 3.16244 10.3824 3.12985 10.0099 3.125ZM9.99994 6.875C10.8287 6.875 11.6236 7.20424 12.2096 7.79029C12.7957 8.37634 13.1249 9.1712 13.1249 10C13.1249 10.8288 12.7957 11.6237 12.2096 12.2097C11.6236 12.7958 10.8287 13.125 9.99994 13.125C9.17113 13.125 8.37628 12.7958 7.79023 12.2097C7.20418 11.6237 6.87494 10.8288 6.87494 10C6.87494 9.1712 7.20418 8.37634 7.79023 7.79029C8.37628 7.20424 9.17113 6.875 9.99994 6.875ZM9.99994 8.125C9.50266 8.125 9.02574 8.32254 8.67411 8.67418C8.32248 9.02581 8.12494 9.50272 8.12494 10C8.12494 10.4973 8.32248 10.9742 8.67411 11.3258C9.02574 11.6775 9.50266 11.875 9.99994 11.875C10.4972 11.875 10.9741 11.6775 11.3258 11.3258C11.6774 10.9742 11.8749 10.4973 11.8749 10C11.8749 9.50272 11.6774 9.02581 11.3258 8.67418C10.9741 8.32254 10.4972 8.125 9.99994 8.125Z" fill="#FBFBFB"/>
</svg>
