<svg width="30" height="30" viewBox="0 0 30 30" fill="none" xmlns="http://www.w3.org/2000/svg">
<path d="M11.5626 9.75183H5.5332C5.25274 9.75183 5.02539 9.97918 5.02539 10.2596V13.3077C5.02539 13.5881 5.25274 13.8155 5.5332 13.8155H11.5626C11.8431 13.8155 12.0704 13.5881 12.0704 13.3077V10.2596C12.0704 9.97923 11.8431 9.75183 11.5626 9.75183ZM11.0548 12.8H6.04101V10.7675H11.0548V12.8Z" fill="#868686"/>
<path d="M5.5332 14.562C5.25274 14.562 5.02539 14.7894 5.02539 15.0698V22.3241C5.02539 22.6045 5.25274 22.8319 5.5332 22.8319C5.81366 22.8319 6.04101 22.6045 6.04101 22.3241V15.0698C6.04101 14.7894 5.81366 14.562 5.5332 14.562Z" fill="#868686"/>
<path d="M8.54687 15.5776C8.26641 15.5776 8.03906 15.805 8.03906 16.0854V21.3085C8.03906 21.5889 8.26641 21.8163 8.54687 21.8163C8.82734 21.8163 9.05468 21.5889 9.05468 21.3085V16.0854C9.05468 15.805 8.82734 15.5776 8.54687 15.5776Z" fill="#868686"/>
<path d="M11.5625 14.562C11.282 14.562 11.0547 14.7894 11.0547 15.0698V22.3241C11.0547 22.6045 11.282 22.8319 11.5625 22.8319C11.843 22.8319 12.0703 22.6045 12.0703 22.3241V15.0698C12.0703 14.7894 11.843 14.562 11.5625 14.562Z" fill="#868686"/>
<path d="M25.301 14.7876H23.6583C23.6363 13.3633 22.4708 12.2114 21.0377 12.2114C19.6082 12.2114 18.4428 13.3633 18.4207 14.7876H16.778C16.142 14.7876 15.5566 15.0088 15.0948 15.3783V9.7678C15.0948 8.63107 14.1699 7.70624 13.0332 7.70624H11.9784V6.01615C12.754 5.95277 13.3657 5.30135 13.3657 4.50973C13.3657 3.67631 12.6877 2.99823 11.8542 2.99823H5.24049C4.40707 2.99823 3.72899 3.67631 3.72899 4.50973C3.72899 5.30135 4.34075 5.95277 5.11628 6.01615V7.70624H4.06156C2.92482 7.70624 2 8.63107 2 9.7678V23.0361C2 24.032 2.70982 24.8652 3.65008 25.0564C3.5963 25.2083 3.567 25.3718 3.567 25.5419C3.567 26.3468 4.22269 27.0017 5.02868 27.0017C5.83468 27.0017 6.49037 26.3468 6.49037 25.5419C6.49037 25.387 6.46609 25.2378 6.4212 25.0977H10.6736C10.6287 25.2378 10.6044 25.387 10.6044 25.5419C10.6044 26.3468 11.2601 27.0017 12.0661 27.0017C12.8721 27.0017 13.5278 26.3468 13.5278 25.5419C13.5278 25.3718 13.4985 25.2083 13.4447 25.0564C13.6889 25.0067 13.9177 24.9138 14.1225 24.7858C14.3508 26.0443 15.4547 27.0017 16.7781 27.0017H25.3011C26.7893 27.0017 28 25.7909 28 24.3028V17.4866C27.9999 15.9983 26.7892 14.7876 25.301 14.7876ZM21.0413 13.2271C21.9107 13.2271 22.6206 13.9234 22.6425 14.7877H19.4364C19.4584 13.9234 20.1682 13.2271 21.0413 13.2271ZM4.74466 4.50978C4.74466 4.23637 4.96709 4.0139 5.24054 4.0139H11.8542C12.1276 4.0139 12.35 4.23637 12.35 4.50978C12.35 4.78318 12.1276 5.00566 11.8542 5.00566H5.24049C4.96709 5.00566 4.74466 4.78318 4.74466 4.50978ZM6.13195 6.02128H10.9627V7.70629H6.13195V6.02128ZM5.47469 25.5419C5.47469 25.7868 5.27462 25.9861 5.02863 25.9861C4.78265 25.9861 4.58257 25.7868 4.58257 25.5419C4.58257 25.297 4.78265 25.0977 5.02863 25.0977C5.27462 25.0977 5.47469 25.297 5.47469 25.5419ZM12.066 25.9861C11.8201 25.9861 11.62 25.7868 11.62 25.5419C11.62 25.297 11.82 25.0977 12.066 25.0977C12.312 25.0977 12.5121 25.297 12.5121 25.5419C12.512 25.7868 12.312 25.9861 12.066 25.9861ZM13.0331 24.0821H4.06156C3.48484 24.0821 3.01562 23.6128 3.01562 23.0361V9.7678C3.01562 9.19108 3.48484 8.72186 4.06156 8.72186H13.0331C13.6098 8.72186 14.079 9.19103 14.079 9.7678V23.0361C14.079 23.6128 13.6098 24.0821 13.0331 24.0821ZM15.0947 24.3027V17.4866C15.0947 16.5584 15.8498 15.8033 16.7779 15.8033H17.5795V25.9861H16.7779C15.8498 25.9861 15.0947 25.2309 15.0947 24.3027ZM18.5951 25.9861V15.8032H23.4838V25.986H18.5951V25.9861ZM26.9843 24.3027C26.9843 25.2309 26.2292 25.986 25.301 25.986H24.4995V15.8032H25.301C26.2292 15.8032 26.9843 16.5583 26.9843 17.4865V24.3027Z" fill="#868686"/>
</svg>
