<svg width="30" height="30" viewBox="0 0 30 30" fill="none" xmlns="http://www.w3.org/2000/svg">
<path d="M12.5845 20.625H22.9683C23.2275 20.625 23.437 20.415 23.437 20.1562V12.6562C23.437 12.3975 23.2275 12.1875 22.9683 12.1875H7.03078C6.77156 12.1875 6.56203 12.3975 6.56203 12.6562V15.0572C6.31641 15.022 6.06844 15 5.81859 15C5.00625 15 4.1925 15.1922 3.46547 15.5555L2.92266 15.8269C2.16469 16.2061 1.31625 16.4062 0.46875 16.4062V17.3438C1.46062 17.3438 2.45438 17.1094 3.34219 16.6655L3.885 16.3941C5.35875 15.6581 7.23469 15.8573 8.51953 16.8848L11.2209 19.0458C11.5373 19.2994 11.7188 19.6767 11.7188 20.0813C11.7188 20.3442 11.6419 20.5988 11.4956 20.8172L11.1197 21.3811L7.29094 18.8287L6.77109 19.6088L10.9898 22.4213C11.0452 22.4583 11.1089 22.4836 11.1764 22.4944L19.0158 23.7323C19.4048 23.7933 19.687 24.1237 19.687 24.518C19.687 24.9558 19.3303 25.3125 18.892 25.3125H11.7183C10.5642 25.3125 9.40875 25.0397 8.37656 24.5236L5.68594 23.1783C4.79812 22.7344 3.80437 22.5 2.8125 22.5H0.46875V23.4375H2.8125C3.66 23.4375 4.50844 23.6377 5.26641 24.0169L7.95703 25.3622C9.11906 25.943 10.4194 26.25 11.7183 26.25H18.892C19.8473 26.25 20.6245 25.4728 20.6245 24.518C20.6245 23.6597 20.0095 22.9402 19.1625 22.8061L12.0459 21.6825L12.2756 21.3375C12.4219 21.1186 12.5222 20.8767 12.5845 20.625ZM20.6719 19.6875C20.8589 18.7706 21.5827 18.0469 22.4995 17.8598V19.6875H20.6719ZM22.4995 14.9527C21.5827 14.7656 20.8589 14.0419 20.6719 13.125H22.4995V14.9527ZM9.32719 13.125C9.14016 14.0419 8.41641 14.7656 7.49953 14.9527V13.125H9.32719ZM11.8064 18.3136L10.0083 16.875H11.7183V15.9375H9.84328V16.7433L9.10547 16.1531C8.87063 15.9652 8.61984 15.7987 8.35781 15.6548C9.36984 15.2048 10.1114 14.258 10.2745 13.1255H19.7245C19.9313 14.5594 21.0656 15.6938 22.4995 15.9005V16.913C21.0656 17.1197 19.9313 18.2541 19.7245 19.688H12.6187C12.5241 19.1498 12.2419 18.6623 11.8064 18.3136Z" fill="#868686"/>
<path d="M15 18.75C16.2923 18.75 17.3438 17.6986 17.3438 16.4062C17.3438 15.1139 16.2923 14.0625 15 14.0625C13.7077 14.0625 12.6562 15.1139 12.6562 16.4062C12.6562 17.6986 13.7077 18.75 15 18.75ZM15 15C15.7753 15 16.4062 15.6309 16.4062 16.4062C16.4062 17.1816 15.7753 17.8125 15 17.8125C14.2247 17.8125 13.5938 17.1816 13.5938 16.4062C13.5938 15.6309 14.2247 15 15 15Z" fill="#868686"/>
<path d="M18.2812 15.9375H20.1562V16.875H18.2812V15.9375Z" fill="#868686"/>
<path d="M18.2812 5.15623H16.4062V4.21873C16.4062 4.05608 16.3219 3.90561 16.1836 3.81983C16.0453 3.73405 15.8728 3.72655 15.7275 3.7992L10.1025 6.6117C9.94406 6.69139 9.84375 6.85358 9.84375 7.03123C9.84375 7.20889 9.94406 7.37108 10.103 7.45077L15.728 10.2633C15.8738 10.3355 16.0463 10.328 16.1841 10.2426C16.3219 10.1569 16.4062 10.0064 16.4062 9.84374V8.90624H18.2812C22.4166 8.90624 25.7812 12.2709 25.7812 16.4062C25.7812 16.665 25.9908 16.875 26.25 16.875H29.0625C29.3217 16.875 29.5312 16.665 29.5312 16.4062C29.5312 10.2033 24.4842 5.15623 18.2812 5.15623ZM26.7061 15.9375C26.4619 11.5022 22.7766 7.96874 18.2812 7.96874H15.9375C15.6783 7.96874 15.4688 8.17873 15.4688 8.43749V9.0853L11.3606 7.03123L15.4688 4.97717V5.62498C15.4688 5.88373 15.6783 6.09373 15.9375 6.09373H18.2812C23.8106 6.09373 28.3369 10.4681 28.5834 15.9375H26.7061Z" fill="#868686"/>
</svg>
