<svg width="40" height="40" viewBox="0 0 40 40" fill="none" xmlns="http://www.w3.org/2000/svg">
<path d="M20.1833 8.23405C22.1354 8.23405 23.5197 7.71485 24.3374 7.27933C24.9263 6.96557 25.315 6.64853 25.5107 6.46981V2.20981C25.4192 1.51293 24.8203 0.969971 24.0995 0.969971H16.3208C15.5776 0.969971 14.9637 1.54693 14.9023 2.27493V6.47389C15.0923 6.65093 15.4738 6.96797 16.0563 7.28173C16.8629 7.71621 18.2335 8.23405 20.1833 8.23405Z" fill="white"/>
<path d="M13.7225 17.8333C14.9821 20.9252 17.1504 22.5595 19.9925 22.5595C22.8346 22.5595 25.0029 20.9252 26.2626 17.8333C26.5381 17.157 26.7537 16.456 26.9224 15.7606C27.771 12.9035 28.0848 8.72063 26.7088 6.79894C26.6933 6.91494 26.6446 7.02463 26.567 7.11375C26.4845 7.20855 24.4959 9.43399 20.1873 9.43399C15.8744 9.43399 13.9297 7.20302 13.849 7.10806C13.7569 6.99958 13.7063 6.8619 13.7063 6.71966V6.33167C13.5464 6.52175 13.4042 6.71951 13.2832 6.92399C11.8233 9.39047 12.3961 12.6797 12.7306 14.0435C12.9115 15.2644 13.2162 16.5907 13.7225 17.8333ZM22.5554 10.4117C23.5297 10.7662 24.7199 12.8221 25.5531 14.4993C25.3853 15.4041 25.1398 16.3483 24.7809 17.2296C23.7584 19.7394 22.1921 20.9595 19.9925 20.9595C17.793 20.9595 16.2267 19.7394 15.2042 17.2296C14.7297 16.0648 14.4529 14.7897 14.2927 13.642C18.8426 14.1777 22.5554 10.4117 22.5554 10.4117Z" fill="white"/>
<path d="M15.3954 22.3511C15.1514 22.1771 14.8307 22.154 14.5645 22.2912C14.2982 22.4283 14.1309 22.7029 14.1309 23.0024V24.8508C15.4106 25.8454 17.3989 27.1354 19.3521 27.3801C19.3457 27.3449 19.3419 27.3087 19.3419 27.2716V23.9841C17.3632 23.7328 15.4161 22.3657 15.3954 22.3511Z" fill="white"/>
<path d="M25.1213 22.2856C24.8487 22.1506 24.5225 22.1825 24.2806 22.3673C24.2609 22.3823 22.4733 23.7318 20.5393 23.9835V27.2716C20.5393 27.3127 20.5352 27.3528 20.5273 27.3915C22.3553 27.1983 24.2584 26.081 25.599 25.1161C25.5792 25.0702 25.5672 25.0204 25.5672 24.968V23.0024C25.5671 22.6981 25.3941 22.4205 25.1213 22.2856Z" fill="white"/>
<path d="M37.8937 37.9932L36.6599 32.1903C36.37 30.3256 35.0939 28.7604 33.3244 28.1016L26.8496 25.6909C25.2679 26.9066 22.579 28.6212 19.9955 28.6212C17.332 28.6212 14.6301 26.8016 13.116 25.58L6.34628 28.1014C4.57692 28.7604 3.30099 30.3256 3.01123 32.19L1.77731 37.9932C1.72699 38.2293 1.78619 38.4755 1.93811 38.6631C2.09003 38.8507 2.31843 38.9596 2.55979 38.9596H37.1112C37.3527 38.9596 37.5811 38.8507 37.7329 38.6631C37.8848 38.4755 37.9439 38.2293 37.8937 37.9932ZM20.2172 37.5384C19.6057 37.5384 19.1103 37.0429 19.1103 36.4316C19.1103 35.8202 19.6057 35.3247 20.2172 35.3247C20.8284 35.3247 21.324 35.8202 21.324 36.4316C21.324 37.0429 20.8284 37.5384 20.2172 37.5384ZM20.2172 32.7947C19.6057 32.7947 19.1103 32.2992 19.1103 31.6879C19.1103 31.0765 19.6057 30.581 20.2172 30.581C20.8284 30.581 21.324 31.0765 21.324 31.6879C21.324 32.2991 20.8284 32.7947 20.2172 32.7947ZM32.628 35.5321C32.628 35.7705 32.433 35.9656 32.1946 35.9656H26.9108C26.6725 35.9656 26.4774 35.7705 26.4774 35.5321V34.7954C26.4774 34.557 26.6724 34.362 26.9108 34.362H32.1946C32.433 34.362 32.628 34.557 32.628 34.7954V35.5321Z" fill="white"/>
</svg>
