<svg width="17" height="16" viewBox="0 0 17 16" fill="none" xmlns="http://www.w3.org/2000/svg">
<g clip-path="url(#clip0_2667_5436)">
<path d="M2.93981 1.888H3.41981L3.80381 2.016L4.09181 2.208L4.34781 2.464L4.53981 2.816L4.60381 3.04L4.63581 3.584L4.89181 3.392L5.14781 3.264L5.40381 3.2H5.81981L6.20381 3.296L6.61981 3.584L6.87581 3.904L7.00381 4.16L7.06781 4.48V4.8L7.00381 5.12V5.376L7.29181 5.856L7.38781 6.112V6.208H7.45181L7.51581 6.08L7.67581 5.792L7.70781 5.728H7.77181L7.83581 5.568L7.96381 5.376L8.69981 4.288L8.82781 4.16L9.01981 4.128L9.14781 4.192L9.97981 5.44L10.2038 5.728L10.3318 5.984L10.6518 6.432L10.9398 6.848L11.3878 7.52V7.744L11.2278 7.904H11.0038L10.8438 7.744L10.3638 7.04L10.2038 6.752L9.91581 6.368L9.08381 5.12L8.98781 4.96H8.92381L8.69981 5.312L7.83581 6.592L7.57981 6.944L7.48381 7.136L6.93981 7.936L6.68381 8.288L6.20381 9.024L5.56381 9.984L5.14781 10.592L4.92381 10.912L4.76381 11.2L4.28381 11.904L4.02781 12.256L3.57981 12.928L3.35581 13.28L2.97181 13.856L2.93981 15.488L6.20381 15.456L5.88381 15.168L5.53181 14.88L5.21181 14.592L5.14781 14.464L5.17981 14.272L5.56381 13.856L5.85181 13.568L5.97981 13.408L6.23581 13.184L6.65181 12.704L7.06781 12.288L7.25981 12.064L7.51581 11.84L7.77181 11.52L8.25181 11.04L8.47581 10.784L8.66781 10.624L8.69981 7.456L8.85981 7.296H9.05181L9.21181 7.456L9.24381 10.624L9.62781 10.976L9.91581 11.296L10.2038 11.584L10.4598 11.904L10.8758 12.288L11.0998 12.544L11.4198 12.864L11.6758 13.184L11.9958 13.472L12.2198 13.728L12.6038 14.112L12.7318 14.272L12.7638 14.464L12.6358 14.656L12.1878 15.04L11.8358 15.36L11.7078 15.456L14.9718 15.488L14.9398 13.856L14.4278 13.088L14.3318 12.928L14.0118 12.448L13.6598 11.936L13.3398 11.488L13.0198 11.008L12.8918 10.752L12.6038 10.368L12.2838 9.888L11.7398 9.088L11.6438 8.928L11.4838 8.672V8.384L11.5798 8.288L11.7718 8.256L11.9318 8.352L12.4438 9.088L12.7638 9.568L12.8918 9.728L13.0198 9.984L13.4998 10.688L13.7558 11.04L14.2038 11.712L14.3638 12L14.4278 12.064L14.4598 10.176L14.1398 10.112L13.8198 9.984L13.4678 9.728L13.2438 9.504L13.0198 9.152L12.8918 8.736L12.8598 8.544V8.064L12.9558 7.648L13.1158 7.264L13.1798 7.136V6.304L13.2758 5.984L13.4358 5.696L13.5318 5.536V5.28L13.4998 5.152V4.704L13.5958 4.384L13.7878 4.096L14.1078 3.84L14.3958 3.712L14.5878 3.68H14.9078L15.3238 3.808L15.5798 4L15.8038 4.256L15.9638 4.64V5.216L15.9318 5.504L16.0918 5.792L16.2198 6.048L16.2838 6.24L16.3158 6.464V6.752L16.2838 7.104L16.5398 7.648L16.6358 8.032V8.576L16.5398 8.96L16.3478 9.344L15.9958 9.728L15.7078 9.952L15.3878 10.112L15.1318 10.176H15.0038L15.0358 12.96L15.3878 13.472L15.9318 13.504V13.28L15.7078 13.248L15.6438 13.12L15.6758 12.832L15.8038 12.768H16.6358L16.7958 12.896V13.152L16.6358 13.28H16.4758V13.504H16.7958L16.9558 13.632V13.92L16.8598 14.048H16.4758V15.872L16.4438 15.936L16.3478 15.968H16.0598L15.9638 15.872L15.9318 15.744V14.048H15.5158V15.84L15.3878 15.968H2.52381L2.39581 15.84V14.048H1.97981V15.776L1.91581 15.936L1.85181 15.968H1.56381L1.46781 15.936L1.43581 15.872V14.048H1.05181L0.955811 13.92V13.632L1.11581 13.504H1.43581V13.28L1.21181 13.248L1.11581 13.152V12.896L1.27581 12.768H2.10781L2.23581 12.896L2.26781 13.12L2.20381 13.248L1.97981 13.28V13.504L2.52381 13.472L2.55581 13.408H2.61981L2.68381 13.248L2.87581 12.96L2.90781 9.568L2.52381 9.504L2.13981 9.344L1.85181 9.184L1.53181 8.896L1.33981 8.672L1.11581 8.288L1.01981 8L0.987811 7.776V6.976L1.05181 6.624L1.30781 6.112L1.37181 5.952V5.44L1.49981 5.344H1.75581L1.88381 5.44L1.94781 5.696V6.048L1.85181 6.368L1.59581 6.816L1.53181 7.072V7.68L1.62781 8L1.85181 8.384L2.23581 8.768L2.65181 8.96L2.87581 9.024V7.232L2.36381 6.72L2.20381 6.56L2.10781 6.432V6.176L2.23581 6.048H2.45981L2.71581 6.272L2.87581 6.432L2.90781 5.408L3.03581 5.312H3.29181L3.41981 5.408L3.45181 5.504L3.48381 7.296L3.67581 7.072L3.89981 6.88H4.12381L4.28381 7.04V7.264L4.05981 7.52L3.64381 7.936L3.48381 8.096L3.45181 9.024L3.77181 8.928L4.12381 8.736L4.44381 8.448L4.73181 8L4.82781 7.616V7.104L4.69981 6.688L4.47581 6.304L4.41181 6.08V5.664L4.44381 5.472V5.216L4.31581 4.8L4.05981 4.384L3.96381 4.032V3.808L4.02781 3.52V3.136L3.89981 2.816L3.61181 2.56L3.35581 2.464H3.00381L2.68381 2.592L2.49181 2.72L2.29981 3.104L2.26781 3.36L2.33181 3.648V4.192L2.17181 4.576L2.01181 4.768L1.78781 4.8L1.62781 4.704L1.59581 4.64V4.384L1.78781 4.064V3.776L1.72381 3.296L1.78781 2.88L1.97981 2.496L2.20381 2.24L2.45981 2.048L2.77981 1.92L2.93981 1.888ZM5.46781 3.744L5.14781 3.872L4.95581 4L4.85981 4.16L4.76381 4.352L4.79581 4.512L4.85981 4.64L4.95581 5.152V5.536L4.92381 5.728V6.016L5.21181 6.56L5.30781 6.848L5.33981 7.04V7.712L5.24381 8.096L4.98781 8.608L4.79581 8.896L4.63581 9.056L4.41181 9.216L4.09181 9.376L4.25181 9.664L4.53981 9.984L4.79581 10.144L5.01981 9.824V9.728H5.08381L5.27581 9.408L5.33981 9.344L5.37181 8.384L5.46781 8.224L5.53181 8.192H5.72381L5.85181 8.288L5.88381 8.48L6.01181 8.352L6.23581 8.032L6.36381 7.84L6.52381 7.552L6.87581 7.04L6.90781 6.88V6.464L6.81181 6.144L6.52381 5.664L6.45981 5.44V5.024L6.52381 4.768V4.512L6.39581 4.16L6.26781 3.968L5.88381 3.776L5.75581 3.744H5.46781ZM14.6518 4.192L14.3638 4.288L14.2038 4.416L14.0438 4.768V5.056L14.0758 5.184V5.664L13.8838 6.048L13.7238 6.368L13.6918 6.624L13.7238 6.848V7.232L13.5958 7.552L13.4038 7.968L13.3718 8.128V8.48L13.4998 8.896L13.7238 9.216L13.9798 9.44L14.3318 9.6L14.4598 9.632V8.192L14.2358 7.936L13.9798 7.712L13.9158 7.584V7.392L14.0438 7.264H14.2678L14.4598 7.424L14.4918 6.688L14.6198 6.56H14.8438L14.9718 6.688L15.0038 8.16L15.2278 7.968L15.3238 7.904H15.5798L15.6758 8.032L15.6438 8.256L15.2598 8.672L15.0038 8.928V9.632L15.3238 9.536L15.6118 9.376L15.8998 9.024L16.0278 8.768L16.0918 8.512V8.064L15.9958 7.744L15.8038 7.424L15.7398 7.2V6.912L15.7718 6.752V6.496L15.6758 6.112L15.4838 5.824L15.4198 5.632V5.216L15.4518 5.088V4.768L15.2918 4.448L15.0358 4.256L14.8438 4.192H14.6518ZM3.54781 9.536L3.45181 9.568V12.096L3.61181 11.936L3.80381 11.616L4.41181 10.72L4.47581 10.592L4.05981 10.272L3.73981 9.856L3.57981 9.536H3.54781ZM8.95581 11.424L8.82781 11.712L8.41181 12.768L8.02781 13.696L7.67581 14.56L7.51581 15.008L7.35581 15.424V15.488H10.5558L10.4598 15.168L10.2358 14.56L9.88381 13.696L9.37181 12.448L9.08381 11.744L8.98781 11.424H8.95581ZM8.12381 11.936L7.67581 12.416L7.38781 12.736L7.16381 12.992L6.93981 13.216L6.77981 13.376L6.23581 13.92L6.10781 14.112L5.85181 14.368L5.91581 14.496L6.39581 14.912L6.71581 15.2L6.84381 15.264L7.06781 14.72L7.22781 14.336L7.67581 13.248L7.86781 12.704L8.12381 12.064L8.15581 11.936H8.12381ZM9.75581 11.936L9.85181 12.224L10.1718 13.024L10.2678 13.344L10.7158 14.432L11.0678 15.264L11.2598 15.136L11.6438 14.784L11.9958 14.496L12.0598 14.368L11.7718 14.08L11.5798 13.824L11.1318 13.376L10.9718 13.216L10.6198 12.864L10.3318 12.512L9.97981 12.16L9.78781 11.936H9.75581Z" fill="#333333"/>
<path d="M11.0359 0.0319824H11.8039L12.1559 0.0959824L12.6679 0.351982L12.9879 0.639982L13.2119 0.895982L13.4679 1.34398L13.5959 1.75998L13.6279 1.95198V2.49598L13.4999 3.00798L13.3079 3.39198L13.0839 3.67998L12.9239 3.87198L12.6039 4.09598L12.2199 4.28798L11.7399 4.41598H11.0679L10.5879 4.28798L10.3319 4.15998L9.94793 3.90398L9.65993 3.61598L9.43593 3.26398L9.27593 2.87998L9.17993 2.43198V2.01598L9.21193 1.79198L9.33993 1.66398L9.53193 1.63198L9.69193 1.72798L9.75593 1.82398V2.36798L9.85193 2.75198L10.0759 3.19998L10.3639 3.51998L10.6839 3.71198L11.0039 3.83998L11.1639 3.87198H11.6759L12.1559 3.71198L12.4759 3.48798L12.6359 3.32798L12.8279 3.10398L12.9879 2.78398L13.0519 2.43198V2.01598L12.9879 1.63198L12.8279 1.31198L12.5079 0.959982L12.1559 0.735982L11.8359 0.607982L11.7079 0.575982H11.0999L10.7159 0.703982L10.3959 0.895982L10.0759 1.18398L10.0439 1.21598L9.78793 1.18398L9.69193 1.05598V0.799982L9.91593 0.543982L10.3319 0.255982L10.7479 0.0639824L11.0359 0.0319824Z" fill="#333333"/>
</g>
<defs>
<clipPath id="clip0_2667_5436">
<rect width="16" height="16" fill="white" transform="translate(0.955811)"/>
</clipPath>
</defs>
</svg>
