<svg width="17" height="16" viewBox="0 0 17 16" fill="none" xmlns="http://www.w3.org/2000/svg">
<g clip-path="url(#clip0_2667_5451)">
<path d="M4.18777 1.37598H4.53977L4.89177 1.40798L5.30777 1.56798L5.56377 1.75998L5.75577 1.98398L5.88377 2.27198L5.91577 2.43198V2.75198L5.88377 2.84798L6.17177 2.94398L6.68377 3.19998L7.38777 3.55198L7.89977 3.80798L8.21977 4.06398L8.37977 4.31998L8.47577 4.60798V4.89598L9.30777 4.44798L9.62777 4.28798L9.75577 4.25598H10.2038L10.5878 4.41598L10.8438 4.63998L11.0038 4.92798L11.0678 5.11998V5.59998L10.9078 5.98398L10.7478 6.14398L10.7798 6.30398L11.2598 7.26398L11.5478 7.87198L11.6758 8.19198L12.1238 9.11998L12.4758 9.85598L12.8918 10.72L13.1158 11.232L13.2438 11.456L13.9478 11.232L14.1078 11.136L14.2358 10.88L14.3958 10.464L14.6838 10.208L15.4198 9.82398L15.8678 9.56798L16.0278 9.47198H16.3158L16.4438 9.63198V9.82398L16.3798 9.95198L15.5478 10.4L15.2278 10.592L15.0038 10.688L14.8438 10.848L14.6838 11.296L14.4598 11.584L14.1718 11.776L13.6918 11.936L13.1798 12.064L12.9878 12.16L12.9238 12.256L12.8278 13.024L12.6998 13.312L12.4758 13.568L12.3158 13.696L11.9638 13.824L10.8438 14.112L10.5878 14.304L10.2998 14.592L10.1398 14.752L9.46777 15.424L9.21177 15.648L8.85977 16H8.57177L8.44377 15.904V15.648L8.66777 15.392L9.33977 14.72L9.59577 14.496L10.0438 14.048L9.85177 13.824L9.53177 13.248L9.14777 12.576L9.01977 12.352L8.92377 12.128L8.85977 11.936H8.79577L8.34777 11.104L8.15577 10.816L7.83577 10.656L7.03577 10.496L6.65177 10.4L6.68377 10.528V10.912L6.58777 11.36L6.36377 11.808L6.23577 12L6.01177 12.448L5.53177 13.248L5.08377 14.016L4.95577 14.24L4.92377 14.656L4.89177 15.52L4.76377 15.776L4.63577 15.936L4.44377 16H3.99577L3.61177 15.84L2.71577 15.392L2.20377 15.104L1.97977 14.848L1.88377 14.592V14.336L1.97977 14.08L2.23577 13.664L2.61977 12.992L3.16377 12.096L3.48377 11.584L3.64377 11.328L3.73977 11.104L3.77177 11.072V10.688L3.67577 10.4V10.208L3.80377 10.048L3.99577 10.016L4.18777 10.112L4.34777 10.592L4.37977 10.912L4.31577 11.264L4.02777 11.808L3.80377 12.16L3.57977 12.544L3.32377 13.056V13.12L3.77177 13.376L4.09177 13.504L4.50777 13.728H4.60377L4.82777 13.344L4.98777 13.088L5.08377 12.864L5.53177 12.096L5.97977 11.328L6.10777 11.008L6.13977 10.848V10.592L5.75577 8.92798L5.65977 8.51198V8.38398L5.37177 8.28798L4.63577 7.96798L4.18777 7.80798L3.67577 7.58398L3.61177 7.80798V8.06398L3.73977 8.57598L3.89977 9.11998V9.34398L3.73977 9.50398H3.54777L3.38777 9.34398L3.09977 8.38398L3.06777 8.15998V7.74398L3.16377 7.29598L3.25977 7.03998H2.90777L2.55577 6.91198L2.29977 6.71998L2.01177 6.49598L1.75577 6.14398L1.56377 5.72798L1.46777 5.27998V4.79998L1.56377 4.35198L1.91577 3.61598L2.23577 3.00798L2.36377 2.94398L2.55577 2.97598L2.68377 3.13598L2.65177 3.39198L2.39577 3.93598L2.23577 4.22398L2.07577 4.70398L2.04377 4.89598V5.21598L2.10777 5.50398L2.26777 5.88798L2.52377 6.20798L2.90777 6.46398L3.00377 6.49598H3.32377L3.57977 6.33598L3.67577 6.17598L4.02777 5.43998L4.28377 4.92798L4.69977 4.06398L4.98777 3.51998L5.14777 3.10398L5.33977 2.68798L5.30777 2.39998L5.17977 2.20798L4.89177 2.01598L4.44377 1.91998L4.02777 1.95198L3.57977 2.11198L3.16377 2.46398L3.03577 2.52798L2.84377 2.49598L2.71577 2.36798V2.11198L2.90777 1.88798L3.32377 1.59998L3.70777 1.43998L3.80377 1.40798L4.18777 1.37598ZM5.94777 3.61598L5.69177 3.77598L5.56377 3.96798L5.53177 4.22398L5.65977 4.54398L6.04377 5.24798L6.20377 5.56798L6.71577 5.31198L7.16377 5.05598L7.13177 4.89598L6.58777 3.87198L6.42777 3.71198L6.26777 3.61598H5.94777ZM7.35577 4.15998L7.41977 4.28798L7.61177 4.73598L7.83577 5.15198H7.89977L7.93177 5.05598V4.73598L7.80377 4.44798L7.67577 4.28798L7.41977 4.15998H7.35577ZM5.05177 4.57598L4.79577 5.11998L4.44377 5.85598L4.09177 6.59198L3.86777 7.03998L4.21977 7.19998L4.98777 7.48798L6.13977 7.93598L6.49177 8.06398L6.77977 7.45598V7.39198L6.52377 7.16798L6.39577 7.03998L6.17177 6.59198L5.78777 5.88798L5.46777 5.27998L5.08377 4.57598H5.05177ZM9.85177 4.79998L9.33977 5.05598L9.05177 5.21598L8.82777 5.31198L8.02777 5.72798H7.73977L7.57977 5.63198H7.51577L7.45177 5.50398L7.00377 5.72798L6.45977 6.04798L6.71577 6.55998L6.81177 6.71998H6.87577L6.93977 6.84798L7.25977 7.03998L7.48377 7.10398H7.77177L8.09177 6.97598L8.50777 6.75198L8.82777 6.62398L9.27577 6.36798L10.0118 5.98398L10.3318 5.79198L10.4918 5.59998L10.5238 5.50398V5.21598L10.3638 4.92798L10.1078 4.79998H9.85177ZM10.2038 6.46398L9.69177 6.71998L8.89177 7.13598L8.63577 7.29598L8.09177 7.55198L7.83577 7.61598H7.29177L7.03577 8.15998L8.34777 8.44798L9.05177 8.60798L9.43577 8.76798L9.72377 8.99198L9.81977 9.02398L9.88377 9.15198L10.1718 9.53598L10.4918 10.048L10.9398 10.72H11.0038L11.0678 10.88L11.5158 11.552L11.7398 11.904L11.8678 12.064H11.9318L11.9958 12.192L12.2838 12.576H12.3158L12.4118 12.096L12.6038 11.808L12.7318 11.68L12.3158 10.784L12.0598 10.272L11.7078 9.53598L11.6118 9.27998L11.3558 8.76798L10.8438 7.71198L10.4278 6.84798L10.3318 6.59198L10.2678 6.46398H10.2038ZM6.23577 8.54398L6.26777 8.79998L6.49177 9.75998L6.58777 9.82398L8.09177 10.176L8.41177 10.336L8.60377 10.496L8.85977 10.88L9.05177 11.232L9.56377 12.064H9.81977L10.9718 11.776L10.9398 11.648L10.3958 10.848L10.2678 10.592H10.2038L10.1398 10.432L9.53177 9.53598L9.24377 9.24798L8.82777 9.08798L7.19577 8.73598L6.33177 8.54398H6.23577ZM11.2278 12.224L9.94777 12.544L9.88377 12.576L9.94777 12.768L10.1718 13.248L10.2678 13.472L10.3958 13.6L10.7158 13.568L11.2278 13.44L11.6118 13.376L11.9318 13.28L11.9958 13.216L11.9638 13.056L11.6758 12.64L11.3558 12.224H11.2278ZM2.97177 13.568L2.65177 14.048L2.39577 14.464L2.45977 14.624L2.58777 14.72L2.90777 14.848L3.54777 15.168L4.15577 15.488L4.31577 15.456L4.34777 15.392L4.41177 14.56V14.304L3.67577 13.92L3.06777 13.6L2.97177 13.568Z" fill="#333333"/>
<path d="M7.73993 0H8.31593L8.63593 0.096L9.01993 0.288L9.33993 0.576L9.53193 0.896L9.62793 1.28V1.536L9.53193 1.92L9.27593 2.432L9.14793 2.624L8.82793 2.944L8.50793 3.104L8.25193 3.168H7.70793L7.35593 3.04L7.03593 2.848L6.84393 2.656V2.592H6.77993L6.58793 2.208L6.52393 1.92V1.504L6.65193 1.088L6.97193 0.48L7.25993 0.192L7.48393 0.064L7.73993 0ZM7.83593 0.512L7.57993 0.64L7.32393 0.992L7.09993 1.472L7.06793 1.6V1.856L7.19593 2.208L7.41993 2.464L7.61193 2.592L7.80393 2.656H8.15593L8.47593 2.528L8.73193 2.304L9.01993 1.76L9.08393 1.472L9.05193 1.184L8.95593 0.96L8.69993 0.736L8.21993 0.512H7.83593Z" fill="#333333"/>
</g>
<defs>
<clipPath id="clip0_2667_5451">
<rect width="16" height="16" fill="white" transform="translate(0.955811)"/>
</clipPath>
</defs>
</svg>
