<svg width="16" height="16" viewBox="0 0 16 16" fill="none" xmlns="http://www.w3.org/2000/svg">
<g clip-path="url(#clip0_2667_4144)">
<path d="M5.31198 0H5.56798L5.72798 0.128L6.04798 0.544L6.43198 1.088L6.75198 1.632L7.07198 2.208L7.45598 2.976L7.80798 3.872L7.93598 4.224L8.03198 4.608L8.31998 5.664L8.51198 6.656L8.63998 7.616L8.70398 8.416V10.304L8.60798 11.392L8.44798 12.416L8.25598 13.28L7.99998 14.208L7.80798 14.848L7.39198 15.872L7.26398 16H6.97598L6.65598 15.744L6.14398 15.264L5.43998 14.56L5.27998 14.688L5.05598 14.944L4.63998 15.36L4.38398 15.584L3.99998 15.936L3.90398 16H3.61598L3.45598 15.84L3.10398 14.976L2.84798 14.24L2.71998 13.824L2.62398 13.344L2.43198 12.512L2.27198 11.52L2.17598 10.592L2.14398 9.984V8.736L2.20798 7.744L2.33598 6.72L2.52798 5.728L2.68798 5.088L2.75198 4.768L3.10398 3.712L3.45598 2.88L3.64798 2.496L3.74398 2.432H3.99998L4.12798 2.592L4.09598 2.816L3.93598 3.232L3.77598 3.584L3.61598 4.032L3.29598 4.992L3.10398 5.696L2.87998 6.816L2.75198 7.872L2.68798 8.864V9.824L2.75198 10.848L2.87998 11.872L3.10398 12.992L3.35998 13.92L3.67998 14.848L3.83998 15.232H3.90398L4.15998 15.008L4.31998 14.848L4.79998 14.4L5.15198 14.016L5.31198 13.856H5.53598L5.75998 14.048L5.98398 14.304L6.75198 15.072L7.00798 15.264L7.35998 14.368L7.67998 13.312L7.90398 12.288L8.03198 11.52L8.12798 10.208V8.512L8.03198 7.168L7.83998 6.08L7.58398 5.056L7.23198 3.968L7.07198 3.584L6.71998 2.784L6.62398 2.56L6.27198 1.92L5.88798 1.312L5.63198 0.992L5.40798 0.704L4.83198 1.536L4.54398 2.016L4.41598 2.208L4.25598 2.272L4.06398 2.24L3.96798 2.08V1.888L4.22398 1.408L4.60798 0.832L4.99198 0.32L5.24798 0.032L5.31198 0Z" fill="#333333"/>
<path d="M10.08 3.36H11.456L12.096 3.456L12.768 3.616L13.28 3.808L13.984 4.128L14.4 4.416L14.72 4.704L15.072 5.056L15.296 5.344V5.408H15.36L15.68 5.952L15.872 6.464L15.936 6.72L15.968 7.04V8L15.904 8.512L15.744 9.056L15.488 9.568L15.2 9.888L14.944 10.016L14.816 10.048H14.4L14.048 9.92L13.76 9.696L13.568 9.376L13.536 9.152H13.088L12.736 9.056L12.448 8.896L12.224 8.672L12.064 8.352L11.712 8.448H11.2L10.848 8.32L10.592 8.096L10.528 7.968L10.56 7.776L10.72 7.648L10.944 7.68L11.2 7.872L11.328 7.904H11.584L11.968 7.776L12.192 7.648L12.416 7.68L12.512 7.808L12.64 8.224L12.832 8.448L13.024 8.544L13.184 8.576H13.504L13.792 8.512H14.112L14.24 8.672V8.864L14.112 9.056L14.144 9.248L14.304 9.408L14.464 9.472H14.72L14.88 9.44L14.752 8.96L14.624 8.576L14.336 8.064L14.272 7.936L14.144 7.872L13.92 7.616L13.472 7.264L13.216 7.104L12.704 6.912L12.288 6.816L11.936 6.784L11.36 6.848L10.944 6.976L10.592 7.168L10.24 7.456L9.98398 7.776L9.79198 8.096L9.63198 8.576L9.53598 9.088V9.728L9.63198 10.24L9.82398 10.752L10.08 11.232L10.4 11.648L10.464 11.744V11.936L10.336 12.096H10.048L9.75998 11.808L9.43998 11.296L9.18398 10.656L9.05598 10.208L8.99198 9.792V8.992L9.08798 8.448L9.24798 7.968L9.43998 7.52L9.75998 7.104L10.112 6.784L10.784 6.432L11.2 6.304L11.712 6.24H12.064L12.576 6.304L13.056 6.432L13.76 6.752L14.144 7.04L14.464 7.328L14.592 7.488L14.944 8L15.136 8.352L15.264 8.608L15.392 8.096L15.424 7.904V7.136L15.328 6.656L15.104 6.112L14.816 5.664L14.528 5.28L14.176 4.992L13.792 4.704L13.248 4.384L12.64 4.16L12.032 4L11.84 3.968L11.296 3.936H10.336L9.72798 3.968L9.08798 4.096L8.41598 4.288H8.09598L7.99998 4.128L8.03198 3.904L8.15998 3.776L8.92798 3.552L9.79198 3.392L10.08 3.36Z" fill="#333333"/>
<path d="M5.37598 1.312L5.56798 1.344L5.69598 1.472V13.44L5.56798 13.6H5.31198L5.18398 13.472V1.44L5.27998 1.344L5.37598 1.312Z" fill="#333333"/>
<path d="M10.688 12.16H10.912L11.392 12.48L11.936 12.768L12.608 12.992L13.376 13.12H15.84L15.968 13.248V13.504L15.872 13.632L15.264 13.664H13.312L12.64 13.568L11.968 13.376L11.744 13.28L11.456 13.184L11.04 12.96L10.688 12.704L10.56 12.576V12.288L10.688 12.16Z" fill="#333333"/>
<path d="M10.272 2.048H11.2L11.712 2.144L12.16 2.304L12.416 2.432L12.48 2.56L12.448 2.784L12.352 2.88H12.064L11.68 2.72L11.296 2.624H10.176L9.53598 2.784L9.24798 2.912L8.70398 3.2H8.41598L8.28798 3.04V2.848L8.44798 2.688L8.92798 2.432L9.50398 2.208L10.048 2.08L10.272 2.048Z" fill="#333333"/>
<path d="M1.63198 9.92H1.85598L2.01598 10.08V10.304L1.69598 10.88L1.27998 11.712L1.11998 12.128L0.479982 13.6L0.383982 13.664H0.159982L0.0319824 13.536V13.28L0.159982 12.864L0.479982 12.096L0.703982 11.616L1.11998 10.752L1.37598 10.304L1.47198 10.08L1.63198 9.92Z" fill="#333333"/>
<path d="M10.112 0.864H10.368L10.528 1.024V1.216L10.368 1.376L9.69598 1.536L9.27998 1.696L8.89598 1.952L8.57598 2.24L8.31998 2.592L8.09598 2.624L7.93598 2.56L7.90398 2.496V2.208L8.12798 1.856L8.41598 1.568L8.63998 1.408L9.15198 1.152L9.66398 0.96L10.112 0.864Z" fill="#333333"/>
</g>
<defs>
<clipPath id="clip0_2667_4144">
<rect width="16" height="16" fill="white"/>
</clipPath>
</defs>
</svg>
