<svg width="30" height="30" viewBox="0 0 30 30" fill="none" xmlns="http://www.w3.org/2000/svg">
<path d="M21.2618 25.1424H11.8995C11.4176 25.1397 10.9561 24.947 10.6153 24.6062C10.2745 24.2654 10.0818 23.8039 10.0791 23.322V20.2012C10.0791 19.9943 10.1613 19.7958 10.3076 19.6495C10.4539 19.5032 10.6524 19.421 10.8593 19.421C11.0662 19.421 11.2647 19.5032 11.411 19.6495C11.5573 19.7958 11.6395 19.9943 11.6395 20.2012V23.322C11.6395 23.3909 11.6669 23.4571 11.7156 23.5058C11.7644 23.5546 11.8306 23.582 11.8995 23.582H21.2618C21.3308 23.582 21.3969 23.5546 21.4457 23.5058C21.4944 23.4571 21.5218 23.3909 21.5218 23.322V20.2012C21.5218 19.9943 21.604 19.7958 21.7504 19.6495C21.8967 19.5032 22.0951 19.421 22.302 19.421C22.509 19.421 22.7074 19.5032 22.8537 19.6495C23 19.7958 23.0822 19.9943 23.0822 20.2012V23.322C23.0795 23.8039 22.8868 24.2654 22.546 24.6062C22.2052 24.947 21.7438 25.1397 21.2618 25.1424Z" fill="#BF9766"/>
<path d="M21.2622 11.6192H13.0546C12.8477 11.6192 12.6492 11.537 12.5029 11.3906C12.3566 11.2443 12.2744 11.0459 12.2744 10.839C12.2744 10.632 12.3566 10.4336 12.5029 10.2873C12.6492 10.141 12.8477 10.0588 13.0546 10.0588H21.2622C21.4691 10.0588 21.6675 10.141 21.8138 10.2873C21.9602 10.4336 22.0424 10.632 22.0424 10.839C22.0424 11.0459 21.9602 11.2443 21.8138 11.3906C21.6675 11.537 21.4691 11.6192 21.2622 11.6192Z" fill="#BF9766"/>
<path d="M22.3026 14.2198H14.8128C14.7532 14.2206 14.6953 14.2001 14.6495 14.1619C14.6037 14.1238 14.5731 14.0705 14.5632 14.0117L12.8467 6.28265C12.7585 5.8772 12.5337 5.51437 12.2098 5.25492C11.886 4.99548 11.4828 4.85518 11.0679 4.85751H7.94716C7.67587 4.85768 7.40804 4.91848 7.16326 5.03547C6.91849 5.15245 6.70295 5.32267 6.53242 5.53367C6.35795 5.74324 6.2343 5.99031 6.17114 6.25558C6.10798 6.52085 6.10702 6.79714 6.16834 7.06284L8.66494 18.724C8.80468 19.3627 9.15819 19.9345 9.667 20.3449C10.1758 20.7554 10.8095 20.9799 11.4632 20.9814H22.3026C22.7846 20.9787 23.246 20.786 23.5868 20.4452C23.9276 20.1044 24.1203 19.6429 24.123 19.1609V16.0402C24.1203 15.5582 23.9276 15.0968 23.5868 14.756C23.246 14.4152 22.7846 14.2225 22.3026 14.2198Z" fill="#BF9766"/>
</svg>
