<svg width="62" height="62" viewBox="0 0 62 62" fill="none" xmlns="http://www.w3.org/2000/svg">
<g clip-path="url(#clip0_1648_806)">
<path d="M50.1985 11.4941V9.68738C50.1985 9.17352 49.9944 8.68071 49.631 8.31736C49.2677 7.95401 48.7748 7.74988 48.261 7.74988H13.7347C13.2209 7.74988 12.7281 7.95401 12.3647 8.31736C12.0014 8.68071 11.7972 9.17352 11.7972 9.68738V11.4941C11.6204 12.8709 10.6287 22.4821 16.2692 29.0151C19.2808 32.5026 23.5784 34.4462 29.0604 34.8107V50.3749H19.3729C18.859 50.3749 18.3662 50.579 18.0028 50.9423C17.6395 51.3057 17.4354 51.7985 17.4354 52.3124C17.4354 52.8262 17.6395 53.319 18.0028 53.6824C18.3662 54.0457 18.859 54.2499 19.3729 54.2499H42.6229C43.1367 54.2499 43.6295 54.0457 43.9929 53.6824C44.3562 53.319 44.5604 52.8262 44.5604 52.3124C44.5604 51.7985 44.3562 51.3057 43.9929 50.9423C43.6295 50.579 43.1367 50.3749 42.6229 50.3749H32.9354V34.8107C38.4173 34.4474 42.7149 32.5026 45.7265 29.0151C51.367 22.4821 50.3729 12.8709 50.1985 11.4941ZM15.6504 11.907C15.665 11.8137 15.6722 11.7193 15.6722 11.6249H46.3235C46.3235 11.7193 46.3308 11.8137 46.3453 11.907C46.5544 13.7445 46.5544 15.5999 46.3453 17.4374H15.6577C15.4486 15.6 15.4461 13.745 15.6504 11.907Z" fill="#D0D0D0"/>
</g>
<defs>
<clipPath id="clip0_1648_806">
<rect width="62" height="62" fill="white"/>
</clipPath>
</defs>
</svg>
