<svg width="62" height="62" viewBox="0 0 62 62" fill="none" xmlns="http://www.w3.org/2000/svg">
<g clip-path="url(#clip0_1648_820)">
<path d="M41.3431 15.4992V30.9992C41.3431 33.8409 43.6681 36.1659 46.5098 36.1659H49.0931V54.2492C49.0931 55.67 50.2556 56.8325 51.6764 56.8325C53.0973 56.8325 54.2598 55.67 54.2598 54.2492V8.08506C54.2598 6.40589 52.6839 5.16589 51.0564 5.55339C45.4764 6.92256 41.3431 11.6501 41.3431 15.4992ZM28.4264 23.2492H23.2598V7.74923C23.2598 6.32839 22.0973 5.16589 20.6764 5.16589C19.2556 5.16589 18.0931 6.32839 18.0931 7.74923V23.2492H12.9264V7.74923C12.9264 6.32839 11.7639 5.16589 10.3431 5.16589C8.92227 5.16589 7.75977 6.32839 7.75977 7.74923V23.2492C7.75977 28.9584 12.3839 33.5826 18.0931 33.5826V54.2492C18.0931 55.67 19.2556 56.8325 20.6764 56.8325C22.0973 56.8325 23.2598 55.67 23.2598 54.2492V33.5826C28.9689 33.5826 33.5931 28.9584 33.5931 23.2492V7.74923C33.5931 6.32839 32.4306 5.16589 31.0098 5.16589C29.5889 5.16589 28.4264 6.32839 28.4264 7.74923V23.2492Z" fill="#D0D0D0"/>
</g>
<defs>
<clipPath id="clip0_1648_820">
<rect width="62" height="62" fill="white"/>
</clipPath>
</defs>
</svg>
