<svg width="62" height="62" viewBox="0 0 62 62" fill="none" xmlns="http://www.w3.org/2000/svg">
<g clip-path="url(#clip0_1648_824)">
<path d="M7.7513 49.0841C7.01936 49.0841 6.40625 48.8361 5.91197 48.3401C5.41597 47.8458 5.16797 47.2327 5.16797 46.5008C5.16797 45.7688 5.41597 45.1557 5.91197 44.6614C6.40625 44.1654 7.01936 43.9174 7.7513 43.9174H54.2513C54.9832 43.9174 55.5964 44.1654 56.0906 44.6614C56.5866 45.1557 56.8346 45.7688 56.8346 46.5008C56.8346 47.2327 56.5866 47.8458 56.0906 48.3401C55.5964 48.8361 54.9832 49.0841 54.2513 49.0841H7.7513ZM7.7513 41.3341V38.7508C7.7513 33.2396 9.44166 28.3744 12.8224 24.1549C16.2014 19.9355 20.5388 17.266 25.8346 16.1466V15.5008C25.8346 14.0799 26.341 12.864 27.3536 11.8531C28.3646 10.8404 29.5805 10.3341 31.0013 10.3341C32.4221 10.3341 33.6389 10.8404 34.6516 11.8531C35.6625 12.864 36.168 14.0799 36.168 15.5008V16.1466C41.5069 17.266 45.8555 19.9355 49.2138 24.1549C52.5721 28.3744 54.2513 33.2396 54.2513 38.7508V41.3341H7.7513Z" fill="#D0D0D0"/>
</g>
<defs>
<clipPath id="clip0_1648_824">
<rect width="62" height="62" fill="white"/>
</clipPath>
</defs>
</svg>
