<svg width="62" height="62" viewBox="0 0 62 62" fill="none" xmlns="http://www.w3.org/2000/svg">
<g clip-path="url(#clip0_1648_530)">
<path d="M33.5834 53.8614C33.6695 54.6795 33.4008 55.3796 32.7774 55.9617C32.1522 56.5421 31.4521 56.7677 30.6771 56.6385C23.1854 55.5191 17.2438 52.6232 12.8521 47.9508C8.46044 43.2801 5.96322 36.9191 5.36044 28.8677C5.27433 28.0066 5.52147 27.285 6.10185 26.7029C6.68397 26.1225 7.40558 25.8969 8.26669 26.026C16.1459 27.1024 22.2167 30.1378 26.4792 35.1323C30.7417 40.1267 33.1097 46.3698 33.5834 53.8614ZM28.9979 7.68435C29.5146 6.9524 30.1923 6.59676 31.031 6.61743C31.8715 6.63982 32.55 7.01698 33.0667 7.74893C35.0042 10.4614 36.6946 13.4323 38.1378 16.6614C39.5793 19.8906 40.4507 22.6031 40.7521 24.7989C39.0729 25.5739 37.2 26.8329 35.1334 28.5758C33.0667 30.3204 31.7104 31.6663 31.0646 32.6135C30.4618 31.6663 29.0737 30.2773 26.9003 28.4466C24.7251 26.6176 22.8841 25.4017 21.3771 24.7989C21.7215 22.6462 22.5939 19.9225 23.994 16.6278C25.3925 13.335 27.0604 10.3538 28.9979 7.68435ZM53.9271 26.026C54.7452 25.9399 55.4341 26.1655 55.9938 26.7029C56.5535 27.2419 56.8118 27.942 56.7688 28.8031C56.4243 35.735 54.5411 41.365 51.119 45.6929C47.6952 50.0192 43.5507 53.0434 38.6854 54.7656C38.5993 52.1392 38.2015 49.1581 37.4919 45.8221C36.7807 42.4844 35.6716 39.6101 34.1646 37.1989C36.016 34.3573 38.7612 31.9031 42.4003 29.8364C46.0376 27.7698 49.8799 26.4996 53.9271 26.026Z" fill="#D0D0D0"/>
</g>
<defs>
<clipPath id="clip0_1648_530">
<rect width="62" height="62" fill="white"/>
</clipPath>
</defs>
</svg>
