<svg width="62" height="62" viewBox="0 0 62 62" fill="none" xmlns="http://www.w3.org/2000/svg">
<path d="M7.44336 38.5433C11.7575 36.6058 16.0459 34.6683 20.36 33.8158V12.71C20.36 10.6545 21.1765 8.68329 22.6299 7.22988C24.0834 5.77648 26.0546 4.95996 28.11 4.95996C31.4942 4.95996 34.3617 7.10413 35.4209 10.1266H28.11C27.4249 10.1266 26.7678 10.3988 26.2833 10.8833C25.7989 11.3677 25.5267 12.0248 25.5267 12.71V15.2933H38.4434V12.71C38.4434 10.6545 39.2599 8.68329 40.7133 7.22988C42.1667 5.77648 44.1379 4.95996 46.1934 4.95996C49.5775 4.95996 52.445 7.10413 53.5042 10.1266H46.1934C45.5082 10.1266 44.8511 10.3988 44.3667 10.8833C43.8822 11.3677 43.61 12.0248 43.61 12.71V38.3883C48.7767 37.5616 53.9434 33.3766 59.11 33.3766V38.5433C53.375 38.5433 47.64 43.71 41.8792 43.71C36.1442 43.71 30.4092 38.5433 24.6742 38.5433C18.9134 38.5433 13.1784 41.1266 7.44336 43.71V38.5433ZM38.4434 20.46H25.5267V25.6266H38.4434V20.46ZM38.4434 30.7933H25.5267V33.3766C29.8409 33.79 34.1292 36.7608 38.4434 38.0008V30.7933ZM7.44336 48.8766C13.1784 46.2933 18.9134 43.71 24.6742 43.71C30.4092 43.71 36.1442 48.8766 41.8792 48.8766C47.64 48.8766 53.375 43.71 59.11 43.71V48.8766C53.375 48.8766 47.64 54.0433 41.8792 54.0433C36.1442 54.0433 30.4092 48.8766 24.6742 48.8766C18.9134 48.8766 13.1784 51.46 7.44336 54.0433V48.8766Z" fill="#D0D0D0"/>
</svg>
