<svg width="62" height="62" viewBox="0 0 62 62" fill="none" xmlns="http://www.w3.org/2000/svg">
<g clip-path="url(#clip0_1648_1226)">
<path d="M52.3125 7.75H11.625C11.1111 7.75 10.6183 7.95413 10.255 8.31748C9.89163 8.68083 9.6875 9.17364 9.6875 9.6875V32.9375C9.69102 36.0196 10.9169 38.9744 13.0963 41.1537C15.2756 43.3331 18.2304 44.559 21.3125 44.5625H34.875C37.9571 44.559 40.9119 43.3331 43.0912 41.1537C45.2706 38.9744 46.4965 36.0196 46.5 32.9375V23.25H48.6797C50.6702 23.2478 52.5785 22.456 53.986 21.0485C55.3935 19.641 56.1852 17.7327 56.1875 15.7422V11.625C56.1875 10.5973 55.7792 9.61166 55.0525 8.88496C54.3258 8.15826 53.3402 7.75 52.3125 7.75ZM52.3125 15.7422C52.3125 16.7057 51.9297 17.6297 51.2485 18.311C50.5672 18.9923 49.6432 19.375 48.6797 19.375H46.5V11.625H52.3125V15.7422ZM48.4375 48.4375H7.75C7.23614 48.4375 6.74333 48.6416 6.37998 49.005C6.01663 49.3683 5.8125 49.8611 5.8125 50.375C5.8125 50.8889 6.01663 51.3817 6.37998 51.745C6.74333 52.1084 7.23614 52.3125 7.75 52.3125H48.4375C48.9513 52.3125 49.4442 52.1084 49.8075 51.745C50.1709 51.3817 50.375 50.8889 50.375 50.375C50.375 49.8611 50.1709 49.3683 49.8075 49.005C49.4442 48.6416 48.9513 48.4375 48.4375 48.4375Z" fill="#D0D0D0"/>
</g>
<defs>
<clipPath id="clip0_1648_1226">
<rect width="62" height="62" fill="white"/>
</clipPath>
</defs>
</svg>
