<svg width="62" height="62" viewBox="0 0 62 62" fill="none" xmlns="http://www.w3.org/2000/svg">
<g clip-path="url(#clip0_1648_773)">
<path d="M41.9689 36.8491C38.9542 34.1693 35.061 32.6891 31.0275 32.6891C26.9939 32.6891 23.1007 34.1693 20.086 36.8491C19.8313 37.0695 19.6229 37.3384 19.4729 37.64C19.323 37.9416 19.2344 38.2701 19.2124 38.6062C19.1905 38.9424 19.2355 39.2795 19.3449 39.5981C19.4544 39.9167 19.626 40.2104 19.8499 40.4621C20.0737 40.7138 20.3454 40.9185 20.649 41.0644C20.9527 41.2102 21.2823 41.2943 21.6187 41.3117C21.9551 41.3291 22.2917 41.2794 22.6087 41.1657C22.9258 41.0519 23.2171 40.8763 23.4658 40.649C25.5493 38.7972 28.2399 37.7744 31.0275 37.7744C33.815 37.7744 36.5056 38.7972 38.5892 40.649C39.0934 41.0972 39.755 41.3267 40.4284 41.2871C41.1019 41.2475 41.732 40.9419 42.1802 40.4377C42.6284 39.9335 42.8579 39.2719 42.8183 38.5984C42.7786 37.925 42.4731 37.2949 41.9689 36.8467V36.8491Z" fill="#D0D0D0"/>
<path d="M31.0369 22.2448C24.2093 22.2354 17.6352 24.8304 12.6548 29.5007C12.4027 29.7266 12.1982 30.0005 12.0533 30.3065C11.9084 30.6124 11.826 30.9443 11.8111 31.2825C11.7961 31.6207 11.8488 31.9584 11.9661 32.276C12.0834 32.5936 12.2629 32.8845 12.4942 33.1318C12.7254 33.379 13.0036 33.5776 13.3126 33.7159C13.6216 33.8542 13.9551 33.9295 14.2936 33.9372C14.632 33.9449 14.9686 33.885 15.2836 33.7609C15.5985 33.6368 15.8856 33.4511 16.1278 33.2147C20.1717 29.4339 25.5009 27.3308 31.0369 27.3308C36.5728 27.3308 41.9021 29.4339 45.9459 33.2147C46.1882 33.4511 46.4752 33.6368 46.7902 33.7609C47.1052 33.885 47.4418 33.9449 47.7802 33.9372C48.1186 33.9295 48.4521 33.8542 48.7611 33.7159C49.0701 33.5776 49.3484 33.379 49.5796 33.1318C49.8108 32.8845 49.9903 32.5936 50.1076 32.276C50.2249 31.9584 50.2777 31.6207 50.2627 31.2825C50.2477 30.9443 50.1654 30.6124 50.0205 30.3065C49.8756 30.0005 49.6711 29.7266 49.4189 29.5007C44.4386 24.8304 37.8645 22.2354 31.0369 22.2448Z" fill="#D0D0D0"/>
<path d="M55.9485 21.2957C49.0925 15.1785 40.2254 11.7977 31.0371 11.7977C21.8488 11.7977 12.9817 15.1785 6.12568 21.2957C5.86801 21.5158 5.65693 21.7852 5.50485 22.088C5.35277 22.3909 5.26274 22.721 5.24007 23.0591C5.2174 23.3973 5.26254 23.7365 5.37283 24.0569C5.48313 24.3774 5.65635 24.6725 5.88233 24.925C6.10831 25.1776 6.38248 25.3824 6.68874 25.5274C6.99499 25.6725 7.32715 25.7549 7.6657 25.7698C8.00426 25.7847 8.34236 25.7317 8.66017 25.6141C8.97797 25.4964 9.26905 25.3165 9.51631 25.0847C15.4398 19.8019 23.0995 16.8824 31.0365 16.8824C38.9735 16.8824 46.6332 19.8019 52.5567 25.0847C53.0594 25.5343 53.7202 25.7658 54.3937 25.7282C55.0671 25.6907 55.6981 25.3871 56.1477 24.8843C56.5973 24.3815 56.8288 23.7207 56.7912 23.0473C56.7536 22.3738 56.4501 21.7429 55.9473 21.2933L55.9485 21.2957Z" fill="#D0D0D0"/>
<path d="M31.0273 51.5145C33.1674 51.5145 34.9023 49.7796 34.9023 47.6395C34.9023 45.4994 33.1674 43.7645 31.0273 43.7645C28.8872 43.7645 27.1523 45.4994 27.1523 47.6395C27.1523 49.7796 28.8872 51.5145 31.0273 51.5145Z" fill="#D0D0D0"/>
</g>
<defs>
<clipPath id="clip0_1648_773">
<rect width="62" height="62" fill="white"/>
</clipPath>
</defs>
</svg>
